<svg width="240" height="240" viewBox="0 0 240 240" fill="none" xmlns="http://www.w3.org/2000/svg">
<path d="M37.4199 205.55C49.4199 220 71.7399 220 116.39 220H123.61C168.26 220 190.59 220 202.59 205.55M37.4199 205.55C25.4199 191.09 29.5399 169.15 37.7699 125.25C43.6199 94.05 46.5399 78.44 57.6499 69.22M202.59 205.55C214.59 191.09 210.47 169.15 202.24 125.25C196.39 94.05 193.46 78.44 182.35 69.22M182.35 69.22C171.25 60 155.36 60 123.61 60H116.39C84.6399 60 68.7599 60 57.6499 69.22" stroke="#FCA7B5" stroke-width="14"/>
<path d="M114.86 152.61L105.99 164.7C101.39 161.33 95.78 156.74 91.25 151.49C86.91 146.47 82.5 139.67 82.5 131.97C82.5 121 88.12 112.01 97.46 108.74C104.751 106.182 112.835 107.624 120 112.343C127.165 107.624 135.249 106.182 142.54 108.74C151.87 112.01 157.5 121 157.5 131.97C157.5 139.67 153.09 146.48 148.75 151.5C144.221 156.739 138.601 161.329 134.002 164.699M114.86 152.61L105.99 164.71L106 164.7C106.239 164.875 106.48 165.054 106.724 165.234C110.227 167.825 114.222 170.78 120 170.78C125.801 170.78 129.805 167.81 133.318 165.205C133.547 165.035 133.774 164.866 134 164.7M114.86 152.61C116.198 153.655 117.601 154.613 119.06 155.48C119.6 155.78 119.76 155.78 120 155.78C120.24 155.78 120.4 155.78 120.94 155.49C122.4 154.617 123.803 153.662 125.14 152.61M114.86 152.61C110.69 149.54 106.08 145.71 102.59 141.68C98.91 137.42 97.5 134.11 97.5 131.97C97.5 126.21 100.13 123.7 102.42 122.9C104.919 122.02 109.557 122.3 114.815 127.325L114.81 127.33C116.206 128.668 118.066 129.416 120 129.416C121.934 129.416 123.794 128.668 125.19 127.33C130.44 122.3 135.08 122.02 137.59 122.9C139.87 123.7 142.5 126.2 142.5 131.97C142.5 134.11 141.09 137.42 137.4 141.68C133.92 145.71 129.31 149.54 125.14 152.61M134 164.7L134.01 164.71L134.002 164.699M134 164.7C134.001 164.699 134.001 164.699 134.002 164.699M134 164.7L125.14 152.61M134.002 164.699L125.14 152.61" fill="#FCA7B5"/>
<path d="M114.86 152.61L105.99 164.7C101.39 161.33 95.78 156.74 91.25 151.49C86.91 146.47 82.5 139.67 82.5 131.97C82.5 121 88.12 112.01 97.46 108.74C104.751 106.182 112.835 107.624 120 112.343C127.165 107.624 135.249 106.182 142.54 108.74C151.87 112.01 157.5 121 157.5 131.97C157.5 139.67 153.09 146.48 148.75 151.5C144.221 156.739 138.601 161.329 134.002 164.699M114.86 152.61L105.99 164.71L106 164.7C106.239 164.875 106.48 165.054 106.724 165.234C110.227 167.825 114.222 170.78 120 170.78C125.801 170.78 129.805 167.81 133.318 165.205C133.547 165.035 133.774 164.866 134 164.7M114.86 152.61C116.198 153.655 117.601 154.613 119.06 155.48C119.6 155.78 119.76 155.78 120 155.78C120.24 155.78 120.4 155.78 120.94 155.49C122.4 154.617 123.803 153.662 125.14 152.61M114.86 152.61C110.69 149.54 106.08 145.71 102.59 141.68C98.91 137.42 97.5 134.11 97.5 131.97C97.5 126.21 100.13 123.7 102.42 122.9C104.919 122.02 109.557 122.3 114.815 127.325L114.81 127.33C116.206 128.668 118.066 129.416 120 129.416C121.934 129.416 123.794 128.668 125.19 127.33C130.44 122.3 135.08 122.02 137.59 122.9C139.87 123.7 142.5 126.2 142.5 131.97C142.5 134.11 141.09 137.42 137.4 141.68C133.92 145.71 129.31 149.54 125.14 152.61M134 164.7L134.01 164.71L134.002 164.699M134 164.7C134.001 164.699 134.001 164.699 134.002 164.699M134 164.7L125.14 152.61M134.002 164.699L125.14 152.61" stroke="white"/>
<path d="M90 60V50C90 42.0435 93.1607 34.4129 98.7868 28.7868C104.413 23.1607 112.044 20 120 20C127.956 20 135.587 23.1607 141.213 28.7868C146.839 34.4129 150 42.0435 150 50V60" stroke="#FCA7B5" stroke-width="14" stroke-linecap="round"/>
</svg>
