<svg width="48" height="48" viewBox="0 0 48 48" fill="none" xmlns="http://www.w3.org/2000/svg">
<path d="M7.48403 41.11C9.88403 44 14.348 44 23.278 44H24.722C33.652 44 38.118 44 40.518 41.11M7.48403 41.11C5.08403 38.218 5.90803 33.83 7.55403 25.05C8.72403 18.81 9.30803 15.688 11.53 13.844M40.518 41.11C42.918 38.218 42.094 33.83 40.448 25.05C39.278 18.81 38.692 15.688 36.47 13.844M36.47 13.844C34.25 12 31.072 12 24.722 12H23.278C16.928 12 13.752 12 11.53 13.844" stroke="white" stroke-width="2"/>
<path d="M24 24.3819L22.962 25.4659C23.2413 25.7336 23.6132 25.883 24 25.883C24.3868 25.883 24.7587 25.7336 25.038 25.4659L24 24.3819ZM22.972 30.5219C22.138 29.9079 21.216 29.1419 20.518 28.3359C19.782 27.4839 19.5 26.8219 19.5 26.3939H16.5C16.5 27.9339 17.382 29.2939 18.25 30.2979C19.156 31.3479 20.278 32.2659 21.198 32.9399L22.972 30.5219ZM19.5 26.3939C19.5 25.2419 20.026 24.7399 20.484 24.5799C20.984 24.4039 21.912 24.4599 22.964 25.4659L25.038 23.2999C23.388 21.7199 21.316 21.1079 19.492 21.7479C17.624 22.4019 16.5 24.1999 16.5 26.3939H19.5ZM26.8 32.9399C27.72 32.2659 28.844 31.3479 29.75 30.2999C30.618 29.2959 31.5 27.9339 31.5 26.3939H28.5C28.5 26.8219 28.218 27.4839 27.48 28.3359C26.784 29.1419 25.862 29.9079 25.028 30.5219L26.802 32.9419L26.8 32.9399ZM31.5 26.3939C31.5 24.1999 30.374 22.4019 28.508 21.7479C26.684 21.1079 24.612 21.7199 22.962 23.2999L25.038 25.4659C26.088 24.4599 27.016 24.4039 27.518 24.5799C27.974 24.7399 28.5 25.2399 28.5 26.3939H31.5ZM21.2 32.9399C21.936 33.4799 22.764 34.1559 24 34.1559V31.1559C23.952 31.1559 23.92 31.1559 23.812 31.0959C23.5201 30.9226 23.2395 30.7308 22.972 30.5219L21.198 32.9419L21.2 32.9399ZM25.028 30.5219C24.7606 30.7322 24.48 30.9233 24.188 31.0979C24.08 31.1559 24.048 31.1559 24 31.1559V34.1559C25.236 34.1559 26.064 33.4819 26.8 32.9399L25.028 30.5219Z" fill="white"/>
<path d="M18 12V10C18 8.4087 18.6321 6.88258 19.7574 5.75736C20.8826 4.63214 22.4087 4 24 4C25.5913 4 27.1174 4.63214 28.2426 5.75736C29.3679 6.88258 30 8.4087 30 10V12" stroke="white" stroke-width="2" stroke-linecap="round"/>
</svg>
