<svg width="34" height="37" viewBox="0 0 34 37" fill="none" xmlns="http://www.w3.org/2000/svg">
<path d="M23.6667 8.5H9.5L6.58333 9.75L4.91667 11.8333L3.66667 16.8333L2.41667 24.3333L2 30.5833L4.91667 33.5L8.66667 34.75H22.4167L27.8333 34.3333L30.75 32.25L32 29.3333V27.25L31.5833 24.3333L30.75 19.3333L29.0833 12.6667L27.8333 10.1667L26.1667 8.91667L23.6667 8.5Z" fill="#FFC06D"/>
<path d="M3.23665 32.7583C5.23665 35.1667 8.95665 35.1667 16.3983 35.1667H17.6016C25.0433 35.1667 28.765 35.1667 30.765 32.7583M3.23665 32.7583C1.23665 30.3483 1.92331 26.6917 3.29498 19.375C4.26998 14.175 4.75665 11.5733 6.60831 10.0367M30.765 32.7583C32.765 30.3483 32.0783 26.6917 30.7066 19.375C29.7316 14.175 29.2433 11.5733 27.3916 10.0367M27.3916 10.0367C25.5416 8.5 22.8933 8.5 17.6016 8.5H16.3983C11.1066 8.5 8.45998 8.5 6.60831 10.0367" stroke="white" stroke-width="2"/>
<path d="M17 18.8186L16.135 19.722C16.3677 19.9451 16.6776 20.0696 17 20.0696C17.3224 20.0696 17.6323 19.9451 17.865 19.722L17 18.8186ZM16.1433 23.9353C15.4483 23.4236 14.68 22.7853 14.0983 22.1136C13.485 21.4036 13.25 20.852 13.25 20.4953H10.75C10.75 21.7786 11.485 22.912 12.2083 23.7486C12.9633 24.6236 13.8983 25.3886 14.665 25.9503L16.1433 23.9353ZM13.25 20.4953C13.25 19.5353 13.6883 19.117 14.07 18.9836C14.4867 18.837 15.26 18.8836 16.1367 19.722L17.865 17.917C16.49 16.6003 14.7633 16.0903 13.2433 16.6236C11.6867 17.1686 10.75 18.667 10.75 20.4953H13.25ZM19.3333 25.9503C20.1 25.3886 21.0367 24.6236 21.7917 23.7503C22.515 22.9136 23.25 21.7786 23.25 20.4953H20.75C20.75 20.852 20.515 21.4036 19.9 22.1136C19.32 22.7853 18.5517 23.4236 17.8567 23.9353L19.335 25.952L19.3333 25.9503ZM23.25 20.4953C23.25 18.667 22.3117 17.1686 20.7567 16.6236C19.2367 16.0903 17.51 16.6003 16.135 17.917L17.865 19.722C18.74 18.8836 19.5133 18.837 19.9317 18.9836C20.3117 19.117 20.75 19.5336 20.75 20.4953H23.25ZM14.6667 25.9503C15.28 26.4003 15.97 26.9636 17 26.9636V24.4636C16.96 24.4636 16.9333 24.4636 16.8433 24.4136C16.6001 24.2692 16.3663 24.1094 16.1433 23.9353L14.665 25.952L14.6667 25.9503ZM17.8567 23.9353C17.6338 24.1106 17.4 24.2698 17.1567 24.4153C17.0667 24.4636 17.04 24.4636 17 24.4636V26.9636C18.03 26.9636 18.72 26.402 19.3333 25.9503L17.8567 23.9353Z" fill="white"/>
<path d="M3.23665 32.7583C5.23665 35.1667 8.95665 35.1667 16.3983 35.1667H17.6016C25.0433 35.1667 28.765 35.1667 30.765 32.7583M3.23665 32.7583C1.23665 30.3483 1.92331 26.6917 3.29498 19.375C4.26998 14.175 4.75665 11.5733 6.60831 10.0367M30.765 32.7583C32.765 30.3483 32.0783 26.6917 30.7066 19.375C29.7316 14.175 29.2433 11.5733 27.3916 10.0367M27.3916 10.0367C25.5416 8.5 22.8933 8.5 17.6016 8.5H16.3983C11.1066 8.5 8.45998 8.5 6.60831 10.0367" stroke="white" stroke-width="2"/>
<path d="M12 8.50016V6.8335C12 5.50741 12.5268 4.23564 13.4645 3.29796C14.4021 2.36028 15.6739 1.8335 17 1.8335C18.3261 1.8335 19.5979 2.36028 20.5355 3.29796C21.4732 4.23564 22 5.50741 22 6.8335V8.50016" fill="white" fill-opacity="0.25"/>
<path d="M12 8.50016V6.8335C12 5.50741 12.5268 4.23564 13.4645 3.29796C14.4021 2.36028 15.6739 1.8335 17 1.8335C18.3261 1.8335 19.5979 2.36028 20.5355 3.29796C21.4732 4.23564 22 5.50741 22 6.8335V8.50016" stroke="white" stroke-width="2" stroke-linecap="round"/>
</svg>
