<svg width="40" height="42" viewBox="0 0 40 42" fill="none" xmlns="http://www.w3.org/2000/svg">
<path d="M3.48476 38.11C5.88476 41 10.3488 41 19.2788 41H20.7228C29.6528 41 34.1188 41 36.5188 38.11M3.48476 38.11C1.08476 35.218 1.90876 30.83 3.55476 22.05C4.72476 15.81 5.30876 12.688 7.53076 10.844M36.5188 38.11C38.9188 35.218 38.0948 30.83 36.4488 22.05C35.2788 15.81 34.6928 12.688 32.4708 10.844M32.4708 10.844C30.2508 9 27.0728 9 20.7228 9H19.2788C12.9288 9 9.75276 9 7.53076 10.844" stroke="white" stroke-width="2"/>
<path d="M3.48476 38.11C5.88476 41 10.3488 41 19.2788 41H20.7228C29.6528 41 34.1188 41 36.5188 38.11M3.48476 38.11C1.08476 35.218 1.90876 30.83 3.55476 22.05C4.72476 15.81 5.30876 12.688 7.53076 10.844M36.5188 38.11C38.9188 35.218 38.0948 30.83 36.4488 22.05C35.2788 15.81 34.6928 12.688 32.4708 10.844M32.4708 10.844C30.2508 9 27.0728 9 20.7228 9H19.2788C12.9288 9 9.75276 9 7.53076 10.844" stroke="white" stroke-width="2"/>
<path d="M14 9V7C14 5.4087 14.6321 3.88258 15.7574 2.75736C16.8826 1.63214 18.4087 1 20 1C21.5913 1 23.1174 1.63214 24.2426 2.75736C25.3679 3.88258 26 5.4087 26 7V9" stroke="white" stroke-width="2" stroke-linecap="round"/>
</svg>
