<svg width="40" height="42" viewBox="0 0 40 42" fill="none" xmlns="http://www.w3.org/2000/svg">
<path d="M28 9H11L7.5 10.5L5.5 13L4 19L2.5 28L2 35.5L5.5 39L10 40.5H26.5L33 40L36.5 37.5L38 34V31.5L37.5 28L36.5 22L34.5 14L33 11L31 9.5L28 9Z" fill="white"/>
<path d="M3.48378 38.11C5.88378 41 10.3478 41 19.2778 41H20.7218C29.6518 41 34.1178 41 36.5178 38.11M3.48378 38.11C1.08378 35.218 1.90778 30.83 3.55378 22.05C4.72378 15.81 5.30778 12.688 7.52978 10.844M36.5178 38.11C38.9178 35.218 38.0938 30.83 36.4478 22.05C35.2778 15.81 34.6918 12.688 32.4698 10.844M32.4698 10.844C30.2498 9 27.0718 9 20.7218 9H19.2778C12.9278 9 9.75178 9 7.52978 10.844" stroke="white" stroke-width="2"/>
<path d="M3.48378 38.11C5.88378 41 10.3478 41 19.2778 41H20.7218C29.6518 41 34.1178 41 36.5178 38.11M3.48378 38.11C1.08378 35.218 1.90778 30.83 3.55378 22.05C4.72378 15.81 5.30778 12.688 7.52978 10.844M36.5178 38.11C38.9178 35.218 38.0938 30.83 36.4478 22.05C35.2778 15.81 34.6918 12.688 32.4698 10.844M32.4698 10.844C30.2498 9 27.0718 9 20.7218 9H19.2778C12.9278 9 9.75178 9 7.52978 10.844" stroke="white" stroke-width="2"/>
<path d="M14 9V7C14 5.4087 14.6321 3.88258 15.7574 2.75736C16.8826 1.63214 18.4087 1 20 1C21.5913 1 23.1174 1.63214 24.2426 2.75736C25.3679 3.88258 26 5.4087 26 7V9" fill="white" fill-opacity="0.25"/>
<path d="M14 9V7C14 5.4087 14.6321 3.88258 15.7574 2.75736C16.8826 1.63214 18.4087 1 20 1C21.5913 1 23.1174 1.63214 24.2426 2.75736C25.3679 3.88258 26 5.4087 26 7V9" stroke="white" stroke-width="2" stroke-linecap="round"/>
</svg>
