<svg width="48" height="48" viewBox="0 0 48 48" fill="none" xmlns="http://www.w3.org/2000/svg">
<g clip-path="url(#clip0_22_2913)">
<path d="M40.9601 7.02411C38.7334 4.79258 36.0878 3.02295 33.1752 1.81687C30.2627 0.610792 27.1405 -0.00797498 23.9881 -0.00388612C10.7321 -0.00388612 -0.013916 10.7421 -0.013916 23.9981C-0.013916 30.6261 2.67408 36.6281 7.01808 40.9721C9.24474 43.2036 11.8903 44.9733 14.8029 46.1794C17.7155 47.3854 20.8377 48.0042 23.9901 48.0001C37.2461 48.0001 47.9921 37.2541 47.9921 23.9981C47.9921 17.3701 45.3041 11.3681 40.9601 7.02411ZM37.8761 37.8781C36.0545 39.7043 33.8901 41.1526 31.5071 42.1397C29.124 43.1269 26.5695 43.6333 23.9901 43.6301C13.1441 43.6301 4.35208 34.8381 4.35208 23.9921C4.34885 21.4127 4.85534 18.8582 5.84246 16.4751C6.82958 14.0921 8.27786 11.9277 10.1041 10.1061C11.9252 8.27986 14.0893 6.83154 16.472 5.84442C18.8547 4.85729 21.409 4.35082 23.9881 4.35411C34.8321 4.35411 43.6241 13.1461 43.6241 23.9901C43.6275 26.5692 43.1211 29.1235 42.1339 31.5063C41.1468 33.889 39.6984 36.0531 37.8721 37.8741L37.8761 37.8781Z" fill="white"/>
<path d="M27.0741 24L34.7841 16.29C35.1644 15.8754 35.3699 15.33 35.3577 14.7676C35.3455 14.2051 35.1166 13.6691 34.7187 13.2715C34.3207 12.8738 33.7846 12.6452 33.2221 12.6334C32.6597 12.6215 32.1144 12.8274 31.7001 13.208L31.7021 13.206L23.9921 20.916L16.2821 13.206C15.8676 12.8257 15.3221 12.6202 14.7597 12.6323C14.1973 12.6445 13.6613 12.8735 13.2636 13.2714C12.8659 13.6694 12.6373 14.2055 12.6255 14.768C12.6137 15.3304 12.8195 15.8757 13.2001 16.29L13.1981 16.288L20.9081 23.998L13.1981 31.708C12.9812 31.907 12.8068 32.1479 12.6854 32.416C12.564 32.6842 12.4981 32.9742 12.4917 33.2685C12.4853 33.5629 12.5386 33.8554 12.6482 34.1286C12.7579 34.4018 12.9217 34.65 13.1298 34.8582C13.3379 35.0665 13.586 35.2304 13.8591 35.3403C14.1322 35.4501 14.4248 35.5035 14.7191 35.4974C15.0134 35.4912 15.3034 35.4255 15.5717 35.3043C15.84 35.183 16.081 35.0088 16.2801 34.792L16.2821 34.79L23.9921 27.08L31.7021 34.79C31.9011 35.0069 32.142 35.1813 32.4102 35.3027C32.6784 35.4241 32.9683 35.49 33.2627 35.4964C33.557 35.5027 33.8495 35.4495 34.1227 35.3398C34.396 35.2302 34.6441 35.0664 34.8524 34.8583C35.0606 34.6502 35.2246 34.4021 35.3344 34.129C35.4442 33.8559 35.4977 33.5633 35.4915 33.269C35.4853 32.9747 35.4196 32.6846 35.2984 32.4164C35.1772 32.1481 35.0029 31.9071 34.7861 31.708L34.7841 31.706L27.0741 24Z" fill="white"/>
<circle cx="24" cy="24" r="24" fill="white" fill-opacity="0.25"/>
</g>
<defs>
<clipPath id="clip0_22_2913">
<rect width="48" height="48" fill="white"/>
</clipPath>
</defs>
</svg>
