<svg width="34" height="34" viewBox="0 0 34 34" fill="none" xmlns="http://www.w3.org/2000/svg">
<path d="M1 29C1 26.8783 1.84285 24.8434 3.34315 23.3431C4.84344 21.8429 6.87827 21 9 21H25C27.1217 21 29.1566 21.8429 30.6569 23.3431C32.1571 24.8434 33 26.8783 33 29C33 30.0609 32.5786 31.0783 31.8284 31.8284C31.0783 32.5786 30.0609 33 29 33H5C3.93913 33 2.92172 32.5786 2.17157 31.8284C1.42143 31.0783 1 30.0609 1 29Z" stroke="white" stroke-width="2" stroke-linejoin="round"/>
<path d="M17 13C20.3137 13 23 10.3137 23 7C23 3.68629 20.3137 1 17 1C13.6863 1 11 3.68629 11 7C11 10.3137 13.6863 13 17 13Z" stroke="white" stroke-width="2"/>
</svg>
