<svg width="1920" height="524" viewBox="0 0 1920 524" fill="none" xmlns="http://www.w3.org/2000/svg">
<path fill-rule="evenodd" clip-rule="evenodd" d="M1920 371.302L1856 391.929C1792 412.557 1664 453.813 1536 484.755C1408 515.697 1280 536.325 1152 515.697C1024 495.069 896 433.185 768 422.871C640 412.557 512 453.813 384 474.441C256 495.069 128 495.069 64 495.069H0L0 0L64 0C128 0 256 0 384 0C512 0 640 0 768 0C896 0 1024 0 1152 0C1280 0 1408 0 1536 0C1664 0 1792 0 1856 0H1920L1920 371.302Z" fill="#FCA7B5"/>
</svg>
