<svg width="54" height="51" viewBox="0 0 54 51" xmlns="http://www.w3.org/2000/svg">
	<path d="M26.1 1.84963C26.8031 1.14738 27.7562 0.75293 28.75 0.75293C29.7437 0.75293 30.6969 1.14738 31.4 1.84963L52.65 23.0996C53.3522 23.8028 53.7467 24.7559 53.7467 25.7496C53.7467 26.7434 53.3522 27.6965 52.65 28.3996L31.4 49.6496C30.6887 50.3117 29.7484 50.6722 28.7768 50.6554C27.8053 50.6386 26.878 50.2458 26.19 49.5596C25.5038 48.8716 25.111 47.9444 25.0942 46.9728C25.0774 46.0012 25.438 45.0609 26.1 44.3496L40.95 29.4996H3.75C2.75544 29.4996 1.80161 29.1045 1.09835 28.4013C0.395088 27.698 0 26.7442 0 25.7496C0 24.7551 0.395088 23.8012 1.09835 23.098C1.80161 22.3947 2.75544 21.9996 3.75 21.9996H40.95L26.1 7.14963C25.3977 6.4465 25.0033 5.49338 25.0033 4.49963C25.0033 3.50588 25.3977 2.55276 26.1 1.84963Z" fill="white"/>
</svg>
