<svg width="32" height="32" viewBox="0 0 32 32" fill="none" xmlns="http://www.w3.org/2000/svg">
<g clip-path="url(#clip0_682_12077)">
<path d="M27.3729 4.68144C25.9096 3.19375 24.1709 2.014 22.2568 1.20995C20.3427 0.405892 18.2909 -0.00661873 16.2191 -0.00389283C7.50746 -0.00389283 0.445312 7.16011 0.445312 15.9974C0.445312 20.4161 2.21183 24.4174 5.06666 27.3134C6.52999 28.8011 8.26865 29.9809 10.1828 30.7849C12.0969 31.589 14.1487 32.0015 16.2205 31.9988C24.9321 31.9988 31.9943 24.8348 31.9943 15.9974C31.9943 11.5788 30.2278 7.57744 27.3729 4.68144ZM25.3462 25.2508C24.1491 26.4683 22.7266 27.4338 21.1605 28.0919C19.5944 28.7499 17.9156 29.0876 16.2205 29.0854C9.09259 29.0854 3.3146 23.2241 3.3146 15.9934C3.31247 14.2739 3.64533 12.5708 4.29405 10.9821C4.94277 9.39345 5.89457 7.95047 7.09474 6.73611C8.29156 5.5186 9.71378 4.55306 11.2797 3.89497C12.8455 3.23689 14.5242 2.89924 16.2191 2.90144C23.3457 2.90144 29.1237 8.76277 29.1237 15.9921C29.1259 17.7115 28.7931 19.4144 28.1444 21.0029C27.4956 22.5913 26.5438 24.0341 25.3435 25.2481L25.3462 25.2508Z" fill="#131313"/>
<path d="M18.2483 16.0006L23.3152 10.8606C23.5651 10.5843 23.7002 10.2207 23.6922 9.8457C23.6841 9.47074 23.5337 9.11341 23.2722 8.8483C23.0106 8.58319 22.6583 8.43078 22.2887 8.42289C21.919 8.41501 21.5607 8.55225 21.2884 8.80597L21.2897 8.80464L16.2228 13.9446L11.1559 8.80464C10.8834 8.55109 10.525 8.41409 10.1554 8.42222C9.78575 8.43035 9.4335 8.58299 9.17215 8.84827C8.91081 9.11356 8.76057 9.47099 8.75279 9.84595C8.74502 10.2209 8.88031 10.5844 9.13043 10.8606L9.12911 10.8593L14.196 15.9993L9.12911 21.1393C8.98655 21.272 8.87193 21.4326 8.79215 21.6113C8.71237 21.7901 8.66908 21.9835 8.66489 22.1797C8.66069 22.3759 8.69568 22.5709 8.76775 22.7531C8.83982 22.9352 8.94747 23.1007 9.08423 23.2395C9.22098 23.3783 9.38402 23.4876 9.56352 23.5608C9.74302 23.6341 9.93526 23.6697 10.1287 23.6656C10.3221 23.6614 10.5127 23.6176 10.689 23.5368C10.8653 23.456 11.0237 23.3398 11.1546 23.1953L11.1559 23.194L16.2228 18.054L21.2897 23.194C21.4205 23.3386 21.5788 23.4549 21.755 23.5358C21.9313 23.6167 22.1219 23.6606 22.3153 23.6649C22.5087 23.6691 22.701 23.6337 22.8805 23.5605C23.0601 23.4874 23.2232 23.3782 23.36 23.2395C23.4969 23.1008 23.6046 22.9354 23.6768 22.7533C23.749 22.5712 23.7841 22.3762 23.78 22.18C23.776 21.9838 23.7328 21.7904 23.6531 21.6116C23.5735 21.4327 23.459 21.2721 23.3165 21.1393L23.3152 21.138L18.2483 16.0006Z" fill="#131313"/>
</g>
<defs>
<clipPath id="clip0_682_12077">
<rect width="31.545" height="32" fill="white" transform="translate(0.455078)"/>
</clipPath>
</defs>
</svg>
