<svg width="120" height="106" viewBox="0 0 120 106" fill="none" xmlns="http://www.w3.org/2000/svg">
<path d="M83.3005 50.9536L83.3073 50.951C91.5337 47.8221 99.5082 44.068 107.161 39.7219C111.189 37.4043 114.572 34.1148 117 30.154L117.005 30.1451L117.011 30.1363C118.42 27.9413 119.11 25.362 118.985 22.757C118.937 21.8544 118.688 21.6159 118.621 21.5746C118.581 21.5495 118.312 21.4243 117.566 21.8096C117.32 21.9397 117.075 22.0681 116.832 22.1956C114.231 23.5596 111.824 24.8217 109.98 26.9309L109.963 26.9493L109.946 26.9669C109.405 27.5285 108.818 28.0456 108.194 28.5131C100.248 35.0351 91.2495 39.8781 82.2537 44.4761L82.216 44.4954L82.1768 44.5114C81.7879 44.6703 81.3874 44.7992 80.9788 44.897L80.1507 45.0952L79.823 44.3093L79.7338 44.0953L79.4394 43.3891L80.044 42.9203C80.2674 42.7471 80.5001 42.5863 80.7411 42.4387L80.7528 42.4316L80.7647 42.4247C82.2125 41.5917 83.6611 40.7671 85.108 39.9433C88.8053 37.8385 92.4919 35.7397 96.1295 33.5225C101.202 30.4307 105.83 27.4257 109.696 23.2323L109.702 23.2249L109.709 23.2177C114.391 18.3386 117.382 12.0868 118.243 5.38187L118.245 5.3668L118.247 5.35179C118.389 4.4634 118.453 3.56446 118.44 2.66498C118.434 2.55636 118.43 2.45452 118.425 2.35847C118.407 1.96346 118.393 1.66627 118.318 1.39675C118.246 1.13751 118.164 1.06811 118.02 1.02049C117.966 1.00259 117.935 1.00029 117.924 1.00003C117.914 0.999798 117.91 1.00092 117.906 1.00208C117.895 1.00534 117.844 1.02469 117.745 1.1202C117.642 1.21932 117.534 1.35389 117.39 1.54567C117.37 1.57176 117.349 1.59964 117.327 1.6289C117.208 1.78868 117.059 1.98949 116.904 2.16323L116.9 2.16711C116.27 2.86571 115.64 3.60554 115 4.35694C113.819 5.74304 112.604 7.16854 111.296 8.44736C104.268 15.5426 96.0743 21.0688 87.4263 25.7941C86.6332 26.231 85.8405 26.6659 85.0486 27.1005C81.645 28.9682 78.2567 30.8275 74.9193 32.7871L74.9133 32.7906C71.8799 34.5432 69.2448 36.9076 67.1753 39.7333C65.1059 42.559 63.6475 45.7842 62.8929 49.2038L62.8902 49.2161L62.8871 49.2284C62.2308 51.8815 62.4227 53.9743 63.169 55.7591C63.9223 57.5604 65.2785 59.1398 67.1132 60.6925C67.2221 60.7758 67.3449 60.8393 67.476 60.8801L67.4847 60.8828L67.4847 60.8828C69.2286 61.4427 71.3216 61.062 73.1041 59.9878C74.8861 58.9139 76.2001 57.2419 76.5138 55.4243L76.5143 55.4214C76.6038 54.9117 76.6173 54.4305 76.5368 54.0422C76.459 53.6674 76.308 53.4324 76.0981 53.2857C76.0979 53.2856 76.0977 53.2854 76.0975 53.2853L76.6697 52.4652C76.1938 52.1337 75.8392 51.7696 75.5654 51.3744L83.3005 50.9536ZM83.3005 50.9536C83.116 51.0253 82.889 51.1482 82.6869 51.3763C82.4908 51.5975 82.37 51.8594 82.2961 52.1328L81.8838 53.6573L83.4382 53.3781C84.4314 53.1997 85.412 52.957 86.3738 52.6516L86.4029 52.6423L86.4313 52.6314L86.5841 52.5723C90.177 51.1852 93.8111 49.7821 97.362 48.1495L97.3621 48.1494C99.7136 47.068 102.057 45.8735 104.38 44.6896C105.923 43.9032 107.457 43.1215 108.978 42.3808L108.978 42.3807C110.746 41.5193 112.493 40.7557 114.382 40.0358C115.286 39.691 115.56 39.8227 115.596 39.8467C115.635 39.8726 115.859 40.0771 115.898 41.0271M83.3005 50.9536L103.734 57.3785M103.734 57.3785C106.809 56.1972 109.606 54.4661 111.858 51.7074C112.168 51.333 112.505 50.9838 112.846 50.6316C113.114 50.3547 113.383 50.076 113.642 49.7817C115.781 47.3606 116.942 44.2301 116.898 41.0003L115.899 41.0398C115.898 41.0355 115.898 41.0313 115.898 41.0271M103.734 57.3785C103.704 57.3867 103.674 57.3949 103.644 57.4031L103.637 57.405L103.63 57.407C101.642 57.9875 99.6356 58.5054 97.6155 58.9602C97.6155 58.9602 97.6154 58.9603 97.6154 58.9603C95.0809 59.5309 92.5243 60.0021 89.9514 60.3727L89.9457 60.3735C89.3185 60.4675 88.7391 60.5039 88.1063 60.5436C87.8902 60.5572 87.6678 60.5712 87.4352 60.5879C86.815 60.6327 86.217 60.6775 85.6205 60.7221C85.5418 60.728 85.4631 60.7339 85.3844 60.7398C85.3788 60.7402 85.3732 60.7406 85.3676 60.7411C85.2148 60.7525 85.062 60.7639 84.9087 60.7753L84.9829 61.7726L85.6053 62.0132L85.6355 62.1873C86.2635 62.0783 86.8944 61.9717 87.5275 61.8664C88.205 61.7536 88.8851 61.6421 89.5665 61.5304C89.746 61.501 89.9257 61.4715 90.1054 61.4421L103.734 57.3785ZM115.898 41.0271C115.935 44.0036 114.864 46.888 112.893 49.1196L112.892 49.1209C112.649 49.3965 112.397 49.6576 112.127 49.9362C112.091 49.9738 112.054 50.0118 112.017 50.0501C111.713 50.3649 111.391 50.7034 111.088 51.07L111.083 51.075C107.633 55.3025 102.791 57.0079 97.44 58.1004L97.4386 58.1007C94.7378 58.6561 92.0279 59.1002 89.2952 59.548C87.9672 59.7656 86.6339 59.9841 85.2936 60.2167L85.276 60.2198L85.2586 60.2234C84.5851 60.3652 84.2424 60.9148 84.0502 61.412L83.4799 62.8872L85.0571 62.7698C85.2974 62.7519 85.5359 62.7341 85.774 62.7162C86.369 62.6717 86.9623 62.6272 87.5791 62.5828C87.7716 62.5689 87.9689 62.5565 88.1704 62.5439C88.823 62.5031 89.5198 62.4595 90.2392 62.3519M115.898 41.0271L90.2392 62.3519M90.2392 62.3519C90.2402 62.3517 90.2412 62.3516 90.2422 62.3514L90.1058 61.442C92.6843 61.0189 95.2799 60.5864 97.8408 60.0598C99.8997 59.6394 101.95 59.1192 103.914 58.3798L104.177 59.3309C104.179 59.3302 104.182 59.3296 104.184 59.329C99.6124 60.6627 94.9527 61.6729 90.2392 62.3519ZM109.53 64.8126C110.939 63.5163 112.142 62.0132 113.098 60.3551C114.293 58.3135 113.321 56.9049 110.975 57.1545C108.632 57.3196 106.311 57.7133 104.046 58.3299C104.002 58.3467 103.958 58.3633 103.914 58.3798L108.871 64.0602M109.53 64.8126L108.89 64.0445C108.883 64.0498 108.877 64.055 108.871 64.0602M109.53 64.8126L108.853 64.0768C108.859 64.0713 108.865 64.0657 108.871 64.0602M109.53 64.8126C106.971 66.9462 103.98 68.5004 100.762 69.3683M108.871 64.0602C106.428 66.0923 103.575 67.5732 100.506 68.4016M100.762 69.3683L100.51 68.4004C100.509 68.4008 100.507 68.4012 100.506 68.4016M100.762 69.3683C100.11 69.5377 99.4443 69.6323 98.7775 69.6525L100.506 68.4016M100.762 69.3683L100.502 68.4028C100.503 68.4024 100.504 68.402 100.506 68.4016M69.0283 56.5149C69.0281 56.5147 69.0279 56.5145 69.0277 56.5143L69.1123 56.4128C68.3259 55.8434 67.692 55.1497 67.2837 54.2839C67.0219 53.7288 66.8528 53.103 66.7955 52.3939C66.7533 52.1066 66.7303 51.8179 66.726 51.5296C66.7121 50.5966 66.8954 49.668 67.2674 48.8054C67.2723 48.7942 67.2771 48.783 67.282 48.7718C67.6518 47.9276 68.1919 47.1728 68.865 46.5531L68.7511 46.4318C68.7522 46.4308 68.7532 46.4298 68.7543 46.4288L69.0283 56.5149ZM69.0283 56.5149C69.0289 56.5153 69.0294 56.5158 69.03 56.5162L69.1143 56.4143L69.0283 56.5149ZM76.0434 46.9978C75.7771 46.3589 75.3688 45.7887 74.8493 45.3305C74.3171 44.8612 73.6828 44.5222 72.9969 44.3406C72.3109 44.1589 71.592 44.1396 70.8972 44.284C70.214 44.426 69.5725 44.7225 69.022 45.1507C67.8548 45.9564 66.935 47.0713 66.366 48.3707C65.7969 49.6704 65.6015 51.1027 65.8014 52.5068C66.0596 55.5398 68.0711 57.2459 70.4281 58.2993L70.5062 58.3342L70.5891 58.3553C70.8522 58.4224 71.1267 58.4282 71.3917 58.3727C71.5069 58.3544 71.6031 58.3202 71.6764 58.2873C71.7705 58.2451 71.8445 58.1963 71.8717 58.1784C71.898 58.1611 71.9159 58.149 71.9303 58.1392C71.9575 58.1209 71.9721 58.111 72.006 58.0914L73.2586 57.3666L72.1376 56.4512C71.8345 56.2038 71.5574 55.9835 71.2902 55.7711C70.9576 55.5068 70.6404 55.2547 70.3077 54.9776L70.3054 54.9757C69.7885 54.5477 69.3692 54.0144 69.0755 53.4113C68.7817 52.8082 68.6204 52.1493 68.6023 51.4789C68.5842 50.8085 68.7097 50.1419 68.9704 49.5238C69.2312 48.9058 69.6211 48.3506 70.1141 47.8954L70.1141 47.8955L70.1204 47.8896C70.884 47.1723 71.6821 47.0127 72.2585 47.1552C72.8067 47.2908 73.3504 47.7462 73.5608 48.711L76.0434 46.9978ZM85.6705 62.1806L85.6379 62.0258L85.853 62.1089C85.852 62.1095 85.851 62.1101 85.85 62.1107C85.7934 62.1443 85.7316 62.1677 85.6705 62.1806Z" stroke="white" stroke-width="2"/>
<path d="M48.0183 35.2653L48.0178 35.2649C44.536 32.5907 40.7007 30.5241 36.7806 28.4118C36.2952 28.1503 35.8085 27.888 35.321 27.6238C23.1631 21.0506 11.7969 13.3969 3.03069 2.09224L3.02965 2.0909C2.94748 1.98455 2.83827 1.83268 2.74397 1.70155C2.68805 1.62377 2.63737 1.55329 2.60069 1.50395C2.46681 1.32381 2.35873 1.19576 2.26043 1.10662C2.16515 1.02022 2.1156 1.00428 2.10569 1.0017C2.10158 1.00063 2.09594 0.999442 2.08364 1.00028C2.07027 1.00119 2.03802 1.00535 1.98317 1.02611C1.83405 1.08255 1.75642 1.1575 1.69679 1.4146C1.63324 1.68855 1.63294 1.99098 1.63252 2.39777C1.63242 2.49507 1.63232 2.59835 1.63134 2.70864C1.64536 7.01034 2.64677 11.2495 4.55608 15.0916L4.55997 15.0994L4.55993 15.0994C7.17415 20.4773 11.0613 25.1162 15.8742 28.6037L15.8801 28.6079L15.8859 28.6122C22.2062 33.3329 29.0329 37.2161 35.9171 41.1321C36.8556 41.666 37.7953 42.2005 38.7348 42.7378L38.7365 42.7387C38.9984 42.8892 39.2793 43.0836 39.5069 43.2411C39.5961 43.3028 39.677 43.3588 39.7455 43.4043L42.8258 45.4529L39.1329 45.2353C38.2439 45.1829 37.3799 44.9218 36.6093 44.4733C35.5279 43.8629 34.4436 43.2541 33.3581 42.6448C29.5038 40.481 25.635 38.3092 21.829 36.0234L21.8229 36.0198C17.0465 33.1051 12.5675 29.7184 8.45178 25.9095L8.45059 25.9084C7.0678 24.6245 5.4048 23.7499 3.61817 22.8103C3.0475 22.5101 2.46421 22.2034 1.87342 21.8745L1.87247 21.874C1.71893 21.7883 1.62058 21.7642 1.57245 21.7584C1.54945 21.7556 1.53758 21.7569 1.53416 21.7574C1.53247 21.7576 1.53145 21.7578 1.53068 21.7581C1.53006 21.7583 1.5296 21.7585 1.52908 21.7587L1.52906 21.7587C1.5282 21.7591 1.49656 21.7727 1.44303 21.8397C1.38682 21.9099 1.31572 22.0281 1.24494 22.2137L1.23504 22.2397L1.22371 22.265C1.04224 22.6715 0.969026 23.1197 1.01195 23.5647L1.01219 23.5672C1.16665 25.2113 1.50608 26.8321 2.02379 28.398C4.03132 33.2611 7.61078 37.2875 12.1732 39.819L12.1827 39.8243L12.1922 39.8298C16.6356 42.4236 21.2599 44.6679 25.9506 46.9445C26.7282 47.3219 27.5076 47.7002 28.2884 48.0811L28.2902 48.082C30.2356 49.036 32.2155 49.8658 34.2267 50.7088C35.1731 51.1054 36.1264 51.505 37.0864 51.9217L36.7285 53.8382C35.5857 53.8844 34.4475 53.6718 33.3969 53.2164C33.3961 53.2161 33.3953 53.2157 33.3945 53.2154L33.0403 53.0636C28.0936 50.9433 23.1263 48.8141 18.2339 46.5636C16.0925 45.6094 13.9876 44.5838 11.9019 43.5656L11.7467 43.4898C9.70692 42.4939 7.68524 41.5068 5.63828 40.5866L5.63194 40.5837C4.71897 40.1656 4.45497 40.3237 4.43258 40.3395C4.36489 40.387 4.1254 40.6631 4.09013 41.6905C4.0622 43.9175 4.69135 46.1015 5.89582 47.9629C7.50852 50.3937 9.47049 52.5668 11.7166 54.4104L11.7299 54.4213L11.7429 54.4327C13.0039 55.5426 14.4642 56.395 16.0434 56.9438L16.0549 56.9478L16.0549 56.9479C21.7426 59.0024 27.6754 59.9919 33.6829 60.912C34.0853 60.9724 34.4919 61.0514 34.8687 61.1246C34.9667 61.1436 35.0628 61.1623 35.1562 61.1801L36.6065 61.4571L35.8111 62.701C35.5386 63.1273 35.0755 63.5952 34.3719 63.5577L34.36 63.5571L34.3481 63.5561C28.7317 63.1221 23.1685 62.1513 17.733 60.6566M48.0183 35.2653L35.7972 26.7445C36.283 27.0077 36.7694 27.2698 37.2558 27.5318C41.1674 29.6391 45.0769 31.7452 48.6269 34.4718C53.9993 38.5925 56.8504 44.1829 58.2492 50.702C59.3094 55.5982 57.0553 59.2229 53.4915 62.1083M48.0183 35.2653C53.155 39.2052 55.9083 44.5592 57.2714 50.9118L57.2718 50.9137C58.2219 55.301 56.2632 58.5759 52.8672 61.327M48.0183 35.2653L52.8672 61.327M17.733 60.6566C17.7323 60.6564 17.7315 60.6562 17.7308 60.656L17.9936 59.7005C17.9169 59.677 17.8402 59.6534 17.7636 59.6296C15.628 59.0628 13.4535 58.6226 11.2865 58.184L11.2069 58.1679C10.2357 57.9492 9.24394 57.8374 8.24896 57.8343M17.733 60.6566C15.5547 60.0682 13.3284 59.6176 11.0732 59.1612L11.0085 59.1481L10.9979 59.1459L10.9872 59.1435C10.0875 58.9409 9.16889 58.8372 8.24731 58.8343M17.733 60.6566C17.7338 60.6568 17.7345 60.657 17.7352 60.6572L17.9936 59.7005M8.24896 57.8343C6.75216 57.8343 6.0394 58.8622 6.52942 60.2869M8.24896 57.8343L8.24591 58.8343C8.24638 58.8343 8.24685 58.8343 8.24731 58.8343M8.24896 57.8343V58.8343C8.24841 58.8343 8.24786 58.8343 8.24731 58.8343M6.52942 60.2869C6.8875 61.3056 7.40162 62.261 8.05295 63.1182C10.0932 65.8863 12.9532 67.5724 15.9735 69.0602C17.7448 69.9763 19.6879 70.4454 21.6415 70.4537C22.0797 70.3459 22.5245 70.2629 22.9741 70.2053L22.9816 70.2043L22.9891 70.2035C23.8155 70.1103 24.6333 69.9885 25.4434 69.8406C25.4435 69.8405 25.4436 69.8405 25.4437 69.8405C25.5399 69.8229 25.6359 69.805 25.7318 69.7867C29.0686 68.7681 32.3963 67.7298 35.6903 66.5806M6.52942 60.2869L7.47505 59.9616C7.47471 59.9606 7.47437 59.9596 7.47402 59.9586M6.52942 60.2869L7.47284 59.9553C7.47324 59.9564 7.47363 59.9575 7.47402 59.9586M35.6903 66.5806C35.928 66.4937 36.1651 66.4054 36.4017 66.3158C38.0184 65.6004 39.6203 64.821 41.2164 64.0026C41.4892 63.8514 41.7483 63.6758 41.9905 63.4778C42.1339 63.3238 42.266 63.159 42.3855 62.985L43.2099 63.551L43.5835 64.4785C43.4363 64.5378 43.2897 64.5972 43.1435 64.6566C43.12 64.6662 43.0965 64.6757 43.073 64.6853C42.6623 64.8524 42.2557 65.0198 41.8523 65.1867C41.8492 65.188 41.846 65.1893 41.8429 65.1906C41.5526 65.3107 41.264 65.4305 40.9767 65.5497C39.5595 66.138 38.1748 66.7128 36.7837 67.2404C33.3012 68.7801 29.7241 70.0381 25.9728 70.7587C25.8986 70.7814 25.8244 70.804 25.7502 70.8266C24.8887 71.0994 24.009 71.2827 23.1242 71.3775L23.2282 72.1891C23.2257 72.1894 23.2231 72.1897 23.2206 72.1901M35.6903 66.5806L35.3609 65.6364C35.3586 65.6372 35.3563 65.638 35.354 65.6388M35.6903 66.5806L35.3471 65.6413C35.3494 65.6405 35.3517 65.6396 35.354 65.6388M23.2206 72.1901C23.2181 72.1903 23.2156 72.1906 23.2132 72.1909L23.1215 71.3778C22.6703 71.426 22.2178 71.4512 21.7657 71.4536C20.6116 71.7508 19.5096 72.2358 18.5038 72.8923C18.1795 73.059 17.9052 73.3105 17.7092 73.6205C17.5131 73.9306 17.4026 74.2881 17.389 74.6559C17.3753 75.0238 17.4591 75.3886 17.6316 75.7127M23.2206 72.1901C30.0352 71.4203 36.2195 68.8133 42.1427 65.7752L42.1559 65.7685L42.1688 65.7614C42.5754 65.5374 42.9597 65.2746 43.3164 64.9766L43.3595 64.9407L43.3983 64.9001C43.6309 64.6567 43.8436 64.3948 44.0343 64.117L44.9181 62.8296M23.2206 72.1901C21.7351 72.3815 20.3102 72.9074 19.0504 73.7297L19.0071 73.758L18.961 73.7817C18.7965 73.8663 18.6557 73.9947 18.5544 74.1549C18.4531 74.3151 18.3954 74.5009 18.3883 74.693C18.3812 74.885 18.425 75.0749 18.5143 75.2428L17.6316 75.7127M17.6316 75.7127C17.8041 76.0367 18.0591 76.3082 18.3702 76.4991C19.7534 77.4108 21.2518 78.1296 22.8249 78.636M17.6316 75.7127L18.5143 75.2428C18.6037 75.4106 18.7349 75.5496 18.8931 75.6467L18.9069 75.6552L18.9205 75.6641C20.2177 76.5191 21.6218 77.1945 23.0952 77.6725M22.8249 78.636C26.3369 79.4774 29.991 79.5082 33.5163 78.7262C39.4857 77.6532 44.8938 75.4351 49.0011 70.7103C50.6739 68.9628 51.8888 66.8269 52.5436 64.4969H52.5407H52.5352H52.5297H52.5241H52.5186H52.5131H52.5076H52.5021H52.4966H52.4911H52.4856H52.4801H52.4746H52.4691H52.4636H52.4581H52.4526H52.4471H52.4417H52.4362H52.4307H52.4253H52.4198H52.4143H52.4089H52.4034H52.398H52.3925H52.3871H52.3817H52.3762H52.3708H52.3654H52.3599H52.3545H52.3491H52.3437H52.3383H52.3329H52.3274H52.322H52.3166H52.3112H52.3059H52.3005H52.2951H52.2897H52.2843H52.2789H52.2736H52.2682H52.2628H52.2575H52.2521H52.2467H52.2414H52.236H52.2307H52.2253H52.22H52.2146H52.2093H52.204H52.1986H52.1933H52.188H52.1827H52.1774H52.172H52.1667H52.1614H52.1561H52.1508H52.1455H52.1402H52.1349H52.1296H52.1243H52.119H52.1138H52.1085H52.1032H52.0979H52.0927H52.0874H52.0821H52.0769H52.0716H52.0664H52.0611H52.0559H52.0506H52.0454H52.0401H52.0349H52.0296H52.0244H52.0192H52.014H52.0087H52.0035H51.9983H51.9931H51.9879H51.9827H51.9775H51.9722H51.967H51.9618H51.9567H51.9515H51.9463H51.9411H51.9359H51.9307H51.9255H51.9204H51.9152H51.91H51.9049H51.8997H51.8945H51.8894H51.8842H51.8791H51.8739H51.8688H51.8636H51.8585H51.8533H51.8482H51.8431H51.8379H51.8328H51.8277H51.8225H51.8174H51.8123H51.8072H51.8021H51.797H51.7919H51.7868H51.7817H51.7766H51.7715H51.7664H51.7613H51.7562H51.7511H51.746H51.7409H51.7358H51.7308H51.7257H51.7206H51.7156H51.7105H51.7054H51.7004H51.6953H51.6902H51.6852H51.6801H51.6751H51.67H51.665H51.66H51.6549H51.6499H51.6449H51.6398H51.6348H51.6298H51.6247H51.6197H51.6147H51.6097H51.6047H51.5997H51.5947H51.5896H51.5846H51.5796H51.5746H51.5696H51.5646H51.5597H51.5547H51.5497H51.5447H51.5397H51.5347H51.5298H51.5248H51.5198H51.5148H51.5099H51.5049H51.5019M22.8249 78.636L23.0579 77.6636C23.0703 77.6665 23.0828 77.6695 23.0952 77.6725M22.8249 78.636L23.1314 77.6841C23.1193 77.6803 23.1073 77.6764 23.0952 77.6725M51.5019 64.4969C51.5667 64.2832 51.6264 64.0677 51.6809 63.8505C51.1906 63.9012 50.7016 63.8878 50.2306 63.8387C50.2276 63.8384 50.2246 63.8381 50.2216 63.8377C49.4935 63.7611 48.8088 63.5996 48.2299 63.4586L48.2283 63.4582C47.2019 63.2065 46.2304 62.777 45.3556 62.1924L44.9181 62.8296M51.5019 64.4969C50.8751 66.5647 49.7724 68.4584 48.2787 70.0188L48.2621 70.0361L48.2464 70.0542C44.3403 74.5475 39.1767 76.6927 33.3394 77.742L33.3195 77.7455L33.2998 77.7499C29.9351 78.4963 26.4482 78.4697 23.0952 77.6725M51.5019 64.4969H51.4999H51.495H51.49H51.4851H51.4801H51.4751H51.4702H51.4652H51.4603H51.4554H51.4504H51.4455H51.4405H51.4356H51.4307H51.4257H51.4208H51.4159H51.411H51.4061H51.4011H51.3962H51.3913H51.3864H51.3815H51.3766H51.3717H51.3668H51.3619H51.357H51.3521H51.3472H51.3423H51.3374H51.3325H51.3276H51.3227H51.3178H51.313H51.3081H51.3032H51.2983H51.2935H51.2886H51.2837H51.2789H51.274H51.2691H51.2643H51.2594H51.2546H51.2497H51.2449H51.24H51.2352H51.2303H51.2255H51.2206H51.2158H51.211H51.2061H51.2013H51.1965H51.1916H51.1868H51.182H51.1772H51.1723H51.1675H51.1627H51.1579H51.1531H51.1483H51.1434H51.1386H51.1338H51.129H51.1242H51.1194H51.1146H51.1098H51.105H51.1002H51.0955H51.0907H51.0859H51.0811H51.0763H51.0715H51.0667H51.062H51.0572H51.0524H51.0476H51.0429H51.0381H51.0333H51.0286H51.0238H51.0191H51.0143H51.0095H51.0048H51H50.9953H50.9905H50.9858H50.981H50.9763H50.9715H50.9668H50.962H50.9573H50.9526H50.9478H50.9431H50.9384H50.9336H50.9289H50.9242H50.9194H50.9147H50.91H50.9053H50.9006H50.8958H50.8911H50.8864H50.8817H50.877H50.8723H50.8676H50.8629H50.8582H50.8535H50.8488H50.8441H50.8394H50.8347H50.83H50.8253H50.8206H50.8159H50.8112H50.8065H50.8018H50.7971H50.7924H50.7878H50.7831H50.7784H50.7737H50.7691H50.7644H50.7597H50.755H50.7504H50.7457H50.741H50.7364H50.7317H50.727H50.7224H50.7177H50.7131H50.7084H50.7037H50.6991H50.6944H50.6898H50.6851H50.6805H50.6758H50.6712H50.6665H50.6619H50.6573H50.6526H50.648H50.6433H50.6387H50.6341H50.6294H50.6248H50.6202H50.6155H50.6109H50.6063H50.6017H50.597H50.5924H50.5878H50.5832H50.5785H50.5739H50.5693H50.5647H50.5601H50.5555H50.5508H50.5462H50.5416H50.537H50.5324H50.5278H50.5232H50.5186H50.514H50.5094H50.5048H50.5002H50.4956H50.491H50.4864H50.4818H50.4772H50.4726H50.468H50.4634H50.4588H50.4542H50.4496H50.4451H50.4405H50.4359H50.4313H50.4267H50.4221H50.4176H50.413H50.4084H50.4038H50.3993H50.3947H50.3901H50.3855H50.381H50.3764H50.3718H50.3672H50.3627H50.3581H50.3535H50.349H50.3444H50.3398H50.3353H50.3307H50.3262H50.3216H50.317H50.3125H50.3079H50.3034H50.2988H50.2943H50.2897H50.2852H50.2806H50.2761H50.2715H50.267H50.2624H50.2579H50.2533H50.2488H50.2442H50.2397H50.2351H50.2306H50.2174L50.2042 64.4965C48.3168 64.4467 46.4876 63.8661 44.9181 62.8296M44.9181 62.8296C44.6667 62.6636 44.4219 62.4859 44.1846 62.2967C44.1248 62.2491 44.0656 62.2008 44.007 62.1518M44.007 62.1518L44.4386 61.978L44.8359 61.818C44.7803 61.7749 44.7253 61.7312 44.6707 61.6868C44.5423 61.5825 44.4166 61.4744 44.2937 61.3629C43.1884 60.3594 42.3438 59.0984 41.8325 57.6908C41.6798 57.3711 41.5634 57.0377 41.4837 56.6969L40.6903 56.978C40.6857 56.9649 40.6811 56.9519 40.6766 56.9388M44.007 62.1518C42.3913 60.8035 41.2278 58.9824 40.6766 56.9388M44.007 62.1518L42.8363 62.6234C41.9046 62.9986 41.0173 63.3671 40.1543 63.7254C38.5124 64.4072 36.9583 65.0524 35.354 65.6388M40.6766 56.9388C40.6732 56.9262 40.6698 56.9135 40.6664 56.9009L41.4808 56.6845C41.353 56.1313 41.3221 55.5588 41.3903 54.9933C41.4025 54.7394 41.4372 54.4859 41.4945 54.2361C41.6778 53.4366 42.0846 52.7074 42.6664 52.1357C43.2728 51.5926 43.7595 50.9332 44.1014 50.2007C44.1151 49.8397 44.1698 49.4813 44.2647 49.1327C44.2758 49.0378 44.2903 48.9434 44.3081 48.8499C44.3088 48.8461 44.3095 48.8424 44.3102 48.8387C44.4382 48.1758 44.7317 47.5536 45.1667 47.0329C45.6866 46.4104 46.384 45.9624 47.166 45.7514C47.9481 45.5403 48.7755 45.5769 49.5361 45.856C50.203 46.1007 50.7893 46.5211 51.2364 47.0696C51.2366 47.0698 51.2368 47.07 51.2369 47.0702C51.2763 47.1185 51.3145 47.1677 51.3516 47.218C52.0241 47.8619 52.5532 48.6426 52.9043 49.5082C52.9057 49.5116 52.9071 49.5151 52.9085 49.5186C53.2726 50.4204 53.4348 51.3922 53.3837 52.3643C53.3825 52.3876 53.3811 52.4108 53.3796 52.4341L54.2598 52.44C54.2598 52.4431 54.2598 52.4462 54.2597 52.4493M40.6766 56.9388C40.3517 55.9981 40.2972 54.9835 40.5198 54.0126C40.7455 53.0282 41.2468 52.1288 41.9655 51.4225L41.982 51.4062L41.9993 51.3908C42.7889 50.6835 43.3364 49.7378 43.5593 48.6905L43.5644 48.6667L43.5706 48.6433C44.0904 46.6759 45.3632 45.3038 47.0154 44.8742C48.6612 44.4462 50.446 45.0152 51.8709 46.4311L51.8763 46.4363C52.6579 47.2248 53.2719 48.1655 53.6815 49.2008C54.0898 50.2332 54.2865 51.3383 54.2597 52.4493M54.2597 52.4493C54.2597 52.4523 54.2596 52.4554 54.2595 52.4584L53.3795 52.4363C53.3195 53.3833 53.0582 54.3068 52.6128 55.1437C52.4118 55.5213 52.1754 55.8773 51.9075 56.2069C51.5723 56.6195 51.1876 56.991 50.7612 57.3121L48.9982 58.7752L48.3596 58.0056L48.2354 57.0134C48.8734 56.9335 49.483 56.7191 50.0271 56.389C50.0297 56.3874 50.0323 56.3858 50.035 56.3842C50.4274 56.1451 50.7857 55.8456 51.0957 55.4931C51.3241 55.2334 51.5214 54.9505 51.6854 54.6501C52.0542 53.9746 52.2546 53.2109 52.2599 52.4266L52.2599 52.4173L52.2602 52.4081C52.261 52.3739 52.2616 52.3396 52.2619 52.3054C52.269 51.5008 52.1219 50.7023 51.8288 49.9545C51.8264 49.9485 51.8241 49.9425 51.8217 49.9365C51.5269 49.1912 51.0928 48.5119 50.5443 47.9354C50.5405 47.9315 50.5368 47.9275 50.533 47.9236C50.5083 47.8978 50.4834 47.8722 50.4583 47.8468C50.0203 47.4123 49.5716 47.1202 49.1364 46.9451C48.5538 46.7107 47.9953 46.6859 47.5188 46.8098C47.4979 46.8152 47.4771 46.821 47.4563 46.827C46.9703 46.9687 46.4918 47.2881 46.1092 47.8201M54.2597 52.4493C54.2467 54.0579 53.6572 55.6089 52.5976 56.8138C51.5358 58.0213 50.074 58.7988 48.4838 58.9979L45.1675 59.4131M46.1092 47.8201C45.8611 48.165 45.6533 48.5994 45.51 49.1326C45.4948 49.2027 45.4785 49.2725 45.4612 49.342C45.458 49.3552 45.4546 49.3684 45.4513 49.3816C45.3712 49.6956 45.27 50.0026 45.1486 50.3005L46.0942 50.2103C46.0963 50.2327 46.0982 50.2552 46.0999 50.2776M46.1092 47.8201L46.7017 48.315C46.96 48.0057 47.3043 47.7856 47.6871 47.6823C48.0698 47.579 48.4744 47.5968 48.8471 47.7336C49.22 47.8704 49.5445 48.1203 49.7756 48.4518L49.837 48.5399L49.9158 48.6129C50.4104 49.0718 50.7994 49.6366 51.054 50.2672C51.3086 50.8979 51.4222 51.5783 51.3864 52.2594C51.3506 52.9405 51.1663 53.6046 50.8473 54.204C50.5283 54.8033 50.0826 55.3228 49.5432 55.7256L49.5226 55.741L49.5029 55.7574L47.721 57.2361L45.1375 59.3801M46.1092 47.8201L46.7017 48.315C46.4432 48.6244 46.2835 49.0081 46.2459 49.4146L46.237 49.5112L46.2096 49.6044C46.1453 49.8232 46.1085 50.0494 46.0999 50.2776M46.0999 50.2776C46.0993 50.2936 46.0988 50.3095 46.0985 50.3255L45.1463 50.3063C45.1331 50.3387 45.1196 50.3711 45.1058 50.4033C45.1235 50.7576 45.0542 51.1113 44.9034 51.4326C44.7386 51.7836 44.4828 52.0827 44.1632 52.298C43.3541 52.8042 42.7612 53.5981 42.5007 54.524C42.4494 54.7063 42.4118 54.8912 42.3876 55.0771C42.3719 55.4948 42.435 55.9135 42.5755 56.3102L42.589 56.3483L42.5994 56.3873C42.6767 56.6785 42.7694 56.9639 42.8767 57.2426C42.8786 57.2475 42.8805 57.2523 42.8823 57.2571C43.3597 58.4901 44.1234 59.5904 45.1104 60.4633C45.2148 60.5557 45.3218 60.6455 45.4311 60.7327C46.348 61.4635 47.4028 61.9816 48.5216 62.2607L48.7031 61.5154C48.7037 61.5155 48.7042 61.5156 48.7047 61.5158M46.0999 50.2776C46.14 50.8201 46.04 51.3646 45.8086 51.8576C45.5675 52.3711 45.1924 52.8104 44.722 53.1273L44.708 53.1368L44.6936 53.1458C44.0971 53.5189 43.6571 54.1062 43.4634 54.7948C43.2696 55.4835 43.3374 56.2206 43.6526 56.8605L43.6781 56.9122L43.6975 56.9666C44.0167 57.8623 44.5071 58.6819 45.1375 59.3801M48.7047 61.5158L48.522 62.2608C49.0831 62.4007 49.6603 62.4805 50.2442 62.4969H50.2488H50.2533H50.2579H50.2624H50.267H50.2715H50.2761H50.2806H50.2852H50.2897H50.2943H50.2988H50.3034H50.3079H50.3125H50.317H50.3216H50.3262H50.3307H50.3353H50.3398H50.3444H50.349H50.3535H50.3581H50.3627H50.3672H50.3718H50.3764H50.381H50.3855H50.3901H50.3947H50.3993H50.4038H50.4084H50.413H50.4176H50.4221H50.4267H50.4313H50.4359H50.4405H50.4451H50.4496H50.4542H50.4588H50.4634H50.468H50.4726H50.4772H50.4818H50.4864H50.491H50.4956H50.5002H50.5048H50.5094H50.514H50.5186H50.5232H50.5278H50.5324H50.537H50.5416H50.5462H50.5508H50.5555H50.5601H50.5647H50.5693H50.5739H50.5785H50.5832H50.5878H50.5924H50.597H50.6017H50.6063H50.6109H50.6155H50.6202H50.6248H50.6294H50.6341H50.6387H50.6433H50.648H50.6526H50.6573H50.6619H50.6665H50.6712H50.6758H50.6805H50.6851H50.6898H50.6944H50.6991H50.7037H50.7084H50.7131H50.7177H50.7224H50.727H50.7317H50.7364H50.741H50.7457H50.7504H50.755H50.7597H50.7644H50.7691H50.7737H50.7784H50.7831H50.7878H50.7924H50.7971H50.8018H50.8065H50.8112H50.8159H50.8206H50.8253H50.83H50.8347H50.8394H50.8441H50.8488H50.8535H50.8582H50.8629H50.8676H50.8723H50.877H50.8817H50.8864H50.8911H50.8958H50.9006H50.9053H50.91H50.9147H50.9194H50.9242H50.9289H50.9336H50.9384H50.9431H50.9478H50.9526H50.9573H50.962H50.9668H50.9715H50.9763H50.981H50.9858H50.9905H50.9953H51H51.0048H51.0095H51.0143H51.0191H51.0238H51.0286H51.0333H51.0381H51.0429H51.0476H51.0524H51.0572H51.062H51.0667H51.0715H51.0763H51.0811H51.0859H51.0907H51.0955H51.1002H51.105H51.1098H51.1146H51.1194H51.1242H51.129H51.1338H51.1386H51.1434H51.1483H51.1531H51.1579H51.1627H51.1675H51.1723H51.1772H51.182H51.1868H51.1916H51.1965H51.2013H51.2061H51.211H51.2158H51.2206H51.2255H51.2303H51.2352H51.24H51.2449H51.2497H51.2546H51.2594H51.2643H51.2691H51.274H51.2789H51.2837H51.2886H51.2935H51.2983H51.3032H51.3081H51.313H51.3178H51.3227H51.3276H51.3325H51.3374H51.3423H51.3472H51.3521H51.357H51.3619H51.3668H51.3717H51.3766H51.3815H51.3864H51.3913H51.3962H51.4011H51.4061H51.411H51.4159H51.4208H51.4257H51.4307H51.4356H51.4405H51.4455H51.4504H51.4554H51.4603H51.4652H51.4702H51.4751H51.4801H51.4851H51.49H51.495H51.4999H51.5049H51.5099H51.5148H51.5198H51.5248H51.5298H51.5347H51.5397H51.5447H51.5497H51.5547H51.5597H51.5646H51.5696H51.5746H51.5796H51.5846H51.5896H51.5947H51.5997H51.6047H51.6097H51.6147H51.6197H51.6247H51.6298H51.6348H51.6398H51.6449H51.6499H51.6549H51.66H51.665H51.67H51.6751H51.6801H51.6852H51.6902H51.6953H51.7004H51.7054H51.7105H51.7156H51.7206H51.7257H51.7308H51.7358H51.7409H51.746H51.7511H51.7562H51.7613H51.7664H51.7715H51.7766H51.7817H51.7868H51.7919H51.797H51.8021H51.8072H51.8123H51.8174H51.8225H51.8277H51.8328H51.8379H51.8431H51.8482H51.8533H51.8585H51.8636H51.8688H51.8739H51.8791H51.8842H51.8894H51.8945H51.8997H51.9049H51.91H51.9152H51.9204H51.9255H51.9307H51.9359H51.9411H51.9463H51.9515H51.9567H51.9618H51.967H51.9722H51.9775H51.9827H51.9879H51.9931H51.9983H52.0035H52.0087H52.014H52.0192H52.0244H52.0296H52.0349H52.0401H52.0454H52.0506H52.0559H52.0611H52.0664H52.0716H52.0769H52.0821H52.0874H52.0927H52.0979H52.1032H52.1085H52.1138H52.119H52.1243H52.1296H52.1349H52.1402H52.1455H52.1508H52.1561H52.1614H52.1667H52.172H52.1774H52.1827H52.188H52.1933H52.1986H52.204H52.2093H52.2146H52.22H52.2253H52.2307H52.236H52.2414H52.2467H52.2521H52.2575H52.2628H52.2682H52.2736H52.2789H52.2843H52.2897H52.2951H52.3005H52.3059H52.3112H52.3166H52.322H52.3274H52.3329H52.3383H52.3437H52.3491H52.3545H52.3599H52.3654H52.3708H52.3762H52.3817H52.3871H52.3925H52.398H52.4034H52.4089H52.4143H52.4198H52.4253H52.4307H52.4362H52.4417H52.4471H52.4526H52.4581H52.4636H52.4691H52.4746H52.4801H52.4856H52.4911H52.4966H52.5021H52.5076H52.5131H52.5186H52.5241H52.5297H52.5352H52.5407H52.5463H52.5518H52.5574H52.5629H52.5684H52.574H52.5796H52.5851H52.5907H52.5962H52.6018H52.6074H52.613H52.6185H52.6241H52.6297H52.6353H52.6409H52.6465H52.6521H52.6577H52.6633H52.6689H52.6745H52.6802H52.6858H52.6914H52.697H52.7027H52.7083H52.714H52.7196H52.7253H52.7309H52.7366H52.7422H52.7479H52.7536H52.7592H52.7649H52.7706H52.7763H52.7819H52.7876H52.8758C53.0879 62.3928 53.2937 62.2645 53.4915 62.1083M48.7047 61.5158C50.4411 61.9385 51.8408 62.1341 52.8672 61.327M48.7047 61.5158C47.5659 61.2365 46.5121 60.6756 45.6381 59.8821C45.4738 59.7329 45.3168 59.5764 45.1675 59.4131M53.4915 62.1083L52.8716 61.3235C52.8702 61.3247 52.8687 61.3259 52.8672 61.327M53.4915 62.1083L52.8622 61.3311C52.8639 61.3297 52.8656 61.3284 52.8672 61.327M52.8672 61.327L34.9686 62.1624L34.781 63.1446C34.6736 63.1241 34.5683 63.1037 34.4646 63.0835C34.4423 63.0792 34.42 63.0749 34.3979 63.0706C34.3938 63.0698 34.3898 63.069 34.3858 63.0682C34.0432 63.0018 33.7163 62.9394 33.3859 62.8898L33.3828 62.8894C28.2655 62.1056 23.0678 61.2542 17.9936 59.7005M45.1675 59.4131L45.0853 59.4234L45.1375 59.3801M45.1675 59.4131C45.1575 59.4022 45.1475 59.3911 45.1375 59.3801M35.354 65.6388C31.9905 66.8121 28.5875 67.8705 25.1616 68.9152L25.1616 68.9151L25.1509 68.9185C22.2609 69.835 19.1309 69.5673 16.4329 68.172L16.4242 68.1675L16.4154 68.1631C13.4227 66.689 10.7484 65.0897 8.85793 62.5248L8.85358 62.5189L8.84915 62.5131C8.26175 61.7401 7.79762 60.8782 7.47402 59.9586M7.47402 59.9586C7.2993 59.4486 7.39711 59.1946 7.46381 59.0992C7.52752 59.008 7.72134 58.8347 8.24731 58.8343M17.9936 59.7005L17.996 59.6918L17.9936 59.7005Z" stroke="white" stroke-width="2"/>
<path d="M58.1176 40.6193L59.0738 43.725L60.0292 40.619C63.0145 30.9132 71.7096 23.7859 81.9232 23.7859C94.6 23.7859 104.925 34.1794 104.925 47.4527C104.925 54.0753 102.345 58.7326 98.015 63.8998L59.0951 104.554L20.1304 63.8997C15.8059 58.7345 13.2266 54.0375 13.2266 47.4079C13.2266 34.1454 23.5257 24.0455 36.2209 24.0455C46.4508 24.0455 55.1349 30.9311 58.1176 40.6193Z" fill="#FFC06D" stroke="white" stroke-width="2"/>
<path d="M44.1308 55.5582C44.1083 56.1004 43.995 56.6012 43.7909 57.0607C43.5959 57.5064 43.327 57.9074 42.9844 58.2636C42.6532 58.6175 42.2572 58.9128 41.7965 59.1496C41.3472 59.3841 40.8558 59.5554 40.3224 59.6636C38.8585 59.9604 37.6145 59.6692 36.5905 58.7897C35.5779 57.908 34.8623 56.4105 34.4439 54.2973C34.2893 53.5163 34.1993 52.7043 34.174 51.8613C34.1487 51.0182 34.2404 50.2291 34.4489 49.4939C34.6575 48.7588 35.0034 48.1212 35.4867 47.5812C35.9813 47.0389 36.6655 46.6791 37.5393 46.5019C37.9592 46.4167 38.3791 46.3913 38.7991 46.4256C39.2167 46.4484 39.5958 46.5448 39.9363 46.7146C40.286 46.8707 40.5857 47.1026 40.8354 47.4103C41.0852 47.718 41.2556 48.1016 41.3466 48.561C41.4148 48.9055 41.4024 49.2007 41.3095 49.4466C41.2278 49.6901 41.0111 49.8475 40.6593 49.9189C40.5231 49.9465 40.354 49.9569 40.152 49.9501C39.9591 49.9295 39.7412 49.8423 39.4982 49.6885C39.6276 49.5667 39.7137 49.376 39.7568 49.1164C39.7975 48.8453 39.794 48.5891 39.7463 48.348C39.6735 47.9804 39.502 47.6807 39.2318 47.4488C38.9594 47.2054 38.6416 47.1206 38.2784 47.1942C37.8926 47.2724 37.5908 47.5069 37.373 47.8975C37.1553 48.2881 37.0045 48.7786 36.9207 49.369C36.846 49.9456 36.8327 50.5934 36.8806 51.3124C36.9262 52.0199 37.0207 52.7354 37.164 53.459C37.3527 54.4122 37.5845 55.1955 37.8594 55.8087C38.1456 56.4196 38.4579 56.8939 38.7962 57.2314C39.1345 57.569 39.4955 57.7825 39.8792 57.8719C40.2741 57.9591 40.6759 57.9612 41.0844 57.8784C41.7313 57.7472 42.2782 57.469 42.7252 57.0439C43.1813 56.605 43.4966 56.0811 43.6711 55.4723L44.1308 55.5582Z" fill="white"/>
<path d="M49.5398 48.548L50.6995 54.4053C50.795 54.8877 50.9211 55.1966 51.0778 55.3321C51.2435 55.4538 51.491 55.4812 51.8201 55.4145C52.1492 55.3477 52.3931 55.1489 52.5519 54.8181C52.722 54.4849 52.7808 54.0967 52.7285 53.6534L53.4434 53.5084C53.4914 54.2274 53.4439 54.8224 53.3011 55.2933C53.156 55.7528 52.9643 56.1262 52.7261 56.4134C52.4856 56.6892 52.2246 56.8914 51.9432 57.0202C51.6618 57.1489 51.4076 57.2363 51.1807 57.2823C50.5792 57.4043 50.0923 57.3597 49.72 57.1485C49.3567 56.9235 49.0638 56.5767 48.8412 56.1082C48.789 56.3219 48.7199 56.539 48.6337 56.7595C48.5453 56.9686 48.4251 57.1662 48.273 57.3523C48.1324 57.5361 47.952 57.6982 47.7319 57.8384C47.5231 57.9763 47.2655 58.0763 46.9591 58.1384C46.596 58.2121 46.2248 58.2157 45.8458 58.1492C45.4667 58.0827 45.0989 57.9244 44.7425 57.6741C44.3973 57.4215 44.084 57.061 43.8023 56.5925C43.5298 56.1102 43.3196 55.4958 43.1718 54.7493C43.0672 54.221 43.0159 53.6639 43.018 53.0781C43.0314 52.4901 43.1163 51.9353 43.2727 51.4138C43.4405 50.8899 43.6991 50.4373 44.0485 50.0558C44.407 49.6606 44.8813 49.4031 45.4714 49.2835C45.6076 49.2558 45.7574 49.2374 45.9208 49.2282C46.0819 49.2074 46.2431 49.2165 46.4043 49.2555C46.5632 49.283 46.7175 49.3473 46.8674 49.4483C47.015 49.5379 47.1433 49.6791 47.2523 49.872L47.0885 49.0451L49.5398 48.548ZM47.416 50.6989C47.3956 50.6553 47.3615 50.6025 47.3138 50.5405C47.2638 50.467 47.198 50.4027 47.1163 50.3476C47.0323 50.281 46.9346 50.2351 46.8234 50.2099C46.7099 50.1731 46.5851 50.1686 46.4489 50.1962C46.1765 50.2514 45.9621 50.4204 45.8056 50.703C45.6581 50.9718 45.5572 51.2969 45.5029 51.6782C45.4576 52.0458 45.4487 52.4478 45.4761 52.8843C45.5012 53.3092 45.5513 53.7112 45.6264 54.0902C45.7469 54.6989 45.8867 55.1663 46.0457 55.4925C46.2024 55.8071 46.3591 56.0322 46.5158 56.1677C46.6815 56.2893 46.8416 56.3524 46.9959 56.357C47.148 56.35 47.2751 56.3362 47.3772 56.3155C47.502 56.2902 47.6212 56.2361 47.7347 56.1534C47.8572 56.0569 47.957 55.9351 48.0341 55.788C48.1226 55.6387 48.1827 55.4652 48.2144 55.2677C48.2438 55.0586 48.2335 54.8278 48.1835 54.5751L47.416 50.6989Z" fill="white"/>
<path d="M56.5027 50.6839C56.3662 49.9948 56.1901 49.5228 55.9744 49.2679C55.7678 48.9992 55.5226 48.8936 55.2389 48.9512C55.0687 48.9857 54.9302 49.0616 54.8236 49.1787C54.7283 49.2936 54.6557 49.4338 54.6058 49.5992C54.556 49.7646 54.5277 49.9496 54.5209 50.154C54.5119 50.347 54.5211 50.5422 54.5484 50.7398L55.6433 56.2698L53.1921 56.7669L51.4866 48.1532L53.9378 47.6561L54.1152 48.5519C54.2966 48.097 54.5405 47.7787 54.8468 47.5971C55.1509 47.4041 55.4505 47.2776 55.7456 47.2178C56.0633 47.1533 56.3743 47.144 56.6784 47.1899C56.994 47.2334 57.2845 47.3596 57.5502 47.5686C57.8249 47.7637 58.0656 48.0554 58.2723 48.4435C58.4767 48.8202 58.6381 49.3071 58.7563 49.9043C58.7859 50.0536 58.8177 50.2443 58.8519 50.4763C58.8951 50.6945 58.9337 50.9196 58.9679 51.1516C59.002 51.3836 59.035 51.6099 59.0669 51.8304C59.1101 52.0486 59.1465 52.2323 59.176 52.3816C59.2738 52.8755 59.3988 53.2384 59.5509 53.4704C59.7008 53.6908 59.9517 53.7654 60.3035 53.694C60.6893 53.6158 60.9276 53.4182 61.0182 53.1011C61.1203 52.7818 61.1735 52.3947 61.1778 51.9398L61.8928 51.7949C61.9384 52.5024 61.9125 53.087 61.8151 53.5488C61.7154 53.999 61.5748 54.362 61.3933 54.6378C61.2096 54.902 60.9951 55.1008 60.75 55.2341C60.5027 55.356 60.2542 55.4422 60.0045 55.4928C59.1307 55.67 58.4372 55.5061 57.924 55.0009C57.4222 54.4934 57.0747 53.7515 56.8814 52.7753C56.8609 52.672 56.8325 52.5284 56.7961 52.3446C56.7688 52.1471 56.7347 51.945 56.6937 51.7382C56.6528 51.5315 56.6141 51.3363 56.5778 51.1525C56.5504 50.955 56.5254 50.7988 56.5027 50.6839Z" fill="white"/>
<path d="M66.4119 41.5425L68.2539 50.8453C68.3494 51.3277 68.4755 51.6366 68.6321 51.772C68.7979 51.8937 69.0453 51.9212 69.3744 51.8545C69.7035 51.7877 69.9474 51.5889 70.1062 51.2581C70.2763 50.9249 70.3352 50.5367 70.2828 50.0933L70.9978 49.9484C71.0457 50.6674 70.9982 51.2623 70.8554 51.7333C70.7103 52.1928 70.5187 52.5662 70.2804 52.8534C70.0399 53.1291 69.779 53.3314 69.4976 53.4601C69.2162 53.5889 68.962 53.6763 68.735 53.7223C68.1335 53.8443 67.6466 53.7997 67.2743 53.5885C66.9111 53.3635 66.6181 53.0167 66.3955 52.5482C66.3434 52.7618 66.2742 52.9789 66.1881 53.1995C66.0996 53.4086 65.9794 53.6062 65.8274 53.7923C65.6867 53.9761 65.5063 54.1381 65.2862 54.2784C65.0774 54.4163 64.8199 54.5163 64.5134 54.5784C64.1503 54.6521 63.7792 54.6557 63.4001 54.5892C63.021 54.5227 62.6532 54.3643 62.2968 54.1141C61.9517 53.8615 61.6383 53.501 61.3567 53.0325C61.0841 52.5502 60.874 51.9358 60.7261 51.1892C60.6215 50.6609 60.5703 50.1039 60.5723 49.5181C60.5857 48.93 60.6706 48.3752 60.8271 47.8537C60.9948 47.3299 61.2534 46.8773 61.6028 46.4958C61.9613 46.1006 62.4356 45.8431 63.0257 45.7234C63.1619 45.6958 63.3117 45.6774 63.4751 45.6681C63.6363 45.6474 63.7974 45.6565 63.9586 45.6955C64.1175 45.723 64.2719 45.7873 64.4217 45.8883C64.5693 45.9778 64.6976 46.1191 64.8066 46.312L64.0289 42.3841L66.4119 41.5425ZM64.9704 47.1389C64.9499 47.0953 64.9158 47.0424 64.8682 46.9804C64.8182 46.9069 64.7523 46.8427 64.6706 46.7876C64.5866 46.721 64.489 46.6751 64.3778 46.6498C64.2642 46.6131 64.1394 46.6086 64.0032 46.6362C63.7309 46.6914 63.5164 46.8603 63.3599 47.143C63.2125 47.4118 63.1116 47.7369 63.0573 48.1182C63.012 48.4858 63.0031 48.8878 63.0305 49.3242C63.0556 49.7492 63.1057 50.1512 63.1807 50.5302C63.3012 51.1389 63.441 51.6063 63.6 51.9324C63.7567 52.2471 63.9134 52.4722 64.0701 52.6076C64.2359 52.7293 64.3959 52.7924 64.5502 52.797C64.7023 52.79 64.8294 52.7762 64.9316 52.7555C65.0564 52.7302 65.1755 52.6761 65.289 52.5934C65.4115 52.4969 65.5114 52.3751 65.5885 52.228C65.677 52.0787 65.737 51.9052 65.7687 51.7077C65.7982 51.4986 65.7879 51.2677 65.7378 51.0151L64.9704 47.1389Z" fill="white"/>
<path d="M75.6967 43.2434L77.6751 53.2353C77.7956 53.844 77.8196 54.3528 77.7472 54.7617C77.6769 55.1821 77.5431 55.5198 77.3458 55.7749C77.162 56.0391 76.9351 56.2345 76.665 56.3609C76.4086 56.4966 76.1499 56.5908 75.8889 56.6438C75.5598 56.7105 75.2386 56.7279 74.9253 56.6958C74.6234 56.6615 74.3476 56.58 74.0979 56.4515C73.8618 56.3321 73.6575 56.1645 73.4849 55.9486C73.3123 55.7328 73.1964 55.4755 73.1373 55.1769C73.0759 54.8668 73.0826 54.5728 73.1574 54.2948C73.2458 54.026 73.3797 53.7779 73.5589 53.5504C73.7381 53.3229 73.9503 53.1126 74.1953 52.9196C74.4427 52.738 74.6991 52.5725 74.9646 52.4231L74.777 51.4756C74.6727 51.7237 74.5479 51.9282 74.4027 52.0891C74.2689 52.2476 74.1236 52.3786 73.9671 52.482C73.8218 52.5832 73.6664 52.6625 73.5007 52.72C73.3464 52.7752 73.1954 52.8177 73.0479 52.8476C72.2422 53.011 71.61 52.8884 71.1513 52.4797C70.704 52.0686 70.3997 51.4554 70.2382 50.64L69.0409 44.5932L71.4921 44.096L72.6519 49.9534C72.7383 50.3898 72.8565 50.6884 73.0063 50.8491C73.1653 50.9961 73.3582 51.0465 73.5852 51.0005C73.8916 50.9384 74.1072 50.7453 74.2319 50.4214C74.3566 50.0974 74.3928 49.7138 74.3404 49.2705L73.2455 43.7405L75.6967 43.2434ZM74.0088 54.8389C74.0543 55.0686 74.1644 55.2374 74.3392 55.3453C74.5254 55.4509 74.6979 55.4876 74.8568 55.4554C75.0611 55.414 75.2006 55.2542 75.2754 54.9763C75.3502 54.6983 75.3364 54.3009 75.2341 53.7841L75.1352 53.2845C74.7812 53.5235 74.4885 53.774 74.257 54.036C74.037 54.2956 73.9542 54.5633 74.0088 54.8389Z" fill="white"/>
<path d="M42.2721 73.3168L44.7744 72.8093L43.7579 67.6756L46.2091 67.1784L48.7606 80.0646L46.3094 80.5617L45.0268 74.0842L42.5245 74.5916L43.8071 81.0691L41.3559 81.5662L39.0432 69.886C38.5508 70.2607 38.2059 70.7248 38.0086 71.2785C37.8091 71.8207 37.7775 72.4364 37.914 73.1255C37.9868 73.493 38.0686 73.787 38.1595 74.0075C38.2594 74.2142 38.3525 74.3864 38.4388 74.5242C38.5365 74.6597 38.6273 74.7608 38.7113 74.8274C38.7953 74.894 38.8612 74.9582 38.9089 75.0202C38.228 75.1583 37.6582 75.1126 37.1996 74.8831C36.7388 74.642 36.4333 74.1425 36.2832 73.3845C36.1741 72.8332 36.2136 72.2876 36.4018 71.7477C36.5877 71.1964 36.8769 70.6897 37.2694 70.2278C37.671 69.7522 38.1509 69.3443 38.7092 69.0041C39.2788 68.6616 39.887 68.4247 40.5339 68.2936C40.6587 68.2682 40.779 68.2498 40.8947 68.2383C41.0196 68.213 41.1399 68.1946 41.2556 68.183L42.2721 73.3168Z" fill="white"/>
<path d="M53.9645 77.6115C54.3049 77.5425 54.5965 77.4355 54.8394 77.2907C55.0822 77.1459 55.2909 76.9781 55.4656 76.7874C55.6381 76.5852 55.7889 76.3635 55.9182 76.1222C56.0452 75.8695 56.1643 75.6064 56.2754 75.333L56.8542 75.2156C56.7749 75.6498 56.6593 76.0794 56.5074 76.5045C56.3668 76.9272 56.1615 77.3212 55.8916 77.6866C55.6329 78.0496 55.3062 78.3668 54.9113 78.638C54.5165 78.9092 54.0297 79.1035 53.4509 79.2209C52.963 79.3198 52.4999 79.3361 52.0618 79.2696C51.6237 79.2032 51.2208 79.046 50.853 78.798C50.4942 78.5363 50.1809 78.1757 49.9129 77.7164C49.6539 77.2433 49.4551 76.6564 49.3164 75.9559C49.2186 75.462 49.1651 74.9234 49.1558 74.3399C49.1556 73.7426 49.2439 73.1752 49.4207 72.6376C49.5976 72.1 49.8868 71.6232 50.2884 71.2073C50.69 70.7913 51.2483 70.5109 51.9632 70.3659C52.5079 70.2554 52.9449 70.2564 53.274 70.3688C53.6032 70.4813 53.8586 70.6385 54.0403 70.8406C54.2333 71.0404 54.3627 71.2471 54.4286 71.4607C54.5059 71.672 54.5536 71.8236 54.5718 71.9155C54.6741 72.4323 54.6675 72.9055 54.5519 73.3351C54.4476 73.7624 54.2639 74.1461 54.0008 74.4862C53.7467 74.8125 53.4301 75.0917 53.0511 75.3239C52.6812 75.5423 52.2886 75.7055 51.8733 75.8136C52.037 76.5808 52.271 77.1068 52.5752 77.3915C52.8886 77.6625 53.3517 77.7358 53.9645 77.6115ZM53.2645 72.1985C53.1849 71.7966 53.0611 71.529 52.8931 71.3958C52.7228 71.2512 52.5582 71.1949 52.3993 71.2272C52.2064 71.2663 52.0499 71.3996 51.9296 71.627C51.8071 71.843 51.7153 72.1245 51.6542 72.4713C51.6021 72.8045 51.5784 73.1915 51.5831 73.6326C51.5991 74.0713 51.6413 74.5227 51.7096 74.9867C51.9887 74.9062 52.2406 74.7775 52.4653 74.6005C52.6876 74.4121 52.8691 74.1961 53.0098 73.9525C53.1482 73.6975 53.2411 73.4218 53.2887 73.1254C53.3362 72.8291 53.3282 72.5201 53.2645 72.1985Z" fill="white"/>
<path d="M62.1901 68.3815L63.3499 74.2388C63.4454 74.7211 63.5715 75.0301 63.7281 75.1655C63.8939 75.2872 64.1413 75.3147 64.4704 75.248C64.7995 75.1812 65.0434 74.9824 65.2022 74.6516C65.3723 74.3184 65.4312 73.9302 65.3788 73.4868L66.0938 73.3419C66.1417 74.0608 66.0942 74.6558 65.9514 75.1268C65.8063 75.5863 65.6147 75.9597 65.3764 76.2469C65.1359 76.5226 64.875 76.7249 64.5936 76.8536C64.3122 76.9824 64.058 77.0698 63.831 77.1158C63.2295 77.2378 62.7427 77.1932 62.3703 76.982C62.0071 76.757 61.7141 76.4102 61.4915 75.9417C61.4394 76.1553 61.3702 76.3724 61.2841 76.593C61.1956 76.8021 61.0754 76.9997 60.9234 77.1858C60.7827 77.3696 60.6023 77.5316 60.3822 77.6719C60.1734 77.8098 59.9159 77.9098 59.6094 77.9719C59.2463 78.0456 58.8752 78.0492 58.4961 77.9827C58.117 77.9162 57.7493 77.7578 57.3928 77.5076C57.0477 77.255 56.7343 76.8945 56.4527 76.426C56.1801 75.9437 55.97 75.3293 55.8221 74.5827C55.7175 74.0544 55.6663 73.4974 55.6683 72.9116C55.6817 72.3235 55.7666 71.7687 55.9231 71.2472C56.0908 70.7234 56.3494 70.2708 56.6988 69.8893C57.0573 69.4941 57.5316 69.2366 58.1217 69.1169C58.2579 69.0893 58.4077 69.0709 58.5711 69.0616C58.7323 69.0409 58.8934 69.05 59.0546 69.089C59.2135 69.1165 59.3679 69.1808 59.5177 69.2818C59.6653 69.3713 59.7936 69.5126 59.9026 69.7055L59.7389 68.8786L62.1901 68.3815ZM60.0664 70.5324C60.0459 70.4888 60.0118 70.4359 59.9642 70.3739C59.9142 70.3004 59.8483 70.2361 59.7666 70.181C59.6826 70.1145 59.585 70.0686 59.4738 70.0433C59.3602 70.0066 59.2354 70.0021 59.0992 70.0297C58.8269 70.0849 58.6124 70.2538 58.4559 70.5365C58.3085 70.8053 58.2076 71.1304 58.1533 71.5117C58.108 71.8793 58.0991 72.2813 58.1265 72.7177C58.1516 73.1427 58.2017 73.5447 58.2767 73.9237C58.3972 74.5324 58.537 74.9998 58.696 75.3259C58.8527 75.6406 59.0094 75.8657 59.1661 76.0011C59.3319 76.1228 59.4919 76.1859 59.6462 76.1905C59.7983 76.1835 59.9254 76.1697 60.0276 76.149C60.1524 76.1237 60.2715 76.0696 60.385 75.9869C60.5075 75.8904 60.6074 75.7686 60.6845 75.6215C60.773 75.4722 60.833 75.2987 60.8647 75.1012C60.8942 74.8921 60.8839 74.6612 60.8338 74.4086L60.0664 70.5324Z" fill="white"/>
<path d="M68.5286 66.7376C69.1073 66.6203 69.5784 66.8234 69.9418 67.347C70.3165 67.8683 70.6039 68.6343 70.804 69.645C70.9336 70.2996 71.0099 70.983 71.0329 71.6951C71.0558 72.4072 70.9868 73.0723 70.8259 73.6903C70.665 74.3083 70.3939 74.8471 70.0128 75.3066C69.6407 75.7524 69.1199 76.0432 68.4503 76.179C67.6332 76.3447 66.9466 76.2152 66.3903 75.7904C65.8341 75.3656 65.4695 74.7168 65.2967 73.844L64.1369 67.9867L66.5882 67.4895L67.7479 73.3469C67.8298 73.7603 67.9468 74.0532 68.0989 74.2254C68.2488 74.3861 68.4542 74.44 68.7152 74.3871C69.0443 74.3204 69.3019 74.1308 69.4879 73.8183C69.6739 73.5058 69.7997 73.1279 69.8654 72.6845C69.9424 72.2388 69.9649 71.7564 69.933 71.2372C69.9124 70.7158 69.8543 70.2139 69.7588 69.7315C69.6542 69.2032 69.511 68.7186 69.3292 68.2776C69.3179 68.3396 69.2533 68.4005 69.1352 68.4603C69.015 68.5086 68.9208 68.5396 68.8527 68.5534C68.7279 68.5787 68.6076 68.5673 68.4918 68.5191C68.3873 68.4686 68.2852 68.3997 68.1853 68.3125C68.0944 68.2114 68.0138 68.1023 67.9434 67.9852C67.8844 67.8658 67.8435 67.7486 67.8207 67.6338C67.7798 67.4271 67.8138 67.241 67.9226 67.0756C68.0429 66.9078 68.2449 66.7952 68.5286 66.7376Z" fill="white"/>
<path d="M76.5058 73.0401C76.8463 72.9711 77.1379 72.8642 77.3807 72.7193C77.6235 72.5745 77.8323 72.4068 78.007 72.216C78.1795 72.0138 78.3303 71.7921 78.4596 71.5508C78.5866 71.2981 78.7057 71.035 78.8168 70.7616L79.3956 70.6442C79.3163 71.0784 79.2007 71.5081 79.0488 71.9331C78.9082 72.3558 78.7029 72.7499 78.4329 73.1152C78.1743 73.4783 77.8476 73.7954 77.4527 74.0666C77.0579 74.3378 76.5711 74.5321 75.9923 74.6495C75.5043 74.7484 75.0413 74.7647 74.6032 74.6982C74.1651 74.6318 73.7621 74.4746 73.3943 74.2266C73.0356 73.9649 72.7222 73.6044 72.4542 73.145C72.1953 72.6719 71.9965 72.0851 71.8578 71.3845C71.76 70.8906 71.7064 70.352 71.6971 69.7685C71.6969 69.1712 71.7852 68.6038 71.9621 68.0662C72.1389 67.5286 72.4282 67.0518 72.8298 66.6359C73.2314 66.2199 73.7896 65.9395 74.5046 65.7945C75.0493 65.684 75.4863 65.685 75.8154 65.7974C76.1446 65.9099 76.4 66.0671 76.5817 66.2692C76.7747 66.469 76.9041 66.6757 76.97 66.8893C77.0473 67.1006 77.095 67.2522 77.1132 67.3441C77.2155 67.8609 77.2089 68.3341 77.0933 68.7637C76.989 69.1911 76.8053 69.5748 76.5421 69.9148C76.288 70.2411 75.9715 70.5203 75.5925 70.7525C75.2226 70.9709 74.83 71.1341 74.4147 71.2422C74.5784 72.0094 74.8124 72.5354 75.1166 72.8201C75.43 73.0911 75.893 73.1644 76.5058 73.0401ZM75.8059 67.6271C75.7263 67.2252 75.6025 66.9576 75.4345 66.8244C75.2642 66.6798 75.0996 66.6235 74.9407 66.6558C74.7478 66.6949 74.5912 66.8282 74.471 67.0556C74.3485 67.2716 74.2567 67.5531 74.1955 67.9C74.1435 68.2331 74.1198 68.6201 74.1245 69.0612C74.1405 69.4999 74.1827 69.9513 74.2509 70.4153C74.5301 70.3348 74.782 70.2061 75.0066 70.0291C75.229 69.8407 75.4105 69.6247 75.5512 69.3811C75.6895 69.1261 75.7825 68.8504 75.83 68.554C75.8776 68.2577 75.8695 67.9487 75.8059 67.6271Z" fill="white"/>
<path d="M82.7275 67.7286C82.5934 67.051 82.4184 66.5848 82.2027 66.3299C81.9983 66.0727 81.7486 65.974 81.4536 66.0338C81.1472 66.0959 80.9452 66.2982 80.8477 66.6405C80.7503 66.9828 80.7277 67.3756 80.7801 67.819L81.875 73.349L79.4238 73.8461L77.7183 65.2324L80.1695 64.7352L80.3469 65.6311C80.5374 65.1624 80.7858 64.8372 81.0921 64.6556C81.3985 64.4741 81.6822 64.3568 81.9432 64.3039C82.2723 64.2371 82.5946 64.2255 82.9101 64.269C83.2257 64.3126 83.5151 64.4331 83.7785 64.6305C84.0532 64.8257 84.2928 65.1116 84.4972 65.4882C84.6993 65.8534 84.8584 66.3289 84.9744 66.9146C85.013 67.1098 85.0494 67.3235 85.0836 67.5555C85.1268 67.7737 85.1654 67.9988 85.1996 68.2308C85.2337 68.4628 85.2667 68.689 85.2986 68.9095C85.3418 69.1278 85.3793 69.3173 85.4111 69.4781C85.5066 69.9604 85.6361 70.3164 85.7996 70.5461C85.9722 70.762 86.2401 70.8331 86.6032 70.7594C86.8756 70.7042 87.0504 70.6329 87.1275 70.5456C87.2503 71.1658 87.2096 71.6459 87.0055 71.986C86.8104 72.3122 86.4688 72.5248 85.9809 72.6238C85.561 72.709 85.1933 72.6999 84.8777 72.5966C84.5599 72.4819 84.2818 72.2994 84.0434 72.0491C83.8163 71.7965 83.6255 71.4887 83.471 71.1258C83.3279 70.7607 83.2143 70.3656 83.1301 69.9406C83.1006 69.7913 83.0664 69.6191 83.0278 69.4238C82.9982 69.2148 82.9641 69.0127 82.9254 68.8174C82.8845 68.6107 82.8458 68.4154 82.8094 68.2317C82.7821 68.0341 82.7548 67.8664 82.7275 67.7286Z" fill="white"/>
</svg>
