<svg width="1920" height="243" viewBox="0 0 1920 243" fill="none" xmlns="http://www.w3.org/2000/svg">
<path fill-rule="evenodd" clip-rule="evenodd" d="M64 44.3596L58.084 45H0V51.288V176V291.59H64C128 291.59 256 291.59 384 281.315C420.571 278.379 457.143 274.605 493.714 270.831C585.143 261.395 676.571 251.959 768 255.629C839.111 258.483 910.222 269.265 981.333 280.047C1038.22 288.672 1095.11 297.298 1152 301.864C1280 312.139 1408 301.864 1536 286.452C1664 271.04 1792 250.491 1856 240.217L1920 229.942V176V45V9.71735H1856C1792 9.71735 1664 9.71735 1536 16.6458C1499.43 18.6254 1462.86 21.1705 1426.29 23.7156C1334.86 30.0785 1243.43 36.4414 1152 33.9669C1080.89 32.0423 1009.78 24.7718 938.667 17.5012C881.778 11.6847 824.889 5.86822 768 2.78891C640 -4.13953 512 2.78891 384 13.1816C256 23.5742 128 37.4311 64 44.3596Z" fill="white"/>
<path fill-rule="evenodd" clip-rule="evenodd" d="M64 44.3596L58.084 45H0V51.288V176V291.59H64C128 291.59 256 291.59 384 281.315C420.571 278.379 457.143 274.605 493.714 270.831C585.143 261.395 676.571 251.959 768 255.629C839.111 258.483 910.222 269.265 981.333 280.047C1038.22 288.672 1095.11 297.298 1152 301.864C1280 312.139 1408 301.864 1536 286.452C1664 271.04 1792 250.491 1856 240.217L1920 229.942V176V45V9.71735H1856C1792 9.71735 1664 9.71735 1536 16.6458C1499.43 18.6254 1462.86 21.1705 1426.29 23.7156C1334.86 30.0785 1243.43 36.4414 1152 33.9669C1080.89 32.0423 1009.78 24.7718 938.667 17.5012C881.778 11.6847 824.889 5.86822 768 2.78891C640 -4.13953 512 2.78891 384 13.1816C256 23.5742 128 37.4311 64 44.3596Z" fill="#FCA7B5" fill-opacity="0.4"/>
</svg>
