<svg width="1919" height="307" viewBox="0 0 1919 307" fill="none" xmlns="http://www.w3.org/2000/svg">
<path fill-rule="evenodd" clip-rule="evenodd" d="M1856 261.717L1861.92 261.076H1920V254.788V130.076V14.4866H1856C1792 14.4866 1664 14.4866 1536 24.7611C1499.43 27.6967 1462.86 31.471 1426.29 35.2454C1334.86 44.6812 1243.43 54.1171 1152 50.4476C1080.89 47.5935 1009.78 36.8116 938.667 26.0296C881.778 17.4041 824.889 8.77847 768 4.21201C640 -6.06256 512 4.21201 384 19.6238C256 35.0357 128 55.5848 64 65.8594L0 76.134V130.076V261.076V296.359H64C128 296.359 256 296.359 384 289.43C420.571 287.451 457.143 284.906 493.714 282.361C585.143 275.998 676.571 269.635 768 272.109C839.111 274.034 910.222 281.304 981.333 288.575C1038.22 294.391 1095.11 300.208 1152 303.287C1280 310.216 1408 303.287 1536 292.895C1664 282.502 1792 268.645 1856 261.717Z" fill="white"/>
<path fill-rule="evenodd" clip-rule="evenodd" d="M1856 261.717L1861.92 261.076H1920V254.788V130.076V14.4866H1856C1792 14.4866 1664 14.4866 1536 24.7611C1499.43 27.6967 1462.86 31.471 1426.29 35.2454C1334.86 44.6812 1243.43 54.1171 1152 50.4476C1080.89 47.5935 1009.78 36.8116 938.667 26.0296C881.778 17.4041 824.889 8.77847 768 4.21201C640 -6.06256 512 4.21201 384 19.6238C256 35.0357 128 55.5848 64 65.8594L0 76.134V130.076V261.076V296.359H64C128 296.359 256 296.359 384 289.43C420.571 287.451 457.143 284.906 493.714 282.361C585.143 275.998 676.571 269.635 768 272.109C839.111 274.034 910.222 281.304 981.333 288.575C1038.22 294.391 1095.11 300.208 1152 303.287C1280 310.216 1408 303.287 1536 292.895C1664 282.502 1792 268.645 1856 261.717Z" fill="#FCA7B5" fill-opacity="0.4"/>
</svg>
