<svg width="76" height="68" viewBox="0 0 76 68" fill="none" xmlns="http://www.w3.org/2000/svg">
<path d="M52.4525 40.2275C52.856 40.3804 53.2541 40.5276 53.6574 40.6655C56.0266 41.461 58.422 42.1912 60.8438 42.8561L60.8708 42.8635L60.8974 42.8724C61.7572 43.1612 62.6824 43.1939 63.5604 42.9665C65.4491 42.4564 67.2054 41.5454 68.7099 40.2957C69.5197 39.5472 70.2117 38.6806 70.7626 37.7254L70.7659 37.7197C70.9035 37.4847 70.9438 37.3256 70.9517 37.244C70.9523 37.2387 70.9526 37.2338 70.9529 37.2293C70.9447 37.226 70.9347 37.2223 70.9227 37.2185C70.8335 37.1899 70.6626 37.1634 70.3902 37.1923L70.3724 37.1942L70.3546 37.1955C68.9101 37.2972 67.4793 37.5426 66.0834 37.9278C63.1728 38.7769 60.206 39.42 57.205 39.8524M52.4525 40.2275L71.9735 31.5285C71.8094 31.7149 71.6387 31.8914 71.4692 32.0667C71.2535 32.2898 71.0397 32.511 70.8436 32.7481C69.8422 33.9749 68.6703 34.8809 67.3869 35.5707C66.7674 35.6899 66.1526 35.8337 65.5438 36.002L65.5369 36.0039L65.53 36.0059C64.2801 36.3707 63.0194 36.6963 61.7499 36.9823C61.7497 36.9823 61.7495 36.9823 61.7493 36.9824C60.1513 37.3423 58.5393 37.6395 56.917 37.8732L56.9113 37.874C56.531 37.9311 56.1852 37.9528 55.7895 37.9776C55.6502 37.9864 55.5047 37.9955 55.3494 38.0067C54.957 38.035 54.5783 38.0634 54.2013 38.0916C54.1388 38.0963 54.0763 38.101 54.0139 38.1057C54.0059 38.1063 53.998 38.1068 53.99 38.1074C53.9096 38.1135 53.829 38.1195 53.7484 38.1255L53.8226 39.1227L54.2168 39.2751L54.2986 39.7466C54.6837 39.6798 55.0712 39.6143 55.4606 39.5495C55.8968 39.4768 56.3353 39.4049 56.7753 39.3328C56.8898 39.314 57.0044 39.2952 57.1191 39.2764L57.2021 39.8528C57.2031 39.8526 57.204 39.8525 57.205 39.8524M52.4525 40.2275L53.8968 40.12C54.0491 40.1086 54.2 40.0973 54.3507 40.086C54.7276 40.0578 55.1029 40.0297 55.4933 40.0016C55.6084 39.9933 55.7289 39.9857 55.8536 39.9779C56.2691 39.952 56.7323 39.9231 57.205 39.8524M52.4525 40.2275L57.1215 39.276L57.2078 39.8519C57.2069 39.8521 57.2059 39.8522 57.205 39.8524M47.1283 20.219C49.2507 18.9728 51.4066 17.7898 53.5627 16.6067C54.0637 16.3318 54.5648 16.0568 55.0654 15.7811C60.5112 12.8055 65.6464 9.33871 70.0414 4.90075C70.8534 4.10728 71.5864 3.24638 72.3208 2.3837C72.7309 1.902 73.1415 1.41975 73.5665 0.948368L47.1283 20.219ZM47.1283 20.219C45.1311 21.373 43.3961 22.9298 42.0335 24.7903M47.1283 20.219L42.0335 24.7903M75.5155 3.48918C75.0314 7.25927 73.5166 10.8101 71.1542 13.7587C70.6297 14.0794 70.1113 14.4323 69.6182 14.8345C69.6159 14.8364 69.6136 14.8383 69.6112 14.8402C69.1999 15.1763 68.8063 15.5468 68.4415 15.9615C68.1608 16.2507 67.8574 16.517 67.5342 16.758L67.5154 16.772L67.4973 16.7869C65.4337 18.4818 63.2494 19.9964 60.9851 21.3999C57.9008 23.3118 54.6682 25.0178 51.3907 26.6935C51.2975 26.7304 51.2028 26.7633 51.1068 26.7922C51.1003 26.7942 51.0938 26.7962 51.0872 26.7981C51.0274 26.8158 50.9671 26.8319 50.9065 26.8464L51.103 27.6677C51.0963 27.6729 51.0895 27.6782 51.0827 27.6834L51.1392 27.8189C51.1529 27.8156 51.1665 27.8123 51.1801 27.8089L51.6955 28.4736C51.7862 28.4033 51.8806 28.3378 51.9783 28.2775C52.0059 28.2616 52.0336 28.2457 52.0613 28.2297C52.0779 28.2202 52.0944 28.2107 52.1109 28.2012C52.9659 27.7099 53.8263 27.22 54.6891 26.7289C57.0386 25.3913 59.4061 24.0434 61.7322 22.6257C64.0742 21.1982 66.3582 19.7478 68.4373 17.969L75.5155 3.48918ZM75.5155 3.48918C75.6116 2.88619 75.6551 2.27597 75.6454 1.66544L75.5155 3.48918ZM74.6399 19.4286C73.3696 21.5007 71.7012 23.2928 69.7374 24.7049C69.2565 24.9185 68.7811 25.1404 68.3042 25.3728L74.6399 19.4286ZM74.6399 19.4286C75.6039 17.9271 76.0758 16.1628 75.99 14.3808L74.6399 19.4286ZM42.0335 24.7903C40.6709 26.6508 39.7107 28.7744 39.2138 31.026L42.0335 24.7903ZM52.631 31.9263L52.631 31.9263L52.6242 31.929C52.4692 31.9892 52.2707 32.0958 52.094 32.2952C51.9233 32.4879 51.8246 32.7088 51.767 32.9218L51.3548 34.4463L52.9091 34.1671C53.5538 34.0513 54.1902 33.8938 54.8145 33.6955L54.8436 33.6863L54.872 33.6753L54.9732 33.6362C57.2456 32.7589 59.5564 31.8667 61.8159 30.8279L61.816 30.8278C63.3084 30.1415 64.8086 29.377 66.2875 28.6235C67.2638 28.126 68.2307 27.6333 69.18 27.1709L69.1802 27.1708C70.2904 26.6298 71.3873 26.1505 72.5726 25.6987C72.7625 25.6263 72.8959 25.594 72.9827 25.5814C73.005 25.6651 73.0272 25.7972 73.0357 25.9939C73.0569 27.7861 72.4114 29.5225 71.2241 30.8664L71.2229 30.8677C71.0753 31.0354 70.9218 31.1942 70.7506 31.3713C70.7276 31.3951 70.7042 31.4193 70.6805 31.4439C70.4879 31.6434 70.2749 31.8666 70.073 32.1107L70.0689 32.1157C67.9657 34.6924 65.0044 35.7506 61.6388 36.4378L61.6374 36.438C59.9339 36.7883 58.2303 37.0675 56.504 37.3504C55.6612 37.4885 54.8129 37.6275 53.9567 37.7761L53.9391 37.7791L53.9217 37.7828C53.3104 37.9114 53.0265 38.4088 52.8899 38.7622L52.34 40.1847C52.1939 40.1292 52.047 40.0729 51.8988 40.0161C51.7359 39.9538 51.5715 39.8908 51.4048 39.8275C50.6366 39.5355 49.8341 39.2412 48.9939 38.9978L48.1062 40.7511C48.5201 41.0694 48.9561 41.3578 49.4109 41.6143L49.4358 41.6283L49.4616 41.641C53.2014 43.4758 57.1345 45.1348 61.4983 45.5717C62.2695 45.6544 63.0022 45.9508 63.6138 46.4273L63.6229 46.4344L63.6321 46.4413C63.8391 46.595 63.9474 46.7115 63.9993 46.7849C64.0052 46.7933 64.0101 46.8007 64.0141 46.8071C64.0108 46.8129 64.0069 46.8197 64.0021 46.8272C63.9555 46.902 63.8537 47.0247 63.651 47.1914C62.7241 47.9491 61.5862 48.4033 60.3919 48.492L60.3874 48.4923C55.2587 48.8967 50.6062 47.9897 46.7075 44.6323L46.6975 44.6237L46.6872 44.6153C45.4357 43.5939 44.4639 42.2773 43.8563 40.789H43.8565H43.8597H43.863H43.8662H43.8694H43.8727H43.8759H43.8791H43.8823H43.8856H43.8888H43.892H43.8953H43.8985H43.9017H43.905H43.9082H43.9114H43.9147H43.9179H43.9211H43.9244H43.9276H43.9308H43.9341H43.9373H43.9405H43.9438H43.947H43.9503H43.9535H43.9567H43.96H43.9632H43.9665H43.9697H43.9729H43.9762H43.9794H43.9827H43.9859H43.9892H43.9924H43.9957H43.9989H44.0021H44.0054H44.0086H44.0119H44.0151H44.0184H44.0216H44.0249H44.0281H44.0314H44.0346H44.0379H44.0411H44.0444H44.0477H44.0509H44.0542H44.0574H44.0607H44.0639H44.0672H44.0705H44.0737H44.077H44.0802H44.0835H44.0868H44.09H44.0933H44.0966H44.0998H44.1031H44.1064H44.1096H44.1129H44.1162H44.1194H44.1227H44.126H44.1292H44.1325H44.1358H44.1391H44.1423H44.1456H44.1489H44.1522H44.1555H44.1587H44.162H44.1653H44.1686H44.1719H44.1751H44.1784H44.1817H44.185H44.1883H44.1916H44.1949H44.1982H44.2014H44.2047H44.208H44.2113H44.2146H44.2179H44.2212H44.2245H44.2278H44.2311H44.2344H44.2377H44.241H44.2443H44.2476H44.2509H44.2542H44.2575H44.2608H44.2642H44.284L44.3038 40.7882C45.7213 40.732 47.0855 40.2326 48.2042 39.3605C49.323 38.4883 50.1398 37.2873 50.5395 35.9265L50.5454 35.9065L50.5504 35.8863C50.7433 35.1118 50.8046 34.2897 50.5866 33.4972C50.3625 32.6822 49.8645 31.9784 49.0828 31.4355L49.0734 31.429L49.0638 31.4227C49.0129 31.389 48.9714 31.3431 48.9432 31.2892C48.9149 31.2353 48.9008 31.1752 48.902 31.1145L48.9032 31.0564L48.8977 30.9986C48.8515 30.5145 48.7143 30.0437 48.4936 29.6106C48.3034 29.1602 48.0142 28.7581 47.6471 28.4344C47.2674 28.0995 46.8148 27.8576 46.3253 27.728C45.8358 27.5984 45.3228 27.5845 44.827 27.6876C44.3429 27.7882 43.8882 27.9975 43.4972 28.2996C42.706 28.8481 42.0823 29.6056 41.696 30.4878C41.3096 31.3702 41.176 32.3423 41.3099 33.2958C41.4929 35.3971 42.9021 36.5637 44.4549 37.2577L44.5331 37.2926L44.616 37.3138C44.834 37.3694 45.0615 37.3748 45.2814 37.3301C45.3887 37.3121 45.4779 37.2801 45.5453 37.2499C45.6315 37.2112 45.698 37.1674 45.719 37.1536L45.7203 37.1528C45.7483 37.1344 45.7603 37.1261 45.7672 37.1214C45.7752 37.1159 45.7764 37.1151 45.7875 37.1087L47.0401 36.3838L45.9191 35.4685C45.7174 35.3038 45.5409 35.1636 45.3728 35.03C45.1672 34.8668 44.9742 34.7134 44.7629 34.5375L44.7606 34.5356C44.4735 34.2979 44.2406 34.0016 44.0775 33.6667C43.9144 33.3317 43.8248 32.9658 43.8147 32.5935C43.8047 32.2211 43.8744 31.8509 44.0192 31.5077C44.164 31.1645 44.3805 30.8561 44.6544 30.6033L44.6544 30.6033L44.6607 30.5974C45.0711 30.2119 45.453 30.1659 45.6758 30.221C45.8703 30.2691 46.1229 30.436 46.2304 30.9285L46.2373 30.9606C46.453 31.9562 46.7143 33.1624 47.9853 34.0481C48.0222 34.0738 48.0786 34.1291 48.1143 34.3013C48.1527 34.4864 48.1499 34.7412 48.098 35.0368L48.0975 35.0398C47.9212 36.0614 47.1713 37.0387 46.1101 37.6783C45.0483 38.3182 43.8326 38.5248 42.8525 38.2101L42.8525 38.2101L42.8437 38.2073C42.8043 38.1951 42.7672 38.1764 42.7339 38.152C41.5989 37.1901 40.7902 36.2364 40.3454 35.1727C39.9073 34.1251 39.785 32.8814 40.1845 31.2661L40.1876 31.2538L40.1903 31.2415C40.6573 29.1255 41.5597 27.1297 42.8403 25.3811C44.1208 23.6326 45.7515 22.1695 47.6286 21.0849L47.6286 21.0849L47.6346 21.0814C49.7433 19.8432 51.8835 18.6688 54.0387 17.4862C54.5406 17.2108 55.0432 16.935 55.5465 16.6578C61.0416 13.6551 66.2626 10.1361 70.7462 5.61019C71.5843 4.79052 72.375 3.86283 73.1303 2.97655C73.5327 2.50444 73.925 2.04407 74.3092 1.61806L74.3126 1.61418C74.4228 1.49071 74.5294 1.34763 74.604 1.24751C74.6094 1.24022 74.6147 1.23315 74.6198 1.22633C74.6209 1.23941 74.6221 1.25295 74.6232 1.26699C74.6302 1.3581 74.6334 1.43124 74.6371 1.51654C74.6394 1.57043 74.642 1.62918 74.6458 1.70037C74.6534 2.24652 74.614 2.79232 74.528 3.33175L74.5256 3.34676L74.5236 3.36183C73.9884 7.53038 72.1287 11.4173 69.2182 14.4507L69.2113 14.4579L69.2045 14.4653C66.7943 17.0799 63.9028 18.9604 60.6913 20.9179C58.3925 22.3191 56.065 23.6441 53.7252 24.9761C52.8077 25.4984 51.8884 26.0218 50.9682 26.5513L50.9563 26.5581L50.9446 26.5652C50.7805 26.6657 50.622 26.7752 50.4699 26.8932L49.8653 27.362L50.1597 28.0682L50.2162 28.2037L50.5439 28.9896L51.372 28.7914C51.649 28.7252 51.9204 28.6378 52.1841 28.5301L52.2233 28.5141L52.261 28.4948C57.9569 25.5834 63.6853 22.5023 68.749 18.347C69.158 18.0404 69.5418 17.7015 69.8967 17.3337L69.9137 17.3161L69.9298 17.2976C71.0507 16.016 72.5142 15.248 74.1734 14.3772C74.3236 14.2984 74.4754 14.2187 74.6286 14.1378C74.7622 14.0689 74.86 14.0349 74.9247 14.0187C74.9515 14.0982 74.9804 14.2304 74.9913 14.4314C75.0666 16.0047 74.6496 17.5625 73.7984 18.8883L73.7928 18.897L73.7873 18.9059C72.2817 21.362 70.1842 23.4018 67.6866 24.839C62.8564 27.5821 57.8232 29.9515 52.631 31.9263ZM54.3336 39.7399L54.2374 39.2831L54.7503 39.4813C54.7417 39.4936 54.7297 39.5091 54.714 39.5265C54.6803 39.5639 54.6295 39.6102 54.5591 39.6521C54.4873 39.6947 54.4102 39.7238 54.3336 39.7399ZM54.7688 39.4519C54.7688 39.452 54.7684 39.4528 54.7676 39.4543C54.7684 39.4526 54.7688 39.4518 54.7688 39.4519ZM70.9866 37.2467C70.9866 37.2468 70.9858 37.2463 70.9843 37.245C70.9859 37.246 70.9866 37.2467 70.9866 37.2467ZM70.9524 37.1943C70.9521 37.193 70.952 37.1923 70.952 37.1923L70.9524 37.1943ZM64.0308 46.8387C64.0308 46.8386 64.0305 46.838 64.0302 46.8368L64.0308 46.8387ZM64.0286 46.7767C64.0289 46.7755 64.0291 46.7748 64.0292 46.7748L64.0286 46.7767Z" stroke="white" stroke-width="2"/>
<path d="M30.188 22.6253L30.1885 22.6257C33.3554 25.0547 35.0633 28.3589 35.9135 32.3212L35.9139 32.323C36.4752 34.915 35.343 36.8609 33.2541 38.5539C32.763 38.9383 32.0583 38.8778 30.9337 38.604C30.5956 38.521 30.2703 38.3954 29.9651 38.2307L30.0661 38.0835L29.8545 38.1688C29.7112 38.0857 29.5728 37.9938 29.4399 37.8935L30.7521 37.7292C31.8487 37.5919 32.856 37.0558 33.5873 36.2243C34.3162 35.3954 34.7216 34.3292 34.7312 33.2239C34.7489 32.4722 34.6157 31.7244 34.3393 31.0257C34.0618 30.3241 33.6456 29.6863 33.1154 29.1516L33.1101 29.1463C32.1344 28.1768 30.8755 27.7557 29.6842 28.0655C29.078 28.2232 28.5507 28.554 28.1315 29.0173L25.3752 27.1842C25.3419 27.162 25.2981 27.1317 25.2472 27.0964C25.1009 26.9953 24.8965 26.8537 24.7158 26.75L24.7141 26.749C24.1182 26.4082 23.5226 26.0694 22.9282 25.7313C18.5662 23.2499 14.2638 20.8024 10.2805 17.8274L10.2747 17.823L10.2689 17.8188C7.26983 15.6457 4.84718 12.7548 3.21773 9.40269L3.21777 9.40267L3.21388 9.39485C2.03005 7.01263 1.40888 4.38406 1.39985 1.71647C1.4005 1.64159 1.40036 1.57939 1.40023 1.52247C1.40003 1.43276 1.39986 1.3562 1.40284 1.26392C1.4031 1.25604 1.40338 1.24831 1.40367 1.24073C1.42005 1.2634 1.43693 1.28697 1.45507 1.31229C1.46226 1.32233 1.46965 1.33265 1.47728 1.34329C1.52134 1.40472 1.57363 1.47723 1.62865 1.54844L1.62865 1.54844L1.62969 1.54978C7.22714 8.76807 14.4771 13.6446 22.1955 17.8176C22.5048 17.9852 22.813 18.1513 23.12 18.3168C25.606 19.6565 28.0078 20.9508 30.188 22.6253ZM29.9892 35.9675L28.635 37.0913C28.3746 36.7489 28.1668 36.3662 28.0205 35.9558L28.0011 35.9015L27.9756 35.8497C27.8161 35.5257 27.7816 35.152 27.8798 34.8027C27.978 34.4537 28.2007 34.1575 28.5005 33.9699L28.5148 33.9609L28.5289 33.9515C28.8822 33.7134 29.1634 33.3839 29.3441 32.9991C29.5143 32.6364 29.5896 32.2367 29.5639 31.8379C29.5694 31.73 29.5876 31.6231 29.618 31.5195L29.6453 31.4264L29.6543 31.3297C29.6713 31.1459 29.7434 30.9732 29.8592 30.8346C29.9749 30.6961 30.1282 30.5985 30.2974 30.5529C30.4666 30.5072 30.6453 30.5151 30.8103 30.5756C30.9754 30.6361 31.1202 30.7472 31.2239 30.8959L31.2853 30.984L31.364 31.057C31.6376 31.3108 31.8531 31.6236 31.9942 31.9732C32.1354 32.323 32.1985 32.7005 32.1787 33.0784C32.1588 33.4564 32.0565 33.8248 31.8797 34.157C31.7029 34.4891 31.4562 34.7766 31.158 34.9992L31.1375 35.0145L31.1178 35.0309L29.9892 35.9675ZM25.3052 34.1262C25.1499 34.8038 25.1867 35.5116 25.4112 36.1689C25.7283 37.3364 26.3446 38.3952 27.1934 39.2406L26.9927 39.3215C26.3943 39.5625 25.8285 39.7974 25.2805 40.025C24.2466 40.4543 23.2758 40.8575 22.2676 41.226C20.1455 41.9662 17.997 42.6345 15.8288 43.2957L15.8287 43.2956L15.8181 43.299C14.0805 43.85 12.1986 43.6892 10.576 42.85L10.5673 42.8455L10.5585 42.8412C8.67323 41.9125 7.04755 40.9315 5.90519 39.3816L5.90084 39.3757L5.89641 39.3699C5.54787 38.9112 5.27229 38.3997 5.07999 37.8538C5.04632 37.7551 5.03865 37.6881 5.03815 37.6507C5.07119 37.6406 5.13037 37.6286 5.22284 37.6285C5.77955 37.6303 6.33449 37.6929 6.87803 37.8154L6.88866 37.8177L6.89935 37.8199L6.93509 37.8271C8.36684 38.1169 9.76665 38.4003 11.1345 38.7697C14.5993 39.7224 18.1455 40.3412 21.7256 40.6179L21.7375 40.6188L21.7494 40.6194C22.391 40.6536 22.7887 40.2221 22.9893 39.9083L23.7847 38.6643L22.3344 38.3873C22.2777 38.3765 22.2185 38.365 22.1575 38.3532C21.9186 38.3067 21.6512 38.2548 21.3881 38.2153C17.582 37.6323 13.8573 37.0098 10.2927 35.7222L10.2927 35.7222L10.2812 35.7182C9.32611 35.3862 8.44259 34.8706 7.6794 34.1989L7.66649 34.1875L7.65319 34.1766C6.25943 33.0326 5.04178 31.6841 4.04071 30.1756C3.31875 29.0591 2.94104 27.7491 2.95701 26.4127C2.9658 26.1641 2.99535 25.9999 3.02583 25.8993C3.10786 25.916 3.23474 25.9543 3.41425 26.0365L3.41424 26.0365L3.42058 26.0393C4.71161 26.6197 5.98744 27.2426 7.28086 27.8741L7.37705 27.9211C8.69663 28.5653 10.0346 29.2173 11.3969 29.8244C14.4991 31.2514 17.6481 32.6011 20.7789 33.9431L21.004 34.0395C21.0048 34.0399 21.0056 34.0403 21.0065 34.0406C21.7221 34.3507 22.4975 34.4954 23.2762 34.464L23.6341 32.5475C23.0167 32.2795 22.4081 32.0244 21.8064 31.7722C20.5382 31.2407 19.301 30.7222 18.0786 30.1228L18.0768 30.1219C17.581 29.88 17.0866 29.64 16.5937 29.4008C13.6223 27.9586 10.7076 26.544 7.90657 24.9089L7.89715 24.9034L7.88761 24.8981C5.07507 23.3376 2.8667 20.8562 1.62572 17.8578C1.30885 16.8962 1.10094 15.9011 1.00611 14.8916L1.00587 14.8891C0.984767 14.6703 1.02081 14.4501 1.10983 14.2507L1.11703 14.2346C1.47243 14.4306 1.81764 14.6122 2.15178 14.788C3.27083 15.3768 4.26561 15.9003 5.10257 16.6774L5.10376 16.6785C7.72821 19.1073 10.5843 21.2669 13.6302 23.1256L13.6302 23.1256L13.6363 23.1292C16.0518 24.5799 18.5083 25.9589 20.9501 27.3297C21.6362 27.7148 22.3211 28.0993 23.0036 28.4846C23.5407 28.7967 24.1429 28.9786 24.7626 29.0151L27.9738 29.2043C27.6433 29.6248 27.3929 30.1362 27.2403 30.7138L27.2341 30.7373L27.229 30.761C27.1039 31.3488 26.7968 31.8787 26.355 32.2745L26.3377 32.2899L26.3212 32.3061C25.8158 32.8028 25.4637 33.4349 25.3052 34.1262ZM32.1066 41.2148H32.1082C31.7128 42.2853 31.1025 43.2657 30.3117 44.0918L30.2951 44.1091L30.2794 44.1272C27.8793 46.8881 24.6986 48.22 21.0502 48.8758L21.0303 48.8794L21.0105 48.8838C18.9385 49.3434 16.7913 49.3281 14.7261 48.8393C13.8294 48.5471 12.9748 48.1353 12.1848 47.6146L12.1712 47.6056L12.1574 47.5971C12.1132 47.57 12.0755 47.5305 12.0494 47.4816C12.0233 47.4325 12.0102 47.3764 12.0124 47.3192C12.0145 47.2621 12.0316 47.2074 12.0611 47.1608C12.0905 47.1143 12.1307 47.0781 12.1763 47.0546L12.2224 47.0309L12.2657 47.0026C13.0168 46.5124 13.8659 46.1989 14.7508 46.0845C19.1314 45.5891 23.0941 43.9145 26.8578 41.984L26.8709 41.9773L26.8839 41.9701C27.1621 41.8169 27.4249 41.6372 27.6689 41.4334L27.712 41.3974L27.7508 41.3568C27.9117 41.1884 28.0588 41.0072 28.1907 40.815L28.5521 40.2887C29.5315 40.8632 30.6428 41.1842 31.7864 41.2144L31.7996 41.2148H31.8128H31.8157H31.8185H31.8214H31.8243H31.8272H31.8301H31.8329H31.8358H31.8387H31.8416H31.8445H31.8473H31.8502H31.8531H31.856H31.8589H31.8618H31.8647H31.8675H31.8704H31.8733H31.8762H31.8791H31.882H31.8849H31.8878H31.8907H31.8935H31.8964H31.8993H31.9022H31.9051H31.908H31.9109H31.9138H31.9167H31.9196H31.9225H31.9254H31.9283H31.9312H31.9341H31.937H31.9399H31.9428H31.9457H31.9486H31.9515H31.9544H31.9573H31.9602H31.9631H31.9661H31.969H31.9719H31.9748H31.9777H31.9806H31.9835H31.9864H31.9893H31.9923H31.9952H31.9981H32.001H32.0039H32.0069H32.0098H32.0127H32.0156H32.0185H32.0215H32.0244H32.0273H32.0302H32.0331H32.0361H32.039H32.0419H32.0449H32.0478H32.0507H32.0537H32.0566H32.0595H32.0625H32.0654H32.0683H32.0713H32.0742H32.0771H32.0801H32.083H32.0859H32.0889H32.0918H32.0948H32.0977H32.1007H32.1036H32.1066ZM3.06308 25.8065C3.06309 25.8065 3.06281 25.8069 3.06221 25.8078L3.06308 25.8065Z" stroke="white" stroke-width="2"/>
<path d="M36.4575 25.8336L37.4137 28.9393L38.369 25.8333C40.2175 19.8233 45.5941 15.4312 51.8848 15.4312C59.7034 15.4312 66.0862 21.8419 66.0862 30.0535C66.0862 34.1233 64.5126 36.99 61.803 40.2252L37.4268 65.6879L13.0225 40.2252C10.3172 36.9919 8.74347 34.1 8.74347 30.0251C8.74347 21.8263 15.1039 15.5956 22.9399 15.5956C29.2469 15.5956 34.6124 19.8407 36.4575 25.8336Z" fill="#FFC06D" stroke="white" stroke-width="2"/>
<path d="M28.4503 37.7609C28.4366 38.0908 28.3679 38.3956 28.2442 38.6753C28.1259 38.9466 27.9629 39.1906 27.7551 39.4074C27.5543 39.6228 27.3141 39.8025 27.0348 39.9466C26.7623 40.0893 26.4644 40.1936 26.141 40.2594C25.2533 40.4401 24.499 40.2628 23.8781 39.7276C23.264 39.191 22.8301 38.2796 22.5764 36.9935C22.4826 36.5182 22.4281 36.024 22.4128 35.5109C22.3974 34.9978 22.453 34.5175 22.5795 34.0701C22.7059 33.6226 22.9157 33.2346 23.2087 32.9059C23.5086 32.5759 23.9235 32.3569 24.4534 32.2491C24.708 32.1972 24.9626 32.1818 25.2172 32.2026C25.4705 32.2165 25.7004 32.2752 25.9069 32.3785C26.1189 32.4735 26.3006 32.6147 26.4521 32.802C26.6035 32.9892 26.7068 33.2227 26.762 33.5023C26.8034 33.712 26.7959 33.8916 26.7395 34.0412C26.69 34.1895 26.5586 34.2853 26.3453 34.3287C26.2627 34.3455 26.1601 34.3518 26.0377 34.3477C25.9207 34.3351 25.7885 34.2821 25.6412 34.1885C25.7196 34.1143 25.7719 33.9983 25.798 33.8403C25.8227 33.6753 25.8206 33.5194 25.7916 33.3726C25.7475 33.1489 25.6435 32.9665 25.4797 32.8254C25.3145 32.6773 25.1217 32.6256 24.9015 32.6704C24.6676 32.718 24.4846 32.8607 24.3525 33.0984C24.2205 33.3362 24.1291 33.6347 24.0783 33.994C24.033 34.3449 24.0249 34.7392 24.0539 35.1768C24.0816 35.6074 24.1389 36.0429 24.2258 36.4832C24.3402 37.0634 24.4808 37.5401 24.6475 37.9133C24.821 38.2851 25.0104 38.5738 25.2155 38.7792C25.4207 38.9847 25.6396 39.1146 25.8722 39.169C26.1117 39.2221 26.3553 39.2234 26.603 39.1729C26.9953 39.0931 27.3269 38.9238 27.5979 38.6651C27.8745 38.3979 28.0657 38.0791 28.1715 37.7086L28.4503 37.7609Z" fill="white"/>
<path d="M31.7301 33.4944L32.4333 37.0592C32.4913 37.3528 32.5677 37.5408 32.6627 37.6232C32.7632 37.6973 32.9132 37.714 33.1128 37.6734C33.3124 37.6328 33.4603 37.5118 33.5565 37.3104C33.6597 37.1077 33.6954 36.8714 33.6636 36.6016L34.0972 36.5133C34.1262 36.9509 34.0974 37.313 34.0108 37.5997C33.9229 37.8793 33.8066 38.1065 33.6622 38.2814C33.5164 38.4492 33.3581 38.5723 33.1875 38.6506C33.0168 38.729 32.8627 38.7822 32.7251 38.8102C32.3604 38.8844 32.0651 38.8573 31.8394 38.7287C31.6191 38.5918 31.4415 38.3808 31.3065 38.0956C31.2749 38.2256 31.233 38.3578 31.1807 38.492C31.1271 38.6192 31.0542 38.7395 30.962 38.8528C30.8767 38.9647 30.7673 39.0633 30.6338 39.1486C30.5072 39.2325 30.3511 39.2934 30.1653 39.3312C29.9451 39.3761 29.72 39.3782 29.4902 39.3378C29.2603 39.2973 29.0373 39.2009 28.8211 39.0486C28.6119 38.8949 28.4219 38.6755 28.2511 38.3903C28.0858 38.0968 27.9584 37.7229 27.8687 37.2685C27.8053 36.947 27.7742 36.608 27.7755 36.2515C27.7836 35.8936 27.8351 35.5559 27.9299 35.2385C28.0317 34.9197 28.1885 34.6442 28.4003 34.4121C28.6177 34.1715 28.9053 34.0148 29.2632 33.942C29.3457 33.9252 29.4366 33.9139 29.5357 33.9083C29.6334 33.8957 29.7311 33.9012 29.8288 33.925C29.9252 33.9417 30.0188 33.9808 30.1096 34.0423C30.1991 34.0968 30.2769 34.1828 30.343 34.3002L30.2437 33.7969L31.7301 33.4944ZM30.4423 34.8034C30.4299 34.7769 30.4093 34.7447 30.3803 34.707C30.35 34.6623 30.3101 34.6231 30.2606 34.5896C30.2096 34.5491 30.1504 34.5211 30.083 34.5058C30.0141 34.4834 29.9384 34.4807 29.8559 34.4975C29.6907 34.5311 29.5607 34.6339 29.4658 34.8059C29.3764 34.9695 29.3152 35.1674 29.2823 35.3995C29.2548 35.6232 29.2494 35.8678 29.266 36.1335C29.2813 36.3921 29.3116 36.6368 29.3571 36.8674C29.4302 37.2379 29.515 37.5224 29.6114 37.7209C29.7064 37.9124 29.8014 38.0493 29.8964 38.1318C29.9969 38.2058 30.094 38.2443 30.1876 38.247C30.2798 38.2428 30.3569 38.2344 30.4188 38.2218C30.4945 38.2064 30.5667 38.1735 30.6355 38.1231C30.7098 38.0644 30.7704 37.9902 30.8171 37.9007C30.8708 37.8099 30.9072 37.7043 30.9264 37.584C30.9443 37.4568 30.938 37.3163 30.9077 37.1625L30.4423 34.8034Z" fill="white"/>
<path d="M35.9522 34.7943C35.8695 34.3749 35.7627 34.0876 35.6319 33.9325C35.5066 33.769 35.3579 33.7047 35.1859 33.7397C35.0827 33.7607 34.9987 33.8069 34.934 33.8782C34.8763 33.9482 34.8323 34.0335 34.802 34.1341C34.7718 34.2348 34.7546 34.3474 34.7505 34.4718C34.7451 34.5892 34.7506 34.7081 34.7672 34.8283L35.4311 38.1939L33.9448 38.4965L32.9106 33.2541L34.3969 32.9515L34.5045 33.4967C34.6145 33.2199 34.7624 33.0262 34.9481 32.9157C35.1325 32.7982 35.3142 32.7212 35.4931 32.6848C35.6858 32.6456 35.8743 32.6399 36.0588 32.6678C36.2501 32.6943 36.4263 32.7711 36.5874 32.8983C36.754 33.017 36.8999 33.1945 37.0253 33.4308C37.1492 33.66 37.247 33.9564 37.3187 34.3198C37.3367 34.4107 37.356 34.5267 37.3767 34.6679C37.4029 34.8007 37.4263 34.9377 37.447 35.0789C37.4677 35.2201 37.4877 35.3578 37.507 35.4921C37.5332 35.6249 37.5553 35.7367 37.5732 35.8276C37.6325 36.1281 37.7083 36.349 37.8006 36.4902C37.8915 36.6244 38.0436 36.6697 38.2569 36.6263C38.4908 36.5787 38.6353 36.4584 38.6903 36.2654C38.7522 36.0711 38.7844 35.8355 38.7871 35.5587L39.2206 35.4704C39.2483 35.901 39.2326 36.2569 39.1735 36.5379C39.113 36.8119 39.0278 37.0329 38.9177 37.2007C38.8063 37.3615 38.6763 37.4825 38.5277 37.5636C38.3777 37.6378 38.227 37.6903 38.0756 37.7211C37.5457 37.8289 37.1252 37.7291 36.8141 37.4217C36.5098 37.1128 36.299 36.6613 36.1818 36.0672C36.1694 36.0043 36.1522 35.9169 36.1301 35.805C36.1136 35.6848 36.0929 35.5618 36.068 35.436C36.0432 35.3102 36.0198 35.1913 35.9977 35.0795C35.9812 34.9593 35.966 34.8642 35.9522 34.7943Z" fill="white"/>
<path d="M41.9609 29.2307L43.0778 34.8925C43.1357 35.1861 43.2121 35.3741 43.3071 35.4566C43.4076 35.5306 43.5577 35.5473 43.7572 35.5067C43.9568 35.4661 44.1047 35.3451 44.201 35.1437C44.3041 34.941 44.3398 34.7047 44.3081 34.4349L44.7416 34.3466C44.7706 34.7842 44.7419 35.1463 44.6553 35.433C44.5673 35.7126 44.4511 35.9399 44.3066 36.1147C44.1608 36.2825 44.0025 36.4056 43.8319 36.4839C43.6613 36.5623 43.5071 36.6155 43.3695 36.6435C43.0048 36.7177 42.7096 36.6906 42.4838 36.5621C42.2635 36.4251 42.0859 36.2141 41.9509 35.9289C41.9193 36.059 41.8774 36.1911 41.8251 36.3253C41.7715 36.4526 41.6986 36.5728 41.6064 36.6861C41.5211 36.798 41.4117 36.8966 41.2783 36.9819C41.1517 37.0659 40.9955 37.1267 40.8097 37.1646C40.5895 37.2094 40.3645 37.2116 40.1346 37.1711C39.9047 37.1306 39.6817 37.0343 39.4656 36.882C39.2563 36.7282 39.0663 36.5088 38.8955 36.2237C38.7303 35.9301 38.6028 35.5562 38.5132 35.1019C38.4497 34.7803 38.4187 34.4413 38.4199 34.0848C38.428 33.7269 38.4795 33.3892 38.5744 33.0718C38.6761 32.753 38.8329 32.4775 39.0448 32.2454C39.2622 32.0048 39.5498 31.8481 39.9076 31.7753C39.9902 31.7585 40.081 31.7473 40.1801 31.7416C40.2778 31.729 40.3755 31.7346 40.4733 31.7583C40.5696 31.775 40.6632 31.8142 40.7541 31.8756C40.8436 31.9301 40.9214 32.0161 40.9875 32.1335L40.5159 29.743L41.9609 29.2307ZM41.0867 32.6368C41.0743 32.6102 41.0537 32.5781 41.0248 32.5403C40.9945 32.4956 40.9545 32.4565 40.905 32.4229C40.854 32.3824 40.7949 32.3545 40.7274 32.3391C40.6586 32.3168 40.5829 32.314 40.5003 32.3308C40.3352 32.3644 40.2051 32.4672 40.1102 32.6392C40.0208 32.8028 39.9596 33.0007 39.9267 33.2328C39.8993 33.4565 39.8938 33.7012 39.9104 33.9668C39.9257 34.2254 39.9561 34.4701 40.0016 34.7007C40.0746 35.0712 40.1594 35.3557 40.2558 35.5542C40.3508 35.7457 40.4459 35.8827 40.5409 35.9651C40.6414 36.0392 40.7384 36.0776 40.832 36.0803C40.9242 36.0761 41.0013 36.0677 41.0632 36.0551C41.1389 36.0397 41.2112 36.0068 41.28 35.9564C41.3543 35.8977 41.4148 35.8236 41.4616 35.7341C41.5152 35.6432 41.5516 35.5376 41.5709 35.4174C41.5887 35.2901 41.5825 35.1496 41.5521 34.9959L41.0867 32.6368Z" fill="white"/>
<path d="M47.5909 30.2659L48.7905 36.3471C48.8636 36.7176 48.8782 37.0272 48.8342 37.2761C48.7916 37.532 48.7105 37.7375 48.5908 37.8927C48.4794 38.0536 48.3418 38.1725 48.1781 38.2494C48.0226 38.332 47.8657 38.3893 47.7074 38.4216C47.5078 38.4622 47.3131 38.4727 47.1232 38.4532C46.9401 38.4323 46.7728 38.3828 46.6214 38.3045C46.4782 38.2319 46.3543 38.1299 46.2497 37.9985C46.145 37.8671 46.0748 37.7105 46.0389 37.5288C46.0017 37.3401 46.0058 37.1611 46.0511 36.9919C46.1047 36.8283 46.1859 36.6773 46.2946 36.5389C46.4033 36.4004 46.5319 36.2724 46.6805 36.155C46.8305 36.0444 46.986 35.9437 47.147 35.8528L47.0332 35.2761C46.97 35.4271 46.8943 35.5516 46.8063 35.6495C46.7251 35.746 46.637 35.8257 46.5421 35.8887C46.454 35.9502 46.3598 35.9985 46.2593 36.0335C46.1657 36.0671 46.0742 36.093 45.9847 36.1112C45.4962 36.2106 45.1128 36.136 44.8347 35.8872C44.5635 35.6371 44.3789 35.2638 44.281 34.7676L43.555 31.0874L45.0414 30.7848L45.7446 34.3497C45.797 34.6153 45.8686 34.797 45.9595 34.8949C46.0559 34.9843 46.1729 35.015 46.3105 34.987C46.4963 34.9492 46.627 34.8317 46.7027 34.6345C46.7783 34.4374 46.8002 34.2039 46.7685 33.9341L46.1045 30.5684L47.5909 30.2659ZM46.5674 37.3231C46.595 37.4629 46.6617 37.5656 46.7678 37.6313C46.8806 37.6956 46.9852 37.7179 47.0816 37.6983C47.2054 37.6731 47.2901 37.5759 47.3354 37.4067C47.3808 37.2375 47.3724 36.9956 47.3104 36.6811L47.2504 36.377C47.0357 36.5225 46.8582 36.675 46.7179 36.8344C46.5845 36.9924 46.5343 37.1553 46.5674 37.3231Z" fill="white"/>
<path d="M27.3232 48.569L28.8405 48.2601L28.2242 45.1356L29.7105 44.8331L31.2576 52.6757L29.7713 52.9783L28.9936 49.036L27.4763 49.3448L28.254 53.2871L26.7676 53.5897L25.3653 46.481C25.0667 46.709 24.8576 46.9915 24.738 47.3284C24.617 47.6584 24.5978 48.0331 24.6806 48.4525C24.7247 48.6762 24.7743 48.8551 24.8294 48.9893C24.89 49.1151 24.9465 49.22 24.9988 49.3038C25.058 49.3863 25.1131 49.4478 25.164 49.4883C25.215 49.5288 25.2549 49.568 25.2838 49.6057C24.871 49.6898 24.5255 49.6619 24.2474 49.5222C23.968 49.3755 23.7827 49.0715 23.6917 48.6102C23.6255 48.2747 23.6495 47.9426 23.7636 47.614C23.8764 47.2784 24.0517 46.9701 24.2897 46.689C24.5332 46.3995 24.8242 46.1512 25.1628 45.9442C25.5081 45.7357 25.8769 45.5916 26.2692 45.5118C26.3449 45.4964 26.4178 45.4851 26.488 45.4781C26.5637 45.4627 26.6366 45.4515 26.7068 45.4445L27.3232 48.569Z" fill="white"/>
<path d="M34.4131 51.1828C34.6195 51.1408 34.7964 51.0757 34.9436 50.9876C35.0908 50.8994 35.2174 50.7973 35.3234 50.6812C35.4279 50.5582 35.5194 50.4232 35.5978 50.2764C35.6748 50.1226 35.747 49.9625 35.8144 49.7961L36.1653 49.7246C36.1173 49.9889 36.0472 50.2504 35.9551 50.509C35.8698 50.7663 35.7453 51.0061 35.5816 51.2285C35.4248 51.4494 35.2267 51.6425 34.9873 51.8075C34.7478 51.9726 34.4527 52.0908 34.1017 52.1623C33.8058 52.2225 33.525 52.2324 33.2594 52.1919C32.9937 52.1515 32.7494 52.0558 32.5264 51.9049C32.3089 51.7456 32.1188 51.5262 31.9563 51.2466C31.7993 50.9587 31.6788 50.6015 31.5946 50.1751C31.5354 49.8746 31.5029 49.5467 31.4973 49.1916C31.4971 48.8281 31.5507 48.4828 31.6579 48.1556C31.7651 47.8284 31.9405 47.5382 32.184 47.2851C32.4276 47.0319 32.7661 46.8612 33.1996 46.773C33.5299 46.7058 33.7949 46.7064 33.9944 46.7748C34.194 46.8432 34.3489 46.9389 34.4591 47.0619C34.5761 47.1835 34.6546 47.3093 34.6946 47.4393C34.7414 47.5679 34.7703 47.6602 34.7814 47.7161C34.8434 48.0307 34.8394 48.3187 34.7693 48.5801C34.7061 48.8402 34.5947 49.0737 34.4351 49.2807C34.281 49.4793 34.0891 49.6492 33.8593 49.7905C33.635 49.9234 33.3969 50.0228 33.1451 50.0886C33.2443 50.5555 33.3862 50.8756 33.5707 51.0489C33.7607 51.2138 34.0415 51.2584 34.4131 51.1828ZM33.9887 47.8884C33.9404 47.6437 33.8653 47.4809 33.7634 47.3998C33.6602 47.3118 33.5604 47.2776 33.4641 47.2972C33.3471 47.321 33.2521 47.4021 33.1792 47.5406C33.105 47.672 33.0493 47.8433 33.0122 48.0544C32.9806 48.2572 32.9663 48.4927 32.9691 48.7612C32.9788 49.0282 33.0044 49.3029 33.0458 49.5853C33.2151 49.5363 33.3678 49.458 33.504 49.3503C33.6389 49.2356 33.7489 49.1041 33.8342 48.9559C33.9181 48.8007 33.9745 48.6329 34.0033 48.4525C34.0322 48.2721 34.0273 48.0841 33.9887 47.8884Z" fill="white"/>
<path d="M39.4009 45.5653L40.1041 49.1301C40.1621 49.4237 40.2385 49.6117 40.3335 49.6941C40.434 49.7682 40.584 49.7849 40.7836 49.7443C40.9831 49.7037 41.1311 49.5827 41.2273 49.3813C41.3305 49.1786 41.3662 48.9423 41.3344 48.6725L41.7679 48.5842C41.797 49.0218 41.7682 49.3839 41.6816 49.6706C41.5936 49.9502 41.4774 50.1774 41.333 50.3523C41.1871 50.5201 41.0289 50.6432 40.8583 50.7215C40.6876 50.7999 40.5335 50.8531 40.3959 50.8811C40.0312 50.9553 39.7359 50.9282 39.5102 50.7996C39.2899 50.6627 39.1123 50.4517 38.9773 50.1665C38.9457 50.2965 38.9037 50.4287 38.8515 50.5629C38.7979 50.6902 38.725 50.8104 38.6328 50.9237C38.5475 51.0356 38.4381 51.1342 38.3046 51.2195C38.178 51.3034 38.0218 51.3643 37.8361 51.4021C37.6159 51.447 37.3908 51.4491 37.161 51.4087C36.9311 51.3682 36.7081 51.2718 36.4919 51.1195C36.2827 50.9658 36.0927 50.7464 35.9219 50.4613C35.7566 50.1677 35.6292 49.7938 35.5395 49.3394C35.4761 49.0179 35.445 48.6789 35.4463 48.3224C35.4544 47.9645 35.5059 47.6268 35.6007 47.3094C35.7025 46.9906 35.8593 46.7151 36.0711 46.483C36.2885 46.2424 36.5761 46.0857 36.9339 46.0129C37.0165 45.9961 37.1074 45.9849 37.2065 45.9792C37.3042 45.9666 37.4019 45.9722 37.4996 45.9959C37.596 46.0126 37.6896 46.0517 37.7804 46.1132C37.8699 46.1677 37.9477 46.2537 38.0138 46.3711L37.9145 45.8678L39.4009 45.5653ZM38.1131 46.8744C38.1007 46.8478 38.0801 46.8156 38.0511 46.7779C38.0208 46.7332 37.9809 46.694 37.9313 46.6605C37.8804 46.62 37.8212 46.5921 37.7538 46.5767C37.6849 46.5544 37.6092 46.5516 37.5267 46.5684C37.3615 46.602 37.2315 46.7048 37.1366 46.8768C37.0472 47.0404 36.986 47.2383 36.9531 47.4704C36.9256 47.6941 36.9202 47.9387 36.9368 48.2044C36.952 48.463 36.9824 48.7077 37.0279 48.9383C37.101 49.3088 37.1858 49.5933 37.2822 49.7918C37.3772 49.9833 37.4722 50.1202 37.5672 50.2027C37.6677 50.2768 37.7648 50.3152 37.8584 50.3179C37.9506 50.3137 38.0277 50.3053 38.0896 50.2927C38.1653 50.2773 38.2375 50.2444 38.3063 50.194C38.3806 50.1353 38.4412 50.0612 38.4879 49.9717C38.5416 49.8808 38.578 49.7752 38.5972 49.655C38.6151 49.5277 38.6088 49.3872 38.5785 49.2334L38.1131 46.8744Z" fill="white"/>
<path d="M43.2443 44.5648C43.5953 44.4934 43.8809 44.617 44.1013 44.9357C44.3285 45.253 44.5027 45.7192 44.6241 46.3343C44.7027 46.7327 44.749 47.1486 44.7629 47.582C44.7768 48.0154 44.735 48.4202 44.6374 48.7963C44.5398 49.1724 44.3754 49.5003 44.1443 49.78C43.9187 50.0513 43.6029 50.2283 43.1969 50.3109C42.7014 50.4118 42.2851 50.333 41.9478 50.0744C41.6105 49.8159 41.3894 49.421 41.2846 48.8898L40.5814 45.325L42.0677 45.0224L42.771 48.5873C42.8206 48.8389 42.8916 49.0171 42.9838 49.122C43.0747 49.2198 43.1993 49.2526 43.3575 49.2204C43.5571 49.1798 43.7133 49.0644 43.826 48.8742C43.9388 48.684 44.0151 48.454 44.055 48.1841C44.1017 47.9129 44.1153 47.6193 44.0959 47.3033C44.0834 46.986 44.0482 46.6805 43.9903 46.3869C43.9269 46.0654 43.8401 45.7704 43.7298 45.502C43.723 45.5398 43.6838 45.5769 43.6122 45.6132C43.5393 45.6426 43.4822 45.6615 43.4409 45.6699C43.3652 45.6853 43.2922 45.6784 43.222 45.649C43.1587 45.6183 43.0968 45.5764 43.0362 45.5233C42.9811 45.4618 42.9322 45.3954 42.8895 45.3241C42.8537 45.2514 42.8289 45.1801 42.8151 45.1102C42.7903 44.9844 42.8109 44.8712 42.8769 44.7705C42.9498 44.6684 43.0723 44.5998 43.2443 44.5648Z" fill="white"/>
<path d="M48.0815 48.4006C48.288 48.3586 48.4648 48.2935 48.612 48.2054C48.7593 48.1172 48.8859 48.0151 48.9918 47.899C49.0963 47.776 49.1878 47.641 49.2662 47.4942C49.3432 47.3404 49.4154 47.1803 49.4828 47.0139L49.8338 46.9424C49.7857 47.2067 49.7156 47.4681 49.6235 47.7268C49.5382 47.9841 49.4138 48.2239 49.2501 48.4463C49.0932 48.6672 48.8951 48.8602 48.6557 49.0253C48.4163 49.1904 48.1211 49.3086 47.7701 49.3801C47.4742 49.4403 47.1935 49.4502 46.9278 49.4097C46.6622 49.3693 46.4178 49.2736 46.1948 49.1227C45.9773 48.9634 45.7873 48.744 45.6248 48.4644C45.4677 48.1765 45.3472 47.8193 45.2631 47.3929C45.2038 47.0924 45.1713 46.7645 45.1657 46.4094C45.1655 46.0459 45.2191 45.7006 45.3263 45.3734C45.4336 45.0462 45.6089 44.756 45.8525 44.5029C46.096 44.2497 46.4345 44.079 46.868 43.9908C47.1983 43.9236 47.4633 43.9242 47.6629 43.9926C47.8625 44.061 48.0173 44.1567 48.1275 44.2797C48.2445 44.4013 48.323 44.5271 48.363 44.6571C48.4098 44.7857 48.4388 44.878 48.4498 44.9339C48.5118 45.2485 48.5078 45.5365 48.4377 45.7979C48.3745 46.058 48.2631 46.2915 48.1035 46.4985C47.9494 46.6971 47.7575 46.867 47.5277 47.0083C47.3034 47.1412 47.0653 47.2406 46.8135 47.3064C46.9128 47.7733 47.0546 48.0934 47.2391 48.2667C47.4291 48.4316 47.7099 48.4762 48.0815 48.4006ZM47.6571 45.1062C47.6088 44.8615 47.5337 44.6987 47.4319 44.6176C47.3286 44.5296 47.2288 44.4954 47.1325 44.515C47.0155 44.5388 46.9206 44.6199 46.8477 44.7584C46.7734 44.8898 46.7177 45.0611 46.6806 45.2722C46.649 45.4749 46.6347 45.7105 46.6375 45.979C46.6473 46.246 46.6728 46.5207 46.7142 46.8031C46.8835 46.7541 47.0362 46.6758 47.1725 46.568C47.3073 46.4534 47.4174 46.3219 47.5026 46.1737C47.5865 46.0184 47.6429 45.8507 47.6717 45.6703C47.7006 45.4899 47.6957 45.3019 47.6571 45.1062Z" fill="white"/>
<path d="M51.8542 45.1679C51.7728 44.7555 51.6667 44.4718 51.5359 44.3166C51.412 44.1601 51.2606 44.1 51.0817 44.1364C50.8959 44.1743 50.7734 44.2973 50.7143 44.5057C50.6552 44.714 50.6415 44.9531 50.6733 45.2229L51.3372 48.5885L49.8509 48.8911L48.8167 43.6487L50.3031 43.3461L50.4106 43.8913C50.5261 43.6061 50.6768 43.4082 50.8625 43.2977C51.0483 43.1872 51.2203 43.1158 51.3786 43.0836C51.5781 43.043 51.7736 43.0359 51.9649 43.0624C52.1562 43.0889 52.3317 43.1622 52.4914 43.2824C52.658 43.4012 52.8033 43.5752 52.9272 43.8044C53.0498 44.0267 53.1463 44.316 53.2166 44.6725C53.24 44.7913 53.2621 44.9213 53.2828 45.0625C53.309 45.1954 53.3324 45.3324 53.3531 45.4736C53.3738 45.6148 53.3938 45.7525 53.4132 45.8867C53.4394 46.0195 53.4621 46.1348 53.4814 46.2327C53.5393 46.5262 53.6179 46.7429 53.717 46.8827C53.8217 47.0141 53.9841 47.0573 54.2043 47.0125C54.3694 46.9789 54.4754 46.9355 54.5222 46.8824C54.5966 47.2598 54.572 47.552 54.4482 47.759C54.3299 47.9576 54.1228 48.087 53.8269 48.1472C53.5723 48.199 53.3493 48.1935 53.158 48.1307C52.9653 48.0609 52.7966 47.9498 52.652 47.7974C52.5144 47.6437 52.3987 47.4564 52.305 47.2355C52.2182 47.0133 52.1493 46.7728 52.0983 46.5142C52.0804 46.4233 52.0597 46.3185 52.0362 46.1997C52.0183 46.0724 51.9976 45.9494 51.9742 45.8306C51.9493 45.7048 51.9259 45.5859 51.9038 45.4741C51.8873 45.3539 51.8707 45.2518 51.8542 45.1679Z" fill="white"/>
</svg>
