<svg xmlns="http://www.w3.org/2000/svg" width="24" height="24" viewBox="0 0 24 24" fill="none">
  <path d="M3 6.25C3 5.38805 3.34241 4.5614 3.9519 3.9519C4.5614 3.34241 5.38805 3 6.25 3H17.75C18.612 3 19.4386 3.34241 20.0481 3.9519C20.6576 4.5614 21 5.38805 21 6.25V17.75C21 18.612 20.6576 19.4386 20.0481 20.0481C19.4386 20.6576 18.612 21 17.75 21H6.25C5.38805 21 4.5614 20.6576 3.9519 20.0481C3.34241 19.4386 3 18.612 3 17.75V6.25ZM6.25 5C5.56 5 5 5.56 5 6.25V17.75C5 18.44 5.56 19 6.25 19H17.75C18.44 19 19 18.44 19 17.75V6.25C19 5.56 18.44 5 17.75 5H6.25Z" fill="#131313"/>
</svg>
