<svg xmlns="http://www.w3.org/2000/svg" width="32" height="32" viewBox="0 0 32 32" fill="none">
<g clip-path="url(#clip0_1791_27595)">
<path d="M27.3062 4.68144C25.8218 3.19375 24.0581 2.014 22.1163 1.20995C20.1746 0.405892 18.0932 -0.00661873 15.9916 -0.00389283C7.15424 -0.00389283 -0.00976562 7.16011 -0.00976562 15.9974C-0.00976562 20.4161 1.78223 24.4174 4.67823 27.3134C6.16267 28.8011 7.92641 29.9809 9.86813 30.7849C11.8098 31.589 13.8913 32.0015 15.9929 31.9988C24.8302 31.9988 31.9942 24.8348 31.9942 15.9974C31.9942 11.5788 30.2022 7.57744 27.3062 4.68144ZM25.2502 25.2508C24.0359 26.4683 22.5929 27.4338 21.0042 28.0919C19.4155 28.7499 17.7125 29.0876 15.9929 29.0854C8.76223 29.0854 2.9009 23.2241 2.9009 15.9934C2.89875 14.2739 3.23641 12.5708 3.89449 10.9821C4.55256 9.39345 5.51808 7.95047 6.73557 6.73611C7.94965 5.5186 9.39238 4.55306 10.9808 3.89497C12.5693 3.23689 14.2722 2.89924 15.9916 2.90144C23.2209 2.90144 29.0822 8.76277 29.0822 15.9921C29.0845 17.7115 28.7469 19.4144 28.0888 21.0029C27.4307 22.5913 26.4651 24.0341 25.2476 25.2481L25.2502 25.2508Z" fill="#131313"/>
<path d="M18.0501 16.0006L23.1901 10.8606C23.4436 10.5843 23.5806 10.2207 23.5725 9.8457C23.5643 9.47074 23.4117 9.11341 23.1464 8.8483C22.8811 8.58319 22.5237 8.43078 22.1487 8.42289C21.7738 8.41501 21.4103 8.55225 21.1341 8.80597L21.1354 8.80464L15.9954 13.9446L10.8554 8.80464C10.579 8.55109 10.2154 8.41409 9.84045 8.42222C9.46549 8.43035 9.10816 8.58299 8.84305 8.84827C8.57793 9.11356 8.42553 9.47099 8.41764 9.84595C8.40976 10.2209 8.547 10.5844 8.80072 10.8606L8.79939 10.8593L13.9394 15.9993L8.79939 21.1393C8.65477 21.272 8.5385 21.4326 8.45757 21.6113C8.37664 21.7901 8.33272 21.9835 8.32847 22.1797C8.32421 22.3759 8.35971 22.5709 8.43281 22.7531C8.50592 22.9352 8.61512 23.1007 8.75385 23.2395C8.89258 23.3783 9.05797 23.4876 9.24006 23.5608C9.42214 23.6341 9.61717 23.6697 9.81338 23.6656C10.0096 23.6614 10.2029 23.6176 10.3818 23.5368C10.5606 23.456 10.7213 23.3398 10.8541 23.1953L10.8554 23.194L15.9954 18.054L21.1354 23.194C21.2681 23.3386 21.4286 23.4549 21.6074 23.5358C21.7862 23.6167 21.9795 23.6606 22.1758 23.6649C22.372 23.6691 22.567 23.6337 22.7491 23.5605C22.9313 23.4874 23.0967 23.3782 23.2356 23.2395C23.3744 23.1008 23.4837 22.9354 23.5569 22.7533C23.6301 22.5712 23.6658 22.3762 23.6616 22.18C23.6575 21.9838 23.6137 21.7904 23.5329 21.6116C23.4521 21.4327 23.3359 21.2721 23.1914 21.1393L23.1901 21.138L18.0501 16.0006Z" fill="#131313"/>
</g>
<defs>
<clipPath id="clip0_1791_27595">
<rect width="32" height="32" fill="white"/>
</clipPath>
</defs>
</svg>