<svg xmlns="http://www.w3.org/2000/svg" width="24" height="24" viewBox="0 0 24 24" fill="none">
  <path d="M8 12L11 15L16 9M4 16.8V7.2C4 6.08 4 5.52 4.218 5.092C4.41 4.715 4.715 4.41 5.092 4.218C5.52 4 6.08 4 7.2 4H16.8C17.92 4 18.48 4 18.907 4.218C19.284 4.41 19.59 4.715 19.782 5.092C20 5.519 20 6.079 20 7.197V16.804C20 17.922 20 18.481 19.782 18.908C19.5899 19.2844 19.2836 19.5903 18.907 19.782C18.48 20 17.921 20 16.803 20H7.197C6.079 20 5.519 20 5.092 19.782C4.71569 19.5903 4.40974 19.2843 4.218 18.908C4 18.48 4 17.92 4 16.8Z" stroke="#131313" stroke-width="2" stroke-linecap="round" stroke-linejoin="round"/>
</svg>