<svg width="100" height="100" viewBox="0 0 100 100" fill="none" xmlns="http://www.w3.org/2000/svg">
<rect x="100" y="100" width="100" height="100" rx="50" transform="rotate(-180 100 100)" fill="#FFC06D"/>
<path d="M48.625 81.4375C47.7461 82.3153 46.5547 82.8084 45.3125 82.8084C44.0703 82.8084 42.8789 82.3153 42 81.4375L15.4375 54.875C14.5597 53.9961 14.0666 52.8047 14.0666 51.5625C14.0666 50.3203 14.5597 49.1289 15.4375 48.25L42 21.6875C42.8891 20.86 44.0645 20.4093 45.2789 20.4303C46.4934 20.4513 47.6525 20.9422 48.5125 21.8C49.3703 22.66 49.8612 23.8191 49.8822 25.0336C49.9032 26.2481 49.4526 27.4234 48.625 28.3125L30.0625 46.875L76.5625 46.875C77.8057 46.875 78.998 47.3689 79.8771 48.2479C80.7561 49.127 81.25 50.3193 81.25 51.5625C81.25 52.8057 80.7561 53.998 79.8771 54.8771C78.998 55.7561 77.8057 56.25 76.5625 56.25L30.0625 56.25L48.625 74.8125C49.5028 75.6914 49.9959 76.8828 49.9959 78.125C49.9959 79.3672 49.5028 80.5586 48.625 81.4375Z" fill="white"/>
</svg>
