<svg width="100" height="100" viewBox="0 0 100 100" fill="none" xmlns="http://www.w3.org/2000/svg">
<rect width="100" height="100" rx="50" fill="#FFC06D"/>
<path d="M51.375 18.5625C52.2539 17.6847 53.4453 17.1916 54.6875 17.1916C55.9297 17.1916 57.1211 17.6847 58 18.5625L84.5625 45.125C85.4403 46.0039 85.9334 47.1953 85.9334 48.4375C85.9334 49.6797 85.4403 50.8711 84.5625 51.75L58 78.3125C57.1109 79.14 55.9355 79.5907 54.7211 79.5697C53.5066 79.5487 52.3475 79.0578 51.4875 78.2C50.6297 77.34 50.1388 76.1809 50.1178 74.9664C50.0968 73.7519 50.5474 72.5766 51.375 71.6875L69.9375 53.125H23.4375C22.1943 53.125 21.002 52.6311 20.1229 51.7521C19.2439 50.873 18.75 49.6807 18.75 48.4375C18.75 47.1943 19.2439 46.002 20.1229 45.1229C21.002 44.2439 22.1943 43.75 23.4375 43.75H69.9375L51.375 25.1875C50.4972 24.3086 50.0041 23.1172 50.0041 21.875C50.0041 20.6328 50.4972 19.4414 51.375 18.5625Z" fill="white"/>
</svg>
