<svg width="162" height="153" viewBox="0 0 162 153" fill="none" xmlns="http://www.w3.org/2000/svg">
<path d="M68.8354 80.3255L68.8393 80.3332L68.8436 80.3408C71.5564 85.1825 72.8986 90.6539 72.7284 96.1738C72.4861 100.368 72.0649 104.498 70.3576 108.331L70.3574 108.331C68.5465 112.406 65.8906 115.534 61.5911 116.967L61.5755 116.972L61.5602 116.978C59.9812 117.624 58.226 117.726 56.5743 117.269L56.5659 117.267L56.5575 117.265C55.9726 117.125 55.4244 116.862 54.95 116.495C54.4755 116.127 54.086 115.664 53.8073 115.137C53.5287 114.609 53.3675 114.03 53.3343 113.438C53.301 112.845 53.3964 112.254 53.614 111.702L53.6207 111.685L53.6261 111.668C53.7942 111.13 53.9909 110.617 54.2197 110.02C54.332 109.727 54.452 109.414 54.5802 109.068L54.7906 108.5L54.1928 108.4C53.8512 108.344 53.5199 108.282 53.1958 108.222C52.4664 108.087 51.7731 107.959 51.0798 107.905C46.9621 107.504 42.936 106.431 39.1642 104.731L39.1643 104.731L39.153 104.727C36.7509 103.714 34.5972 102.198 32.8411 100.283C32.2165 99.5392 31.6619 98.7404 31.184 97.8969L31.1631 97.8601L31.1364 97.8273C30.9051 97.5437 30.7733 97.195 30.7593 96.8337C30.7455 96.4766 30.8476 96.1252 31.0506 95.8308C31.2539 95.5738 31.4868 95.4903 31.7832 95.4842C32.077 95.4781 32.3895 95.5474 32.7638 95.6304C32.8234 95.6437 32.8846 95.6572 32.9475 95.6709C34.4703 96.0594 35.9914 96.4572 37.5153 96.8557L37.5394 96.862C39.0737 97.2633 40.611 97.6652 42.1529 98.0584L42.1617 98.0606L42.1705 98.0625L42.1774 98.064L42.1844 98.0655L42.1913 98.067L42.1982 98.0685L42.2052 98.07L42.2121 98.0715L42.219 98.073L42.226 98.0745L42.2329 98.076L42.2398 98.0776L42.2467 98.0791L42.2537 98.0806L42.2606 98.0821L42.2675 98.0836L42.2745 98.0851L42.2814 98.0866L42.2883 98.0881L42.2953 98.0896L42.3022 98.0911L42.3091 98.0926L42.3161 98.0941L42.323 98.0956L42.3299 98.0971L42.3369 98.0986L42.3438 98.1001L42.3507 98.1016L42.3577 98.1031L42.3646 98.1046L42.3715 98.1061L42.3785 98.1076L42.3854 98.1091L42.3923 98.1106L42.3993 98.1121L42.4062 98.1136L42.4131 98.1151L42.4201 98.1166L42.427 98.1181L42.4339 98.1196L42.4409 98.1211L42.4478 98.1226L42.4547 98.1241L42.4617 98.1256L42.4686 98.1271L42.4755 98.1287L42.4825 98.1302L42.4894 98.1317L42.4963 98.1332L42.5033 98.1347L42.5102 98.1362L42.5171 98.1377L42.524 98.1392L42.531 98.1407L42.5379 98.1422L42.5448 98.1437L42.5518 98.1452L42.5587 98.1467L42.5656 98.1482L42.5726 98.1497L42.5795 98.1512L42.5864 98.1527L42.5934 98.1542L42.6003 98.1557L42.6072 98.1572L42.6142 98.1587L42.6211 98.1602L42.628 98.1617L42.635 98.1632L42.6419 98.1647L42.6488 98.1662L42.6558 98.1677L42.6627 98.1692L42.6696 98.1707L42.6766 98.1722L42.6835 98.1737L42.6904 98.1752L42.6974 98.1767L42.7043 98.1782L42.7112 98.1797L42.7182 98.1813L42.7251 98.1828L42.732 98.1843L42.739 98.1858L42.7459 98.1873L42.7528 98.1888L42.7598 98.1903L42.7667 98.1918L42.7736 98.1933L42.7806 98.1948L42.7875 98.1963L42.7944 98.1978L42.8014 98.1993L42.8083 98.2008L42.8152 98.2023L42.8221 98.2038L42.8291 98.2053L42.836 98.2068L42.8429 98.2083L42.8499 98.2098L42.8568 98.2113L42.8637 98.2128L42.8707 98.2143L42.8776 98.2158L42.8845 98.2173L42.8915 98.2188L42.8984 98.2203L42.9053 98.2218L42.9123 98.2233L42.9192 98.2248L42.9261 98.2263L42.9331 98.2278L42.94 98.2293L42.9469 98.2308L42.9539 98.2324L42.9608 98.2339L42.9677 98.2354L42.9747 98.2369L42.9816 98.2384L42.9885 98.2399L42.9955 98.2414L43.0024 98.2429L43.0093 98.2444L43.0163 98.2459L43.0232 98.2474L43.0301 98.2489L43.0371 98.2504L43.044 98.2519L43.0509 98.2534L43.0579 98.2549L43.0648 98.2564L43.0717 98.2579L43.0787 98.2594L43.0856 98.2609L43.0925 98.2624L43.0995 98.2639L43.1064 98.2654L43.1133 98.2669L43.1202 98.2684L43.1272 98.2699L43.1341 98.2714L43.141 98.2729L43.148 98.2744L43.1549 98.2759L43.1618 98.2774L43.1688 98.2789L43.1757 98.2804L43.1826 98.2819L43.1896 98.2835L43.1965 98.285L43.2034 98.2865L43.2104 98.288L43.2173 98.2895L43.2242 98.291L43.2312 98.2925L43.2381 98.294L43.245 98.2955L43.252 98.297L43.2589 98.2985L43.2658 98.3L43.2728 98.3015L43.2797 98.303L43.2866 98.3045L43.2936 98.306L43.3005 98.3075L43.3074 98.309L43.3144 98.3105L43.3213 98.312L43.3282 98.3135L43.3352 98.315L43.3421 98.3165L43.349 98.318L43.356 98.3195L43.3629 98.321L43.3698 98.3225L43.3768 98.324L43.3837 98.3255L43.3906 98.327L43.3975 98.3285L43.4045 98.33L43.4114 98.3315L43.4183 98.333L43.4253 98.3346L43.4322 98.3361L43.4391 98.3376L43.4461 98.3391L43.453 98.3406L43.4599 98.3421L43.4669 98.3436L43.4738 98.3451L43.4807 98.3466L43.4877 98.3481L43.4946 98.3496L43.5015 98.3511L43.5085 98.3526L43.5154 98.3541L43.5223 98.3556L43.5293 98.3571L43.5362 98.3586L43.5431 98.3601L43.5501 98.3616L43.557 98.3631L43.5639 98.3646L43.5709 98.3661L43.5778 98.3676L43.5847 98.3691L43.5917 98.3706L43.5986 98.3721L43.6055 98.3736L43.6125 98.3751L43.6194 98.3766L43.6263 98.3781L43.6333 98.3796L43.6402 98.3811L43.6471 98.3826L43.6541 98.3841L43.661 98.3857L43.6679 98.3872L43.6749 98.3887L43.6818 98.3902L43.6887 98.3917L43.6956 98.3932L43.7026 98.3947L43.7095 98.3962L43.7164 98.3977L43.7234 98.3992L43.7303 98.4007L43.7372 98.4022L43.7442 98.4037L43.7511 98.4052L43.758 98.4067L43.765 98.4082L43.7719 98.4097L43.7788 98.4112L43.7858 98.4127L43.7927 98.4142L43.7996 98.4157L43.8066 98.4172L43.8135 98.4187L43.8204 98.4202L43.8274 98.4217L43.8343 98.4232L43.8412 98.4247L43.8482 98.4262L43.8551 98.4277L43.862 98.4292L43.869 98.4307L43.8759 98.4322L43.8828 98.4337L43.8898 98.4352L43.8967 98.4367L43.9036 98.4383L43.9106 98.4398L43.9175 98.4413L43.9244 98.4428L43.9314 98.4443L43.9383 98.4458L43.9452 98.4473L43.9522 98.4488L43.9591 98.4503L43.966 98.4518L43.973 98.4533L43.9799 98.4548L43.9868 98.4563L43.9937 98.4578L44.0007 98.4593L44.0076 98.4608L44.0145 98.4623L44.0215 98.4638L44.0284 98.4653L44.0353 98.4668L44.0423 98.4683L44.0492 98.4698L44.0561 98.4713L44.0631 98.4728L44.07 98.4743L44.0769 98.4758L44.0839 98.4773L44.0908 98.4788L44.0977 98.4803L44.1047 98.4818L44.1116 98.4833L44.1185 98.4848L44.1255 98.4863L44.1324 98.4878L44.1393 98.4894L44.1463 98.4909L44.1532 98.4924L44.1601 98.4939L44.1671 98.4954L44.174 98.4969L44.1809 98.4984L44.1879 98.4999L44.1948 98.5014L44.2017 98.5029L44.2087 98.5044L44.2156 98.5059L44.2225 98.5074L44.2295 98.5089L44.2364 98.5104L44.2433 98.5119L44.2503 98.5134L44.2572 98.5149L44.2641 98.5164L44.271 98.5179L44.278 98.5194L44.2849 98.5209L44.2918 98.5224L44.2988 98.5239L44.3057 98.5254L44.3126 98.5269L44.3196 98.5284L44.3265 98.5299L44.3334 98.5314L44.3404 98.5329L44.3473 98.5344L44.3542 98.5359L44.3612 98.5374L44.3681 98.5389L44.375 98.5405L44.382 98.542L44.3889 98.5435L44.3958 98.545L44.4028 98.5465L44.4097 98.548L44.4166 98.5495L44.4236 98.551L44.4305 98.5525L44.4374 98.554L44.4444 98.5555L44.4513 98.557L44.4582 98.5585L44.4652 98.56L44.4721 98.5615L44.479 98.563L44.486 98.5645L44.4929 98.566L44.4998 98.5675L44.5068 98.569L44.5137 98.5705L44.5206 98.572L44.5276 98.5735L44.5345 98.575L44.5414 98.5765L44.5484 98.578L44.5553 98.5795L44.5622 98.581L44.5691 98.5825L44.5761 98.584L44.583 98.5855L44.5899 98.587L44.5969 98.5885L44.6038 98.59L44.6107 98.5916L44.6177 98.5931L44.6246 98.5946L44.6315 98.5961L44.6385 98.5976L44.6454 98.5991L44.6523 98.6006L44.6593 98.6021L44.6662 98.6036L44.6731 98.6051L44.6801 98.6066L44.687 98.6081L44.6939 98.6096L44.7009 98.6111L44.7078 98.6126L44.7147 98.6141L44.7217 98.6156L44.7286 98.6171L44.7355 98.6186L44.7425 98.6201L44.7494 98.6216L44.7563 98.6231L44.7633 98.6246L44.7702 98.6261L44.7771 98.6276L44.7841 98.6291L44.791 98.6306L44.7979 98.6321L44.8049 98.6336L44.8118 98.6351L44.8187 98.6366L44.8257 98.6381L44.8326 98.6396L44.8395 98.6411L44.8465 98.6426L44.8534 98.6442L44.8603 98.6457L44.8672 98.6472L44.8742 98.6487L44.8811 98.6502L44.888 98.6517L44.895 98.6532L44.9019 98.6547L44.9088 98.6562L44.9158 98.6577L44.9227 98.6592L44.9296 98.6607L44.9366 98.6622L44.9435 98.6637L44.9504 98.6652L44.9574 98.6667L44.9643 98.6682L44.9712 98.6697L44.9782 98.6712L44.9851 98.6727L44.992 98.6742L44.999 98.6757L45.0059 98.6772L45.0128 98.6787L45.0198 98.6802L45.0267 98.6817L45.0336 98.6832L45.0406 98.6847L45.0475 98.6862L45.0544 98.6877L45.0614 98.6892L45.0683 98.6907L45.0752 98.6922L45.0822 98.6937L45.0891 98.6953L45.096 98.6968L45.103 98.6983L45.1099 98.6998L45.1168 98.7013L45.1238 98.7028L45.1307 98.7043L45.1376 98.7058L45.1445 98.7073L45.1515 98.7088L45.1584 98.7103L45.1653 98.7118L45.1723 98.7133L45.1792 98.7148L45.1861 98.7163L45.1931 98.7178L45.2 98.7193L45.2069 98.7208L45.2139 98.7223L45.2208 98.7238L45.2277 98.7253L45.2347 98.7268L45.2416 98.7283L45.2485 98.7298L45.2555 98.7313L45.2624 98.7328L45.2693 98.7343L45.2763 98.7358L45.2832 98.7373L45.2901 98.7388L45.2971 98.7403L45.304 98.7418L45.3109 98.7433L45.3179 98.7448L45.3248 98.7464L45.3317 98.7479L45.3387 98.7494L45.3456 98.7509L45.3525 98.7524L45.3595 98.7539L45.3664 98.7554L45.3733 98.7569L45.3803 98.7584L45.3872 98.7599L45.3941 98.7614L45.4011 98.7629L45.408 98.7644L45.4149 98.7659L45.4219 98.7674L45.4288 98.7689L45.4357 98.7704L45.4426 98.7719L45.4496 98.7734L45.4565 98.7749L45.4634 98.7764L45.4704 98.7779L45.4773 98.7794L45.4842 98.7809L45.4912 98.7824L45.4981 98.7839L45.505 98.7854L45.512 98.7869L45.5189 98.7884L45.5258 98.7899L45.5328 98.7914L45.5397 98.7929L45.5466 98.7944L45.5536 98.7959L45.5605 98.7975L45.5674 98.799L45.5744 98.8005L45.5813 98.802L45.5882 98.8035L45.5952 98.805L45.6021 98.8065L45.609 98.808L45.616 98.8095L45.6229 98.811L45.6298 98.8125L45.6368 98.814L45.6437 98.8155L45.6506 98.817L45.6576 98.8185L45.6645 98.82L45.6714 98.8215L45.6784 98.823L45.6853 98.8245L45.6922 98.826L45.6992 98.8275L45.7061 98.829L45.713 98.8305L45.72 98.832L46.4178 98.9833L46.3206 98.2757L46.2859 98.0231L46.2459 97.7314L45.9717 97.6246C44.9035 97.2086 43.8383 96.823 42.7805 96.4399C40.8687 95.7477 38.9808 95.0641 37.1424 94.2258L37.1419 94.2256C32.2528 92.0022 29.0057 88.113 26.6904 83.3221L26.6825 83.3057L26.6734 83.2899C26.6239 83.204 26.5852 83.1126 26.5582 83.0177C26.5229 82.8874 26.4865 82.7619 26.4512 82.6402C26.3455 82.2761 26.2497 81.9458 26.2224 81.6194C26.1894 81.2236 26.2699 80.9471 26.5395 80.7312C26.8102 80.5145 27.0666 80.5085 27.3829 80.627C27.6951 80.744 27.9995 80.9589 28.3344 81.1952C28.3837 81.23 28.4338 81.2653 28.4846 81.3008C29.4477 81.9875 30.3793 82.7206 31.323 83.4634C31.7834 83.8257 32.2466 84.1903 32.7179 84.5529C33.7006 85.311 34.6823 86.0697 35.6637 86.8282C38.3871 88.9332 41.1092 91.037 43.8503 93.1236C44.5699 93.6767 45.3423 94.1753 46.0957 94.6616C46.4016 94.8591 46.7043 95.0545 46.9991 95.2508L47.4168 95.5288L47.693 95.1103C47.7121 95.0814 47.7369 95.045 47.7643 95.0047C47.8183 94.9253 47.8826 94.8309 47.9338 94.749L48.1804 94.3548L47.8051 94.0799C47.4995 93.8561 47.1947 93.6352 46.891 93.4151C46.1649 92.8888 45.445 92.367 44.7363 91.8218L44.7355 91.8211C43.6616 90.9985 42.5934 90.1686 41.5223 89.3364C40.0968 88.2288 38.6661 87.1171 37.2097 86.0134C32.7485 82.5602 29.5288 77.776 28.031 72.3771L28.029 72.3701L28.0269 72.3631C27.2749 69.9292 26.762 67.4428 26.2451 64.9375C26.1547 64.4991 26.0641 64.06 25.9721 63.6206C25.8038 62.765 25.7471 61.8922 25.8034 61.0238C25.8675 60.7679 25.9638 60.5216 26.0899 60.2906C26.0984 60.2937 26.1069 60.2968 26.1153 60.2998C26.1537 60.3136 26.1904 60.3266 26.2256 60.3392C26.3229 60.3737 26.41 60.4046 26.4957 60.4386C26.7388 60.5348 26.8348 60.6068 26.8723 60.6593C26.9924 60.8361 27.1125 61.0127 27.2326 61.1893C28.9335 63.6914 30.6254 66.1802 32.1772 68.7567C38.0868 78.5833 45.7934 86.8681 53.9204 94.7915C54.101 94.9812 54.3222 95.128 54.5673 95.221C54.8162 95.3154 55.0833 95.3518 55.3482 95.3276L56.3245 95.2383L55.678 94.5002C55.5214 94.3215 55.3628 94.1367 55.2021 93.9495C54.887 93.5826 54.5636 93.2059 54.2307 92.8453L54.2284 92.8428C53.134 91.6739 52.0305 90.5118 50.928 89.3507C48.7023 87.0066 46.4809 84.6671 44.3477 82.2864L44.3477 82.2863L44.3418 82.2799C39.6875 77.2642 35.8085 71.595 32.8318 65.4584L32.8318 65.4584L32.8291 65.4528C30.2175 60.2351 29.0253 54.4396 29.3702 48.6414C29.6146 46.0064 30.4025 43.452 31.6853 41.1361L31.6853 41.1361L31.6878 41.1315C31.8562 40.8198 32.0621 40.5616 32.2868 40.4076C32.4952 40.2648 32.7208 40.2081 32.9971 40.2836C33.2881 40.3631 33.4224 40.5059 33.5093 40.6841C33.6129 40.8965 33.6562 41.1753 33.6929 41.5414L33.6928 41.5415L33.6941 41.5522C33.7766 42.2287 33.7976 42.9109 33.7568 43.5905C33.358 49.2047 35.1328 54.2341 37.623 59.0697L37.6242 59.072C39.6846 63.0235 42.346 66.5285 44.9893 70.0096C45.8287 71.1151 46.6663 72.2182 47.4823 73.3324L47.4838 73.3345C47.9806 74.0056 48.4783 74.6746 48.9756 75.3431C51.6951 78.9987 54.4001 82.6348 56.8518 86.468L56.8529 86.4697C57.5973 87.6233 58.1835 88.8876 58.7318 90.205C58.9417 90.7092 59.1487 91.2282 59.3574 91.7514C59.6825 92.5663 60.0116 93.3914 60.362 94.1867C60.5473 94.747 60.9266 95.224 61.4314 95.5335L62.4518 96.1592L62.179 94.9936C62.1314 94.7903 62.0858 94.5628 62.0379 94.3237C61.9454 93.8626 61.8442 93.3579 61.7034 92.899L61.7034 92.899L61.701 92.8914C60.5595 89.3713 58.9151 86.0289 56.8182 82.9666C52.8536 76.9783 48.898 70.9789 44.9515 64.9683C40.1577 57.6166 38.4233 49.5054 38.9762 40.8968C39.2603 36.8438 40.8248 32.9888 43.4487 29.8775L43.4488 29.8775L43.4551 29.8698C43.5318 29.7751 43.6042 29.6825 43.6742 29.5933C43.917 29.2832 44.1292 29.0122 44.3823 28.8237C44.5299 28.7138 44.6624 28.6574 44.79 28.6429C44.9133 28.6288 45.0762 28.6486 45.2971 28.7661C45.517 28.8831 45.6113 29.0011 45.6563 29.0962C45.7034 29.1957 45.7221 29.3239 45.6996 29.5001C45.6589 29.8182 45.5112 30.1556 45.3426 30.5408C45.3049 30.627 45.2661 30.7157 45.2272 30.8071C41.0324 40.4663 43.0461 49.6222 47.5132 58.4947L47.5131 58.4948L47.5173 58.5027C50.4082 63.998 53.7908 69.2272 57.624 74.1273C62.3457 80.3769 64.2826 87.4563 64.8266 95.092C64.8313 95.365 64.9 95.6331 65.027 95.8753C65.1566 96.1225 65.3432 96.3354 65.5709 96.497L66.3162 97.0255L66.3591 96.1131C66.4081 95.0715 66.401 94.0278 66.3379 92.9864L66.3372 92.9746L66.3359 92.9628C65.6112 86.2716 63.8124 79.9638 59.8049 74.2743L59.8049 74.2742C55.038 67.5078 51.9059 59.9013 49.6691 51.9798L49.6687 51.9782C47.3056 43.7154 48.7343 35.9815 53.2229 28.7525L53.2267 28.7463L53.2304 28.74C54.7724 26.0863 57.1243 23.9867 59.9513 22.7414C60.1017 22.679 60.2664 22.5996 60.4193 22.5258C60.4815 22.4958 60.5418 22.4668 60.5983 22.4402C60.8121 22.3396 61.0036 22.2587 61.1808 22.212C61.3567 22.1656 61.4887 22.1613 61.5916 22.1861C61.6844 22.2085 61.7923 22.2633 61.9118 22.4117C62.0335 22.5629 62.0456 22.6566 62.0437 22.7094C62.0413 22.7758 62.0124 22.8687 61.9204 23.0064C61.8265 23.147 61.6995 23.2881 61.542 23.4629L61.5376 23.4677C61.3936 23.6276 61.2173 23.8232 61.0858 24.0325L61.0835 24.0363C60.555 24.8947 59.9981 25.7331 59.436 26.5793C59.1673 26.9838 58.8975 27.39 58.629 27.801C57.8048 29.0628 57.0044 30.3541 56.342 31.7126L56.3417 31.7131C54.2379 36.0404 53.938 40.7164 54.459 45.4114L54.4589 45.4114L54.4595 45.416C55.2629 52.0903 57.2987 58.5675 60.465 64.5238C61.8232 67.1745 63.2349 69.8041 64.6465 72.4296L64.7871 72.6912C66.1531 75.2318 67.5173 77.769 68.8354 80.3255Z" fill="#FCA7B5" stroke="white"/>
<path d="M106.551 110.442C107.488 110.509 108.412 110.597 109.329 110.683C111.28 110.868 113.198 111.05 115.135 111.022L115.135 111.022C120.502 110.946 125.092 108.757 129.105 105.284L129.108 105.282C129.512 104.937 129.882 104.59 130.097 104.219C130.293 103.878 130.347 103.541 130.151 103.139C130.05 102.932 129.933 102.822 129.818 102.758C129.697 102.69 129.543 102.653 129.346 102.648C129.022 102.64 128.686 102.713 128.317 102.794C128.196 102.82 128.071 102.847 127.942 102.872L127.934 102.874L127.926 102.875C126.314 103.139 124.721 103.507 123.158 103.977L123.156 103.978C117.108 105.761 110.934 107.109 104.683 108.011L104.594 108.024L104.505 108.005C104.369 107.975 104.246 107.906 104.172 107.864C104.134 107.843 104.1 107.823 104.065 107.802C104.006 107.769 103.946 107.733 103.862 107.688L102.759 107.084L103.975 106.765C104.167 106.715 104.353 106.665 104.535 106.616C105.018 106.487 105.47 106.366 105.919 106.267L105.922 106.267C106.835 106.073 107.74 105.889 108.641 105.707C110.848 105.26 113.025 104.819 115.199 104.245L115.206 104.243L115.214 104.242C118.2 103.554 121.112 102.591 123.912 101.365C130.503 98.1869 134.743 92.5742 138.453 86.4256C138.703 85.8583 138.894 85.2673 139.024 84.6619C138.876 84.6106 138.748 84.5885 138.635 84.584C138.447 84.5765 138.274 84.617 138.099 84.6938C137.918 84.7731 137.741 84.888 137.543 85.0286C137.501 85.0588 137.456 85.0911 137.41 85.1246C137.256 85.2358 137.084 85.3601 136.915 85.4625C134.895 86.7092 132.881 87.9826 130.865 89.2575C128.017 91.0585 125.164 92.8623 122.284 94.5979L106.551 110.442ZM106.551 110.442C106.103 110.375 105.645 110.448 105.241 110.652L103.985 111.289L105.362 111.587L105.373 111.59L105.384 111.592L105.395 111.594L105.406 111.597L105.416 111.599L105.427 111.602L105.438 111.604L105.449 111.606L105.46 111.609L105.471 111.611L105.481 111.613L105.492 111.616L105.503 111.618L105.514 111.62L105.525 111.623L105.536 111.625L105.546 111.627L105.557 111.63L105.568 111.632L105.579 111.634L105.59 111.637L105.601 111.639L105.612 111.641L105.622 111.644L105.633 111.646L105.644 111.649L105.655 111.651L105.666 111.653L105.677 111.656L105.687 111.658L105.698 111.66L105.709 111.663L105.72 111.665L105.731 111.667L105.742 111.67L105.753 111.672L105.763 111.674L105.774 111.677L105.785 111.679L105.796 111.681L105.807 111.684L105.818 111.686L105.828 111.689L105.839 111.691L105.85 111.693L105.861 111.696L105.872 111.698L105.883 111.7L105.894 111.703L105.904 111.705L105.915 111.707L105.926 111.71L105.937 111.712L105.948 111.714L105.959 111.717L105.969 111.719L105.98 111.721L105.991 111.724L106.002 111.726L106.013 111.728L106.024 111.731L106.035 111.733L106.045 111.736L106.056 111.738L106.067 111.74L106.078 111.743L106.089 111.745L106.1 111.747L106.11 111.75L106.121 111.752L106.132 111.754L106.143 111.757L106.154 111.759L106.165 111.761L106.175 111.764L106.186 111.766L106.197 111.768L106.208 111.771L106.219 111.773L106.23 111.775L106.241 111.778L106.251 111.78L106.262 111.783L106.273 111.785L106.284 111.787L106.295 111.79L106.306 111.792L106.316 111.794L106.327 111.797L106.338 111.799L106.349 111.801L106.36 111.804L106.371 111.806L106.382 111.808L106.392 111.811L106.403 111.813L106.414 111.815L106.425 111.818L106.436 111.82L106.447 111.823L106.457 111.825L106.468 111.827L106.479 111.83L106.49 111.832L106.501 111.834L106.512 111.837L106.522 111.839L106.533 111.841L106.544 111.844L106.555 111.846L106.566 111.848L106.577 111.851L106.588 111.853L106.598 111.855L106.609 111.858L106.62 111.86L106.631 111.862L106.642 111.865L106.653 111.867L106.663 111.87L106.674 111.872L106.685 111.874L106.696 111.877L106.707 111.879L106.718 111.881L106.728 111.884L106.739 111.886L106.75 111.888L106.761 111.891L106.772 111.893L106.783 111.895L106.794 111.898L106.804 111.9L106.815 111.902L106.826 111.905L106.837 111.907L106.848 111.909L106.859 111.912L106.869 111.914L106.88 111.917L106.891 111.919L106.902 111.921L106.913 111.924L106.924 111.926L106.934 111.928L106.945 111.931L106.956 111.933L106.967 111.935L106.978 111.938L106.989 111.94L107 111.942L107.01 111.945L107.021 111.947L107.032 111.949L107.043 111.952L107.054 111.954L107.065 111.956L107.075 111.959L107.086 111.961L107.097 111.964L107.108 111.966L107.119 111.968L107.13 111.971L107.14 111.973L107.151 111.975L107.162 111.978L107.173 111.98L107.184 111.982L107.195 111.985L107.205 111.987L107.216 111.989L107.227 111.992L107.238 111.994L107.249 111.996L107.26 111.999L107.27 112.001L107.281 112.003L107.292 112.006L107.303 112.008L107.314 112.011L107.325 112.013L107.336 112.015L107.346 112.018L107.357 112.02L107.368 112.022L107.379 112.025L107.39 112.027L107.401 112.029L107.411 112.032L107.422 112.034L107.433 112.036L107.444 112.039L107.455 112.041L107.466 112.043L107.476 112.046L107.487 112.048L107.498 112.05L107.509 112.053L107.52 112.055L107.531 112.058L107.541 112.06L107.552 112.062L107.563 112.065L107.574 112.067L107.585 112.069L107.596 112.072L107.606 112.074L107.617 112.076L107.628 112.079L107.639 112.081L107.65 112.083L107.661 112.086L107.671 112.088L107.682 112.09L107.693 112.093L107.704 112.095L107.715 112.097L107.726 112.1L107.736 112.102L107.747 112.104L107.758 112.107L107.769 112.109L107.78 112.112L107.791 112.114L107.801 112.116L107.812 112.119L107.823 112.121L107.834 112.123L107.845 112.126L107.856 112.128L107.866 112.13L107.877 112.133L107.888 112.135L107.899 112.137L107.91 112.14L107.921 112.142L107.931 112.144L107.942 112.147L107.953 112.149L107.964 112.151L107.975 112.154L107.986 112.156L107.996 112.159L108.007 112.161L108.018 112.163L108.029 112.166L108.04 112.168L108.051 112.17L108.061 112.173L108.072 112.175L108.083 112.177L108.094 112.18L108.105 112.182L108.116 112.184L108.126 112.187L108.137 112.189L108.148 112.191L108.159 112.194L108.17 112.196L108.181 112.198L108.191 112.201L108.202 112.203L108.213 112.205L108.224 112.208L108.235 112.21L108.246 112.213L108.256 112.215L108.267 112.217L108.278 112.22L108.289 112.222L108.3 112.224L108.311 112.227L108.321 112.229L108.332 112.231L108.343 112.234L108.354 112.236L108.365 112.238L108.376 112.241L108.386 112.243L108.397 112.245L108.408 112.248L108.419 112.25L108.43 112.252L108.441 112.255L108.451 112.257L108.462 112.259L108.473 112.262L108.484 112.264L108.495 112.267L108.506 112.269L108.516 112.271L108.527 112.274L108.538 112.276L108.549 112.278L108.56 112.281L108.57 112.283L108.581 112.285L108.592 112.288L108.603 112.29L108.614 112.292L108.625 112.295L108.635 112.297L108.646 112.299L108.657 112.302L108.668 112.304L108.679 112.306L108.69 112.309L108.7 112.311L108.711 112.313L108.722 112.316L108.733 112.318L108.744 112.32L108.754 112.323L108.765 112.325L108.776 112.328L108.787 112.33L108.798 112.332L108.809 112.335L108.819 112.337L108.83 112.339L108.841 112.342L108.852 112.344L108.863 112.346L108.874 112.349L108.884 112.351L108.895 112.353L108.906 112.356L108.917 112.358L108.928 112.36L108.938 112.363L108.949 112.365L108.96 112.367L108.971 112.37L108.982 112.372L108.993 112.374L109.003 112.377L109.014 112.379L109.025 112.382L109.036 112.384L109.047 112.386L109.058 112.389L109.068 112.391L109.079 112.393L109.09 112.396L109.101 112.398L109.112 112.4L109.122 112.403L109.133 112.405L109.144 112.407L109.155 112.41L109.166 112.412L109.177 112.414L109.187 112.417L109.198 112.419L109.209 112.421L109.22 112.424L109.231 112.426L109.241 112.428L109.252 112.431L109.263 112.433L109.274 112.435L109.285 112.438L109.296 112.44L109.306 112.442L109.317 112.445L109.328 112.447L109.339 112.45L109.35 112.452L109.36 112.454L109.371 112.457L109.382 112.459L109.393 112.461L109.404 112.464L109.415 112.466L109.425 112.468L109.436 112.471L109.447 112.473L109.458 112.475L109.469 112.478L109.479 112.48L109.49 112.482L109.501 112.485L109.512 112.487L109.523 112.489L109.533 112.492L109.544 112.494L109.555 112.496L109.566 112.499L109.577 112.501L109.588 112.503L109.598 112.506L109.609 112.508L109.62 112.51L109.631 112.513L109.642 112.515L109.652 112.518L109.663 112.52L109.674 112.522L109.685 112.525L109.696 112.527L109.706 112.529L109.717 112.532L109.728 112.534L109.739 112.536L109.75 112.539L109.761 112.541L109.771 112.543L109.782 112.546L109.793 112.548L109.804 112.55L109.815 112.553L109.825 112.555L109.836 112.557L109.847 112.56L109.858 112.562L109.869 112.564L109.879 112.567L109.89 112.569L109.901 112.571L109.912 112.574L109.923 112.576L109.933 112.578L109.944 112.581L109.955 112.583L109.966 112.585L109.977 112.588L109.988 112.59L109.998 112.592L110.009 112.595L110.02 112.597L110.031 112.6L110.042 112.602L110.052 112.604L110.063 112.607L110.074 112.609L110.085 112.611L110.096 112.614L110.106 112.616L110.117 112.618L110.128 112.621L110.139 112.623L110.15 112.625L110.16 112.628L110.171 112.63L110.182 112.632L110.193 112.635L110.204 112.637L110.214 112.639L110.225 112.642L110.236 112.644L110.247 112.646L110.258 112.649L110.268 112.651L110.279 112.653L110.29 112.656L110.301 112.658L110.312 112.66L110.322 112.663L110.333 112.665L110.344 112.667L110.355 112.67L110.366 112.672L110.376 112.674L110.387 112.677L110.398 112.679L110.409 112.681L110.42 112.684L110.43 112.686L110.441 112.689L110.452 112.691L110.463 112.693L110.474 112.696L110.484 112.698L110.495 112.7L110.506 112.703L110.517 112.705L110.528 112.707L110.538 112.71L110.549 112.712L110.56 112.714L110.571 112.717L110.582 112.719L110.592 112.721L110.603 112.724L110.614 112.726L110.625 112.728L110.636 112.731L110.646 112.733L110.657 112.735L110.668 112.738L110.679 112.74L110.69 112.742L110.7 112.745L110.711 112.747L110.722 112.749L110.733 112.752L110.744 112.754L110.754 112.756L110.765 112.759L110.776 112.761L110.787 112.763L110.797 112.766L110.808 112.768L110.819 112.77L110.83 112.773L110.841 112.775L110.851 112.777L110.862 112.78L110.873 112.782L110.884 112.784L110.895 112.787L110.905 112.789L110.905 112.789L110.918 112.792C111.923 112.982 112.924 113.153 113.924 113.323C115.468 113.586 117.009 113.848 118.553 114.183C119.479 114.388 119.837 114.78 119.917 115.095C119.997 115.414 119.866 115.934 119.171 116.562C117.028 118.338 114.355 119.383 111.549 119.54L111.539 119.541L111.53 119.541C106.761 119.989 101.942 119.457 97.3774 117.979L97.3775 117.979L97.3692 117.976C96.4539 117.697 95.53 117.427 94.5378 117.137C94.2027 117.039 93.8597 116.939 93.5066 116.835L92.9092 116.66L92.8675 117.281C92.8426 117.653 92.8247 117.978 92.8083 118.277C92.7821 118.753 92.7597 119.16 92.7189 119.573L92.7187 119.574C92.5322 121.536 91.5997 122.902 90.3388 123.561C89.0765 124.222 87.3945 124.223 85.6159 123.268C83.9518 122.373 82.5105 121.122 81.3982 119.609C80.2859 118.095 79.531 116.357 79.1888 114.523L79.1883 114.521C78.5921 111.422 78.6531 108.239 79.3672 105.175L79.3694 105.165L79.3713 105.155C81.1217 96.0426 86.1333 89.1049 93.5572 83.6172L93.5598 83.6152C97.6135 80.5777 101.63 77.5311 105.572 74.4676C111.487 69.9975 116.392 64.3586 119.974 57.9066L119.975 57.9045C123.022 52.353 123.91 45.8829 122.475 39.7016L121.759 36.3494L121.758 36.346C121.683 36.0069 121.648 35.7944 121.685 35.6198C121.705 35.5236 121.756 35.4007 121.947 35.2666C123.358 35.8752 124.25 37.1371 125.08 38.6041C126.844 41.8967 127.674 45.5917 127.484 49.2971L127.483 49.3089L127.483 49.3207C127.453 56.5697 124.65 63.5209 119.633 68.783L119.627 68.7888L119.622 68.7949C114.493 74.5364 108.586 79.5523 102.065 83.7027L102.054 83.7094L102.044 83.7167C101.599 84.0325 101.174 84.3752 100.772 84.7428C100.448 84.8532 100.133 84.988 99.8291 85.1461L99.8106 85.1557L99.7929 85.1669C94.2838 88.6503 90.9247 93.9055 87.8799 99.2617L87.8576 99.3008L87.8428 99.3432C87.6403 99.9203 87.5109 100.52 87.4574 101.13L87.3311 102.569L88.3198 101.517C88.5391 101.283 88.7425 101.035 88.9284 100.775L88.9453 100.751L88.9593 100.726C92.0984 95.0287 95.7049 89.78 101.223 86.1717L101.258 86.1487L101.289 86.1201C101.397 86.0203 101.49 85.9069 101.568 85.7829C102.279 85.3808 102.991 84.9801 103.704 84.5791C111.085 80.4285 118.537 76.2381 124.624 70.0739C129.911 64.7288 133.321 58.5047 133.552 50.8L133.553 50.782L133.552 50.764C133.525 50.1098 133.587 49.4557 133.739 48.8197C133.812 48.6452 133.919 48.4861 134.054 48.3514C134.174 48.2312 134.316 48.1325 134.471 48.0597C134.52 48.0796 134.589 48.1185 134.671 48.1795C134.839 48.3048 134.991 48.4708 135.068 48.5928C135.392 49.1692 135.626 49.7902 135.761 50.4344L135.761 50.4345L135.763 50.4423C136.74 54.7622 136.322 59.2656 134.567 63.3185L134.567 63.3184L134.564 63.3261C130.876 72.242 124.47 78.6393 116.174 83.5286L116.174 83.5288C110.344 86.9706 104.627 90.5776 99.024 94.3498L99.0238 94.3499C97.2612 95.5377 95.7084 97.0551 94.1944 98.5346C93.5959 99.1195 93.0034 99.6984 92.4065 100.249L92.3847 100.269L92.3655 100.291C92.0086 100.709 91.6925 101.158 91.4217 101.635L90.7604 102.799L92.0227 102.354C92.2062 102.29 92.3429 102.25 92.4627 102.216C92.5016 102.205 92.5387 102.194 92.5751 102.183L92.5858 102.18C92.7014 102.145 92.9127 102.082 93.0673 101.912L93.0722 101.907L93.0769 101.902C97.1936 97.1058 102.496 93.8419 108.1 90.8461C108.954 90.3915 109.81 89.938 110.666 89.4843C115.214 87.0747 119.775 84.658 124.199 82.0244L123.943 81.5946L124.199 82.0244C129.064 79.128 133.577 75.6131 136.602 70.6145C137.287 69.4831 137.862 68.2442 138.418 67.0438C138.708 66.4171 138.994 65.8009 139.288 65.2159L139.289 65.2138C139.343 65.1056 139.395 64.9946 139.444 64.8892L139.456 64.8644C139.509 64.7496 139.561 64.6409 139.614 64.5361C139.721 64.3244 139.824 64.1518 139.937 64.0186C140.047 63.8896 140.159 63.8073 140.285 63.7618C140.41 63.7165 140.587 63.6939 140.85 63.745C141.109 63.7955 141.263 63.8838 141.36 63.9743C141.459 64.0655 141.531 64.1872 141.583 64.3524C141.677 64.6566 141.68 65.012 141.684 65.4351C141.684 65.522 141.685 65.6118 141.687 65.7045L141.687 65.7061C141.769 69.7736 140.681 73.7724 138.549 77.239L138.549 77.239L138.545 77.2457C134.963 83.2782 129.83 87.7188 123.921 91.4959L123.92 91.4966C117.794 95.4354 111.113 98.1714 104.35 100.898C102.174 101.768 99.9949 102.657 97.8173 103.545L97.816 103.545L97.371 103.727L97.5352 104.179L97.6973 104.625L97.867 105.092L98.3349 104.926C98.7498 104.778 99.1773 104.635 99.6095 104.49C100.44 104.211 101.288 103.927 102.099 103.595C103.393 103.076 104.693 102.567 105.995 102.059C111.554 99.8857 117.13 97.7063 122.284 94.598L106.551 110.442ZM134.433 48.0474C134.433 48.0473 134.434 48.0474 134.436 48.0478C134.434 48.0476 134.433 48.0474 134.433 48.0474Z" fill="#FCA7B5" stroke="white"/>
<ellipse cx="29" cy="27" rx="29" ry="27" transform="matrix(0.858722 0.512442 -0.513535 0.858069 68.7002 62.75)" fill="#FCA7B5"/>
<path d="M106.696 120.611C106.228 121.393 105.467 121.957 104.58 122.178C103.693 122.4 102.754 122.26 101.968 121.791C101.182 121.322 100.614 120.562 100.389 119.677C100.164 118.792 100.301 117.856 100.769 117.074C104.427 110.945 105.493 103.612 103.733 96.684C101.972 89.7561 97.5293 83.7985 91.3785 80.1184C85.8746 76.8419 79.2984 75.8718 73.0928 77.4209C66.8872 78.9701 61.5591 82.912 58.2776 88.3818C55.398 93.2067 54.5591 98.9792 55.9449 104.433C57.3307 109.887 60.8282 114.577 65.67 117.474C69.8635 119.971 74.8739 120.71 79.602 119.529C84.33 118.349 88.3895 115.346 90.8897 111.178C92.9915 107.658 93.604 103.445 92.5927 99.465C91.5813 95.4851 89.0289 92.0627 85.4953 89.9487C82.6122 88.2326 79.1676 87.7246 75.9171 88.5361C72.6667 89.3475 69.8758 91.4122 68.1567 94.2771C66.8305 96.4932 66.4432 99.1465 67.0802 101.653C67.7172 104.16 69.3262 106.315 71.5532 107.644C73.1253 108.582 75.0049 108.86 76.7785 108.418C78.5521 107.975 80.0744 106.847 81.0106 105.283C81.5568 104.37 81.7162 103.278 81.4539 102.246C81.1916 101.214 80.5291 100.326 79.6121 99.779C79.3506 99.6235 79.0383 99.5775 78.7435 99.6509C79.178 100.301 79.3781 101.079 79.3109 101.856C79.2438 102.634 78.9133 103.364 78.3739 103.928C77.8345 104.492 77.1182 104.855 76.3427 104.959C75.5671 105.063 74.7785 104.9 74.1063 104.498C72.7963 103.716 71.8498 102.449 71.4751 100.974C71.1004 99.4996 71.3282 97.9388 72.1084 96.6353C73.2006 94.8103 74.9767 93.4948 77.0459 92.9782C79.1151 92.4617 81.3079 92.7863 83.142 93.8808C84.3745 94.6163 85.4503 95.5861 86.3081 96.7349C87.1659 97.8837 87.7888 99.189 88.1413 100.576C88.4938 101.964 88.569 103.406 88.3625 104.82C88.1561 106.235 87.6721 107.594 86.9381 108.82C85.063 111.946 82.0184 114.198 78.4723 115.084C74.9263 115.969 71.1684 115.415 68.0233 113.542C64.2283 111.271 61.4871 107.595 60.4009 103.321C59.3147 99.046 59.9722 94.5216 62.2293 90.7399C64.8856 86.3119 69.1988 83.1206 74.2224 81.8665C79.246 80.6124 84.5697 81.3979 89.0252 84.0505C94.1291 87.1042 97.8158 92.0477 99.2766 97.7964C100.737 103.545 99.8529 109.63 96.8172 114.716C93.3791 120.445 87.7974 124.575 81.2964 126.198C74.7954 127.821 67.9062 126.805 62.1401 123.372C55.7274 119.536 51.0952 113.325 49.2598 106.102C47.4245 98.8791 48.5359 91.2342 52.3502 84.8446C56.5695 77.8123 63.4199 72.7443 71.3984 70.7526C79.3769 68.7608 87.8319 70.0079 94.9084 74.2202C102.63 78.8396 108.208 86.3182 110.418 95.0152C112.628 103.712 111.289 112.917 106.696 120.611Z" fill="white"/>
</svg>
