<svg width="124" height="124" viewBox="0 0 124 124" fill="none" xmlns="http://www.w3.org/2000/svg">
	<path d="M52.5272 64.1292C48.2574 61.6812 43.892 59.3813 39.6369 56.9276C34.8144 54.2429 30.5221 50.6916 26.9747 46.4512C24.5154 43.4562 22.6453 40.1392 22.1292 36.2811C21.806 33.8433 21.968 31.3203 21.8809 28.8338C21.8635 28.1742 22.3272 27.2429 21.4214 26.9443C20.5156 26.6456 20.1602 27.6374 19.7674 28.2252C18.3562 30.4458 17.6818 33.06 17.8405 35.6942C18.065 42.8603 20.6464 49.003 26.1095 53.7656C31.2567 58.2831 36.8884 62.186 43.2702 64.7562C48.5049 66.865 52.5437 70.3848 56.0482 74.6753C56.5554 75.3591 57.0261 76.0696 57.4582 76.8035C57.2938 76.7969 57.1332 76.7512 56.9895 76.6701C56.8459 76.5891 56.7233 76.475 56.632 76.3373C52.7582 71.2244 48.158 67.1103 41.9954 64.8652C37.1765 63.2008 32.5149 61.1052 28.0669 58.6036C21.0442 54.4874 15.6266 49.1177 14.1315 40.6665C13.9843 39.8692 13.9003 38.7741 12.8082 38.8721C11.716 38.9702 11.759 40.0471 11.6852 40.8445C11.2985 44.2849 12 47.7642 13.6906 50.7897C17.2616 57.0962 22.193 62.0218 28.8965 65.0058C34.3208 67.3999 39.7463 69.7822 45.1728 72.1527C47.9593 73.318 50.5661 74.8782 52.9138 76.7854C53.3668 77.1654 53.7631 77.6185 54.1688 78.0083C53.7738 78.0191 53.3875 77.8865 53.0811 77.6348C51.0993 76.3344 49.2378 74.7739 47.1071 73.8132C43.0525 71.9653 38.8798 70.4707 34.7239 68.9098C30.2777 67.2135 25.7577 65.8533 21.577 63.4819C17.71 61.2624 14.2889 58.6141 12.0643 54.6227C11.7707 54.1089 11.4317 53.6226 11.0515 53.1695C10.6744 52.7003 10.2605 52.2454 9.55882 52.4743C8.85717 52.7031 8.71199 53.4257 8.77207 54.0859C8.95355 56.3374 9.59366 58.5293 10.6527 60.5255C13.0876 64.7814 16.5869 68.3278 20.803 70.8123C25.6564 73.754 30.916 75.9564 36.4091 77.3472C40.2077 78.38 44.1093 79.262 47.9542 80.2171C48.5389 80.3667 49.1101 80.5471 49.6829 80.7098C49.5617 80.8076 49.4196 80.876 49.2676 80.9096C49.1156 80.9433 48.9577 80.9413 48.8064 80.9039C39.6696 79.0753 30.6871 76.8111 22.2375 72.6747C19.8378 71.5019 17.3749 70.4732 14.9165 69.4342C14.5732 69.2937 14.097 69.5122 13.6458 69.5758C13.6317 69.9675 13.6935 70.3584 13.8279 70.727C14.2054 71.401 14.6689 72.0229 15.2066 72.5768C16.9602 74.3414 18.6883 76.1499 20.6098 77.7555C24.1521 80.893 28.6069 82.7983 33.3076 83.1864C35.93 83.376 38.4872 83.6164 41.0801 83.8174C42.1235 83.9005 43.1672 83.9408 44.2093 83.9988C44.2126 84.1171 44.2085 84.2383 44.2089 84.3492C43.1767 84.3386 42.147 84.3784 41.1213 84.2969C37.2892 84.0117 33.4678 83.6882 29.6345 83.3779C28.1703 83.2612 26.7037 83.0941 25.2522 83.0323C24.5206 83.0079 23.5466 82.9065 23.2643 83.8017C22.982 84.6969 23.8395 85.2876 24.4382 85.8248C24.5259 85.9017 24.6228 85.9675 24.7265 86.0207C28.5381 88.3385 32.6171 89.6131 37.0842 88.9264C39.6355 88.5369 42.1382 87.8245 44.6747 87.287L44.8131 87.447C43.8894 87.8046 42.9656 88.1621 42.0419 88.5196C39.5835 89.3686 37.121 90.185 34.6699 91.0312C34.0048 91.2886 33.2428 91.5152 33.1818 92.3675C33.1726 92.7583 33.2898 93.1421 33.516 93.4612C33.7421 93.7803 34.065 94.0175 34.4361 94.1373C35.1704 94.5207 35.9379 94.8356 36.7291 95.078C38.8571 95.6314 41.078 95.7135 43.2373 95.3184C46.6284 94.7852 49.9062 93.6926 52.9384 92.0848C53.6372 91.6947 54.3819 91.4236 55.2588 91.0329C55.4655 91.9183 55.5975 92.6104 55.7943 93.2946C55.9087 93.8354 56.1372 94.3458 56.4646 94.7912C56.7919 95.2365 57.2103 95.6065 57.6916 95.8762C58.173 96.1458 58.7059 96.3088 59.2546 96.3541C59.8032 96.3995 60.3547 96.3261 60.8718 96.139C62.2922 95.681 63.5174 94.7587 64.3526 93.5189C66.7272 90.4555 67.1194 86.9464 66.4917 83.2169C65.9017 79.6949 64.2772 76.5733 62.534 73.5404C60.1031 69.5565 56.6451 66.3042 52.5272 64.1292Z" fill="white" />
	<path d="M102.964 35.0827C101.665 35.1843 101.59 36.1776 101.263 36.8755C99.2964 41.1942 97.4426 45.563 95.4317 49.8561C92.8527 55.3672 89.2038 60.1834 85.7784 65.2031C85.1724 66.1031 84.4755 66.9444 83.8255 67.8187L83.5122 67.5817C84.5952 65.9767 85.6782 64.3717 86.7669 62.7816C90.1399 57.8248 93.4775 52.8646 95.8858 47.3087C98.2165 41.9705 99.7251 36.4898 99.4244 30.5832C99.3015 27.1264 98.2022 23.7746 96.2538 20.9163C95.7962 20.2403 95.3261 19.3559 94.2972 19.7797C93.2683 20.2035 93.549 21.1271 93.6509 21.9407C93.8473 23.5709 94.1984 25.2266 94.2676 26.8804C94.4701 31.6306 93.0188 36.0484 91.0282 40.2398C88.8684 44.7867 86.4384 49.2079 84.0598 53.6518C81.5921 58.2838 79.426 63.0123 78.7859 68.2934C78.7668 68.4202 78.621 68.5278 78.3515 68.8881C78.3216 68.4602 78.3322 68.0305 78.383 67.6047C78.9517 65.2434 79.2896 62.7921 80.1993 60.5632C82.3056 55.4085 84.5642 50.3172 86.9752 45.2891C90.4435 38.0688 91.9335 30.6246 90.3785 22.6443C89.7195 18.9429 87.917 15.5408 85.2249 12.9173C84.8081 12.498 84.3296 12.1452 83.806 11.8712C83.4815 11.7152 82.8639 11.6386 82.6846 11.836C82.5571 12.0199 82.4686 12.228 82.4246 12.4475C82.3806 12.667 82.382 12.8933 82.4288 13.1123C82.6285 13.6703 82.9044 14.1979 83.2487 14.6803C86.522 20.0335 87.0221 25.7946 85.8573 31.8333C84.3793 39.5287 80.7016 46.3182 77.2473 53.2003C77.2622 53.3166 77.2559 53.4347 77.2288 53.5487C75.063 58.6525 74.9932 64.02 75.441 69.4259C75.433 69.6727 75.4087 69.9187 75.3681 70.1622C75.1441 69.7447 74.9725 69.3011 74.8569 68.8415C74.5017 63.741 74.4165 58.6553 76.5482 53.8377C76.6871 53.5837 76.8472 53.342 77.0268 53.115C77.1333 52.6645 77.2692 52.2214 77.4338 51.7888C80.0125 45.9134 81.7749 39.7116 82.6719 33.3562C83.7227 27.3193 82.4561 21.106 79.1258 15.9604C77.5333 13.2294 75.2318 10.9805 72.4658 9.45253C71.1625 8.77114 69.8048 8.21321 68.3414 8.54925C67.9336 9.27869 68.3146 9.66868 68.7001 10.0484L70.7137 12.0587C74.4291 15.6379 76.7175 20.4469 77.1517 25.5882C77.6337 31.6423 76.8562 37.7296 74.8685 43.4657C73.5716 47.3801 72.2155 51.3174 70.8297 55.2662C68.2288 62.5261 67.9502 69.7318 70.9418 76.9769C71.8669 79.4872 73.3021 81.7785 75.1567 83.706C76.2664 84.872 77.6234 85.7739 79.1275 86.3449C80.6317 86.916 82.2445 87.1416 83.8469 87.0053C87.36 86.7034 88.973 83.716 87.3372 80.6125C87.0741 80.1087 86.7738 79.6192 86.3915 78.9396C87.5347 78.591 88.5388 78.2792 89.5412 77.985C93.3807 76.9309 96.96 75.0924 100.054 72.5854C101.969 71.1511 103.371 69.1367 104.051 66.8411C104.465 65.2047 103.577 64.3627 102.003 64.9634C100.017 65.7321 98.0885 66.6492 96.1521 67.4583C94.7144 68.0148 93.2694 68.5741 91.8243 69.1334C91.9671 68.879 92.1875 68.6771 92.4533 68.5572C94.516 67.392 96.6715 66.3786 98.618 65.0451C102.343 62.4944 104.526 58.8001 105.706 54.4959C105.942 53.6537 106.169 52.6104 105.257 52.0591C104.345 51.5079 103.68 52.388 103.132 52.9326C102.139 53.8588 101.207 54.8493 100.343 55.8975C97.0394 59.8624 93.4531 63.5827 89.6124 67.0292C89.5309 67.0608 89.3922 67.0547 89.144 67.074C89.5474 66.6193 89.8809 66.2258 90.2331 65.8591C92.063 63.9821 93.9272 62.1942 95.6575 60.2363C97.4018 58.3848 98.9683 56.3733 100.336 54.2281C103.461 48.9154 103.795 42.9764 103.531 36.9875C103.421 36.3318 103.23 35.692 102.964 35.0827Z" fill="white" />
	<ellipse cx="68.5866" cy="79.2235" rx="28" ry="27" transform="rotate(-21.1586 68.5866 79.2235)" fill="#FCA7B5" />
	<path d="M96.9835 69.4789C99.7113 76.5121 99.7083 84.3086 96.975 91.32C96.4697 92.6194 94.5139 92.0891 94.7525 90.7156C95.6211 85.7357 95.1112 80.607 93.2785 75.888C91.0514 70.155 86.6537 65.5347 81.0499 63.0402C75.4461 60.5458 69.0938 60.381 63.386 62.5819C58.8238 64.3534 55.1544 67.8722 53.1829 72.3661C51.2113 76.86 51.0988 81.962 52.8699 86.5528C54.2055 89.993 56.844 92.7658 60.2065 94.2625C63.569 95.7593 67.3808 95.8578 70.8053 94.5364C73.0882 93.6529 74.9247 91.8937 75.9108 89.646C76.8968 87.3983 76.9518 84.8462 76.0634 82.551C76.0389 82.4755 76.0103 82.4015 75.9776 82.3292C75.5062 81.2721 74.6589 80.4286 73.602 79.9644C72.5451 79.5001 71.3549 79.4486 70.2652 79.82C69.6817 80.0073 69.1938 80.4141 68.9035 80.9553C68.6132 81.4965 68.543 82.1302 68.7076 82.7239C68.8005 83.0299 68.9553 83.3136 69.1624 83.5572C69.3695 83.8007 69.6244 83.9988 69.911 84.139C70.1976 84.2792 70.5098 84.3585 70.8279 84.3718C71.1461 84.3852 71.4633 84.3324 71.7597 84.2167C72.2038 85.3643 72.1764 86.6404 71.6833 87.7642C71.1903 88.8881 70.272 89.7677 69.1306 90.2095C66.8478 91.093 64.3055 91.0286 62.0631 90.0305C59.8208 89.0323 58.062 87.1822 57.1736 84.887C55.8451 81.444 55.9294 77.6174 57.4081 74.2469C58.8867 70.8764 61.6389 68.2374 65.0608 66.9089C69.6269 65.1473 74.7091 65.2788 79.1924 67.2744C83.6756 69.2701 87.1937 72.9669 88.9747 77.5538C91.1876 83.2922 91.0464 89.6694 88.5821 95.2865C86.1179 100.904 81.5317 105.302 75.8295 107.517C55.8816 115.238 43.7006 98.6372 40.7404 90.3736C35.3388 75.2191 42.8629 58.3485 57.6956 52.3464C61.3835 50.8585 65.3318 50.1219 69.3111 50.1793C73.2905 50.2367 77.2217 51.0869 80.8767 52.6808C84.5317 54.2746 87.8375 56.5802 90.6025 59.4639C93.3675 62.3475 95.5364 65.7517 96.9835 69.4789Z" fill="white" />
</svg>
