<svg width="165" height="165" viewBox="0 0 165 165" fill="none" xmlns="http://www.w3.org/2000/svg">
	<path d="M72.9795 74.1635C71.8335 68.0795 70.4673 62.0239 69.3388 55.9494C67.9676 49.143 67.861 42.1422 69.0245 35.2971C69.8843 30.5069 71.5347 26.0208 74.8117 22.395C76.8846 20.1069 79.4364 18.2152 81.7491 16.114C82.3674 15.5622 83.6397 15.2516 83.185 14.14C82.7303 13.0283 81.4886 13.492 80.6037 13.5919C77.32 14.0395 74.2617 15.5134 71.8657 17.803C65.1784 23.833 61.4005 31.2945 61.3035 40.4017C61.1831 49.0069 62.0483 57.5783 64.805 65.7884C67.0657 72.523 66.9951 79.255 65.7483 86.0995C65.5076 87.1412 65.2115 88.1693 64.8613 89.1795C64.7332 89.0163 64.6455 88.8251 64.6057 88.6215C64.5659 88.4178 64.5751 88.2077 64.6324 88.0083C66.3655 80.1421 66.5466 72.3892 63.6575 64.6534C61.3109 58.6783 59.5065 52.5042 58.2662 46.2058C56.4675 36.1262 57.1837 26.5701 64.0637 18.2781C64.7079 17.4899 65.6892 16.5207 64.7017 15.5521C63.7141 14.5836 62.7167 15.4986 61.8918 16.0748C58.2766 18.4951 55.5145 21.9915 53.9968 26.0688C50.8715 34.6129 50.1831 43.3421 52.8062 52.1966C54.9485 59.3448 57.103 66.4845 59.2697 73.6157C60.432 77.2354 61.0688 81.0031 61.1608 84.8036C61.167 85.5466 61.0568 86.2947 61.015 87.0003C60.6814 86.6299 60.4926 86.1517 60.4833 85.6533C60.1087 82.6963 60.082 79.6437 59.26 76.8193C57.7147 71.4288 55.734 66.2116 53.8306 60.9568C51.8195 55.3134 49.4258 49.872 48.2792 43.9357C47.2437 38.4237 46.984 32.9916 48.991 27.6181C49.2435 26.9195 49.4325 26.1995 49.5558 25.467C49.6972 24.7245 49.7947 23.9581 49.0012 23.4704C48.2078 22.9828 47.3962 23.4297 46.8124 24.023C44.802 26.0241 43.2241 28.4169 42.1765 31.0529C40.0878 36.8429 39.5504 43.0786 40.6174 49.1407C41.7675 56.1854 43.9588 63.0199 47.1193 69.4201C49.2367 73.9036 51.583 78.3635 53.8129 82.8284C54.1478 83.5109 54.4421 84.2055 54.7547 84.8872C54.5618 84.8502 54.38 84.7693 54.2233 84.6507C54.0667 84.5321 53.9395 84.3791 53.8515 84.2034C48.1298 73.9512 42.9521 63.4937 40.0054 52.0285C39.1666 48.774 38.1379 45.5757 37.1229 42.3733C36.9768 41.9299 36.3776 41.6501 35.9475 41.2687C35.5604 41.573 35.2362 41.9496 34.9928 42.3775C34.6553 43.2867 34.4383 44.2361 34.3471 45.2016C34.0898 48.3163 33.7695 51.4422 33.8021 54.589C33.6918 60.5342 35.5095 66.3553 38.9831 71.1815C40.9468 73.852 42.8084 76.5012 44.737 79.1527C45.5108 80.2214 46.3261 81.2557 47.1231 82.3028C47.0123 82.402 46.8928 82.4964 46.7868 82.5868C45.9525 81.5876 45.0719 80.6317 44.3109 79.5813C41.4492 75.6723 38.633 71.7424 35.7945 67.8118C34.7086 66.3119 33.6688 64.7689 32.5407 63.3258C31.9654 62.6038 31.2659 61.5868 30.1766 62.0423C29.0873 62.4977 29.2224 63.8 29.1972 64.8104C29.1952 64.957 29.2113 65.1034 29.2451 65.246C30.1411 70.7846 32.2562 75.7334 36.5692 79.4632C39.0299 81.5956 41.7605 83.4195 44.351 85.4176L44.3108 85.6803C43.2123 85.0839 42.1138 84.4874 41.0152 83.891C38.1899 82.2206 35.3925 80.5198 32.5759 78.8541C31.785 78.4247 30.9443 77.8772 30.0772 78.5102C29.6949 78.8185 29.4229 79.2424 29.3019 79.7184C29.181 80.1943 29.2177 80.6967 29.4064 81.15C29.6396 82.1657 29.9656 83.1578 30.3803 84.1138C31.5907 86.6051 33.329 88.803 35.4744 90.5548C38.7599 93.3765 42.4892 95.6357 46.5115 97.2411C47.4572 97.5951 48.3265 98.0898 49.4185 98.6144C48.7387 99.5312 48.183 100.219 47.688 100.963C47.263 101.512 46.9606 102.145 46.8014 102.821C46.6422 103.496 46.6297 104.198 46.765 104.879C46.9002 105.56 47.18 106.203 47.5854 106.767C47.9907 107.33 48.5123 107.8 49.1147 108.144C50.7159 109.136 52.6026 109.563 54.4747 109.359C59.3546 109.152 63.0401 106.681 66.1024 103.053C68.9968 99.6287 70.6607 95.5368 72.1426 91.403C73.9738 85.8376 74.263 79.8801 72.9795 74.1635Z" fill="white" />
	<path d="M141.811 98.7656C140.655 97.6035 139.642 98.3389 138.707 98.5937C132.965 100.221 127.266 101.998 121.513 103.562C114.129 105.573 106.539 105.992 98.9366 106.792C97.5801 106.943 96.2058 106.959 94.8381 107.047L94.81 106.554C97.2309 106.286 99.6517 106.019 102.063 105.769C109.563 104.971 117.037 104.136 124.325 101.925C131.34 99.8173 137.823 96.8053 143.239 91.7125C146.452 88.7828 148.769 85.0023 149.921 80.8095C150.196 79.8209 150.661 78.6508 149.416 78.0092C148.171 77.3676 147.515 78.388 146.818 79.1475C145.415 80.6619 144.115 82.3452 142.586 83.7568C138.198 87.8149 132.781 90.0171 127.141 91.5182C121.023 93.1464 114.805 94.4132 108.608 95.7477C102.157 97.1499 95.8596 98.9196 90.2763 102.602C90.1391 102.687 89.9172 102.634 89.3522 102.669C89.7379 102.292 90.1584 101.953 90.608 101.655C93.3348 100.28 95.9596 98.6098 98.8373 97.6688C105.494 95.495 112.215 93.5188 118.999 91.7401C128.746 89.1918 137.095 84.5649 143.477 76.5827C146.487 72.94 148.279 68.4446 148.6 63.7298C148.662 62.9892 148.611 62.2434 148.447 61.5186C148.332 61.0807 147.902 60.4263 147.566 60.4149C147.286 60.4423 147.015 60.5267 146.768 60.6631C146.522 60.7995 146.306 60.9849 146.135 61.2078C145.763 61.8532 145.482 62.547 145.3 63.2694C142.837 70.7619 137.722 75.9275 130.985 79.7229C122.405 84.5658 112.9 86.5629 103.489 88.8495C103.389 88.9584 103.271 89.0485 103.14 89.1152C96.4829 91.1905 91.2815 95.4897 86.4649 100.316C86.2219 100.509 85.9663 100.686 85.6998 100.845C85.9175 100.291 86.2028 99.7657 86.5491 99.2811C91.1484 94.7916 95.9534 90.573 102.308 88.6978C102.665 88.6243 103.027 88.5812 103.391 88.5688C103.909 88.3044 104.445 88.0743 104.994 87.8801C112.727 85.573 120.107 82.2178 126.929 77.908C133.572 74.0047 138.495 67.7365 140.713 60.3582C142.033 56.61 142.313 52.5743 141.523 48.6797C141.114 46.8761 140.543 45.1206 139.028 43.9911C137.997 44.1934 137.933 44.8759 137.884 45.5544L137.598 49.12C137.195 55.5933 134.45 61.6989 129.876 66.2973C124.466 71.6839 117.998 75.8902 110.881 78.6506C106.072 80.5914 101.193 82.4941 96.2788 84.3776C87.2009 87.7897 80.0674 93.384 75.561 102.145C73.9088 105.074 72.8823 108.314 72.5461 111.66C72.3328 113.672 72.5743 115.707 73.2527 117.613C73.9311 119.52 75.0291 121.249 76.4656 122.674C79.6178 125.797 83.7957 124.913 85.4373 120.82C85.7057 120.158 85.9303 119.472 86.27 118.553C87.5358 119.365 88.6529 120.074 89.7517 120.796C93.891 123.619 98.5699 125.555 103.494 126.482C106.429 127.151 109.502 126.856 112.257 125.641C114.163 124.707 114.247 123.171 112.388 122.151C110.033 120.872 107.582 119.769 105.229 118.571C103.524 117.645 101.81 116.715 100.096 115.785C100.456 115.715 100.83 115.762 101.161 115.919C103.959 116.949 106.687 118.191 109.551 118.972C115.031 120.468 120.351 119.556 125.438 117.186C126.438 116.727 127.623 116.096 127.408 114.773C127.193 113.45 125.808 113.529 124.84 113.447C123.142 113.248 121.434 113.161 119.725 113.185C113.232 113.243 106.744 112.831 100.311 111.952C100.214 111.9 100.107 111.762 99.886 111.54C100.651 111.557 101.299 111.556 101.938 111.596C105.228 111.823 108.461 112.156 111.748 112.222C114.944 112.388 118.148 112.254 121.319 111.82C128.958 110.494 134.922 105.983 140.447 100.858C140.986 100.219 141.444 99.5166 141.811 98.7656Z" fill="white" />
	<path d="M98.3001 122.514C86.3885 134.424 66.1272 133.473 53.0454 120.39C39.9635 107.307 39.0149 87.0455 50.9265 75.1352C62.8382 63.2248 83.0994 64.1757 96.1812 77.2589C109.263 90.3422 110.212 110.604 98.3001 122.514Z" fill="#FCA7B5" />
	<path d="M99.482 127.707C98.7699 128.419 97.8042 128.819 96.7972 128.819C95.7902 128.819 94.8244 128.419 94.1124 127.706C93.4004 126.994 93.0004 126.029 93.0005 125.022C93.0006 124.015 93.4006 123.049 94.1127 122.337C99.6822 116.755 102.81 109.192 102.811 101.306C102.811 93.4211 99.6839 85.8576 94.115 80.2751C89.1272 75.2974 82.3685 72.5016 75.3218 72.5013C68.2752 72.5009 61.5162 75.2959 56.5279 80.273C52.1436 84.6675 49.6812 90.6214 49.6809 96.8289C49.6806 103.036 52.1423 108.991 56.5261 113.386C60.3263 117.178 65.4758 119.308 70.8447 119.308C76.2135 119.309 81.3632 117.179 85.1639 113.387C88.3636 110.181 90.1608 105.836 90.161 101.306C90.1613 96.7758 88.3646 92.4308 85.1652 89.2239C82.5524 86.6168 79.0122 85.1525 75.3212 85.1523C71.6301 85.1521 68.0897 86.616 65.4767 89.2228C63.4591 91.2402 62.3255 93.9764 62.3254 96.8296C62.3252 99.6827 63.4585 102.419 65.4759 104.437C66.8999 105.861 68.8313 106.661 70.8453 106.661C72.8593 106.661 74.7909 105.861 76.215 104.437C77.0458 103.607 77.5126 102.48 77.5126 101.305C77.5127 100.13 77.0461 99.0035 76.2154 98.1727C75.9784 97.9365 75.6574 97.8037 75.3227 97.8035C75.6101 98.6158 75.6127 99.5017 75.3301 100.316C75.0474 101.13 74.4963 101.823 73.7673 102.282C73.0383 102.742 72.1748 102.939 71.3186 102.843C70.4623 102.747 69.6644 102.362 69.0557 101.752C67.869 100.565 67.2024 98.9556 67.2025 97.2773C67.2026 95.599 67.8694 93.9894 69.0562 92.8028C70.7178 91.1414 72.9712 90.2081 75.3209 90.2082C77.6705 90.2084 79.9239 91.1419 81.5853 92.8034C82.7017 93.92 83.5873 95.2455 84.1914 96.7043C84.7956 98.163 85.1065 99.7265 85.1064 101.305C85.1063 102.884 84.7952 104.448 84.1909 105.907C83.5866 107.365 82.7009 108.691 81.5844 109.807C78.7339 112.651 74.8716 114.249 70.8449 114.248C66.8182 114.248 62.9561 112.65 60.106 109.806C56.67 106.361 54.7405 101.695 54.7408 96.8292C54.7411 91.9638 56.671 87.2972 60.1074 83.8529C64.1454 79.8236 69.6171 77.5608 75.3216 77.5612C81.0261 77.5615 86.4975 79.8248 90.5351 83.8546C95.1562 88.4869 97.7512 94.763 97.7509 101.306C97.7505 107.849 95.1548 114.125 90.5332 118.757C85.3071 123.971 78.2263 126.898 70.8442 126.898C63.4622 126.898 56.3817 123.969 51.1562 118.755C45.3499 112.935 42.0893 105.049 42.0898 96.8285C42.0902 88.6075 45.3517 80.7224 51.1586 74.9031C57.5723 68.5043 66.2624 64.9109 75.3223 64.9114C84.3821 64.9119 93.0718 68.5062 99.4849 74.9058C106.476 81.9133 110.402 91.4081 110.402 101.307C110.401 111.206 106.474 120.7 99.482 127.707Z" fill="white" />
</svg>
