<svg width="14" height="14" viewBox="0 0 14 14" fill="none" xmlns="http://www.w3.org/2000/svg">
<path d="M7.84188 1.83563L8.86854 3.88896C9.00854 4.17479 9.38188 4.44896 9.69688 4.50146L11.5577 4.81063C12.7477 5.00896 13.0277 5.87229 12.1702 6.72396L10.7235 8.17063C10.4785 8.41563 10.3444 8.88813 10.4202 9.22646L10.8344 11.0173C11.161 12.4348 10.4085 12.9831 9.15438 12.2423L7.41021 11.2098C7.09521 11.0231 6.57604 11.0231 6.25521 11.2098L4.51104 12.2423C3.26271 12.9831 2.50438 12.429 2.83104 11.0173L3.24521 9.22646C3.32104 8.88813 3.18688 8.41563 2.94188 8.17063L1.49521 6.72396C0.643544 5.87229 0.917711 5.00896 2.10771 4.81063L3.96854 4.50146C4.27771 4.44896 4.65104 4.17479 4.79104 3.88896L5.81771 1.83563C6.37771 0.721458 7.28771 0.721458 7.84188 1.83563Z" fill="white" stroke="#C8C9CB" stroke-linecap="round" stroke-linejoin="round"/>
<path fill-rule="evenodd" clip-rule="evenodd" d="M7 1.01957C6.57974 0.92127 6.14056 1.19329 5.81771 1.83563L4.79104 3.88896C4.65104 4.17479 4.27771 4.44896 3.96854 4.50146L2.10771 4.81063C0.917711 5.00896 0.643544 5.87229 1.49521 6.72396L2.94188 8.17063C3.18688 8.41563 3.32104 8.88813 3.24521 9.22646L2.83104 11.0173C2.50438 12.429 3.26271 12.9831 4.51104 12.2423L6.25521 11.2098C6.45809 11.0918 6.74028 11.0484 7 11.0796V1.01957Z" fill="#FFC06D"/>
<path d="M5.81771 1.83563L5.14759 1.49881L5.14689 1.50021L5.81771 1.83563ZM7 1.01957H7.75C7.75 0.671162 7.51007 0.368633 7.17082 0.289281L7 1.01957ZM4.79104 3.88896L4.1202 3.55354L4.1175 3.55906L4.79104 3.88896ZM3.96854 4.50146L4.09147 5.24132L4.09411 5.24087L3.96854 4.50146ZM2.10771 4.81063L1.98479 4.07077L1.98441 4.07083L2.10771 4.81063ZM1.49521 6.72396L0.96488 7.25429L0.964881 7.25429L1.49521 6.72396ZM2.94188 8.17063L3.47221 7.6403L3.47221 7.6403L2.94188 8.17063ZM3.24521 9.22646L3.97594 9.39546L3.97705 9.39049L3.24521 9.22646ZM2.83104 11.0173L3.56174 11.1864L3.56176 11.1863L2.83104 11.0173ZM4.51104 12.2423L4.12899 11.5969L4.12828 11.5973L4.51104 12.2423ZM6.25521 11.2098L5.87803 10.5615L5.87315 10.5644L6.25521 11.2098ZM7 11.0796L6.91042 11.8242C7.1234 11.8499 7.33716 11.7831 7.49765 11.6407C7.65814 11.4984 7.75 11.2941 7.75 11.0796H7ZM6.48783 2.17244C6.61066 1.92805 6.72583 1.81585 6.79024 1.77264C6.80532 1.76251 6.81659 1.75682 6.82375 1.75373C6.83082 1.75068 6.83443 1.74991 6.83483 1.74983C6.83512 1.74977 6.83384 1.75003 6.83164 1.75C6.82943 1.74997 6.82841 1.74968 6.82918 1.74986L7.17082 0.289281C6.24206 0.0720415 5.53025 0.737478 5.14759 1.49881L6.48783 2.17244ZM5.46186 4.22437L6.48853 2.17104L5.14689 1.50021L4.12022 3.55355L5.46186 4.22437ZM4.09411 5.24087C4.3958 5.18964 4.67441 5.04497 4.88993 4.88517C5.10537 4.72543 5.32742 4.49892 5.46459 4.21886L4.1175 3.55906C4.11839 3.55723 4.11105 3.57194 4.08727 3.5986C4.06438 3.62426 4.03344 3.65288 3.99653 3.68025C3.95963 3.70761 3.92296 3.72912 3.89127 3.74387C3.85829 3.75922 3.84144 3.76231 3.84298 3.76204L4.09411 5.24087ZM2.23063 5.55048L4.09147 5.24132L3.84562 3.7616L1.98479 4.07077L2.23063 5.55048ZM2.02554 6.19363C1.69271 5.8608 1.76228 5.71291 1.75029 5.75044C1.73808 5.78868 1.76611 5.6279 2.23101 5.55042L1.98441 4.07083C1.25931 4.19168 0.555256 4.56174 0.321378 5.29415C0.0877277 6.02584 0.446043 6.73545 0.96488 7.25429L2.02554 6.19363ZM3.47221 7.6403L2.02554 6.19363L0.964881 7.25429L2.41155 8.70096L3.47221 7.6403ZM3.97705 9.39049C4.04894 9.06977 4.01485 8.73644 3.9349 8.45714C3.85504 8.17818 3.7071 7.87519 3.47221 7.6403L2.41155 8.70095C2.42165 8.71106 2.4633 8.76682 2.49282 8.86995C2.52224 8.97273 2.51732 9.04481 2.51337 9.06243L3.97705 9.39049ZM3.56176 11.1863L3.97592 9.39545L2.5145 9.05747L2.10033 10.8483L3.56176 11.1863ZM4.12828 11.5973C3.87373 11.7484 3.6914 11.8042 3.58301 11.8177C3.48105 11.8305 3.48435 11.8033 3.5225 11.8311C3.56074 11.859 3.53614 11.8708 3.51741 11.7706C3.49746 11.6639 3.49518 11.474 3.56174 11.1864L2.10035 10.8482C1.92144 11.6213 1.94688 12.5383 2.63834 13.0428C3.32922 13.547 4.21052 13.2928 4.89381 12.8873L4.12828 11.5973ZM5.87315 10.5644L4.12899 11.5969L4.8931 12.8877L6.63727 11.8552L5.87315 10.5644ZM7.08958 10.335C6.70784 10.289 6.25307 10.3433 5.87804 10.5615L6.63238 11.8581C6.66311 11.8402 6.77272 11.8077 6.91042 11.8242L7.08958 10.335ZM7.75 11.0796V1.01957H6.25V11.0796H7.75Z" fill="#FFC06D"/>
</svg>
