<svg width="28" height="30" viewBox="0 0 28 30" fill="none" xmlns="http://www.w3.org/2000/svg">
<path d="M2.98951 26.4067C4.58951 28.3333 7.56551 28.3333 13.5188 28.3333H14.4815C20.4348 28.3333 23.4122 28.3333 25.0122 26.4067M2.98951 26.4067C1.38951 24.4787 1.93885 21.5533 3.03618 15.7C3.81618 11.54 4.20551 9.45867 5.68685 8.22933M25.0122 26.4067C26.6122 24.4787 26.0628 21.5533 24.9655 15.7C24.1855 11.54 23.7948 9.45867 22.3135 8.22933M22.3135 8.22933C20.8335 7 18.7148 7 14.4815 7H13.5188C9.28551 7 7.16818 7 5.68685 8.22933" stroke="#131313" stroke-width="2"/>
<path d="M14 15.2547L13.308 15.9773C13.4942 16.1558 13.7421 16.2554 14 16.2554C14.2579 16.2554 14.5058 16.1558 14.692 15.9773L14 15.2547ZM13.3147 19.348C12.7587 18.9387 12.144 18.428 11.6787 17.8907C11.188 17.3227 11 16.8813 11 16.596H9C9 17.6227 9.588 18.5293 10.1667 19.1987C10.7707 19.8987 11.5187 20.5107 12.132 20.96L13.3147 19.348ZM11 16.596C11 15.828 11.3507 15.4933 11.656 15.3867C11.9893 15.2693 12.608 15.3067 13.3093 15.9773L14.692 14.5333C13.592 13.48 12.2107 13.072 10.9947 13.4987C9.74933 13.9347 9 15.1333 9 16.596H11ZM15.8667 20.96C16.48 20.5107 17.2293 19.8987 17.8333 19.2C18.412 18.5307 19 17.6227 19 16.596H17C17 16.8813 16.812 17.3227 16.32 17.8907C15.856 18.428 15.2413 18.9387 14.6853 19.348L15.868 20.9613L15.8667 20.96ZM19 16.596C19 15.1333 18.2493 13.9347 17.0053 13.4987C15.7893 13.072 14.408 13.48 13.308 14.5333L14.692 15.9773C15.392 15.3067 16.0107 15.2693 16.3453 15.3867C16.6493 15.4933 17 15.8267 17 16.596H19ZM12.1333 20.96C12.624 21.32 13.176 21.7707 14 21.7707V19.7707C13.968 19.7707 13.9467 19.7707 13.8747 19.7307C13.6801 19.6151 13.493 19.4873 13.3147 19.348L12.132 20.9613L12.1333 20.96ZM14.6853 19.348C14.5071 19.4882 14.32 19.6156 14.1253 19.732C14.0533 19.7707 14.032 19.7707 14 19.7707V21.7707C14.824 21.7707 15.376 21.3213 15.8667 20.96L14.6853 19.348Z" fill="#131313"/>
<path d="M10 7.00008V5.66675C10 4.60588 10.4214 3.58847 11.1716 2.83832C11.9217 2.08818 12.9391 1.66675 14 1.66675C15.0609 1.66675 16.0783 2.08818 16.8284 2.83832C17.5786 3.58847 18 4.60588 18 5.66675V7.00008" stroke="#131313" stroke-width="2" stroke-linecap="round"/>
</svg>
