<svg width="19" height="19" viewBox="0 0 19 19" fill="none" xmlns="http://www.w3.org/2000/svg">
<path d="M14.0303 10.9091C13.833 11.1003 13.7424 11.3767 13.7873 11.6479L14.4644 15.395C14.5215 15.7126 14.3875 16.034 14.1217 16.2176C13.8612 16.408 13.5147 16.4308 13.2306 16.2785L9.85742 14.5192C9.74013 14.4567 9.60989 14.4232 9.47661 14.4194H9.27022C9.19863 14.4301 9.12856 14.4529 9.06458 14.488L5.69065 16.2557C5.52386 16.3394 5.33498 16.3691 5.14991 16.3394C4.69904 16.2541 4.3982 15.8246 4.47208 15.3714L5.14991 11.6243C5.19485 11.3509 5.10421 11.0729 4.90696 10.8786L2.15679 8.21299C1.92678 7.98983 1.84681 7.65472 1.95191 7.35236C2.05397 7.05076 2.31444 6.83065 2.62898 6.78115L6.41418 6.23202C6.70207 6.20232 6.95492 6.02715 7.0844 5.7682L8.75232 2.34854C8.79193 2.27238 8.84295 2.20231 8.90464 2.1429L8.97319 2.08959C9.00898 2.04998 9.05011 2.01723 9.09581 1.99058L9.17882 1.96011L9.3083 1.9068H9.62893C9.9153 1.9365 10.1674 2.10787 10.2992 2.36377L11.9892 5.7682C12.111 6.01725 12.3479 6.19013 12.6213 6.23202L16.4065 6.78115C16.7264 6.82685 16.9937 7.04771 17.0996 7.35236C17.1993 7.65777 17.1133 7.99288 16.8787 8.21299L14.0303 10.9091Z" fill="#F6B76F"/>
</svg>
