<svg width="19" height="19" viewBox="0 0 19 19" fill="none" xmlns="http://www.w3.org/2000/svg">
<path d="M14.3583 10.9091C14.1611 11.1003 14.0704 11.3767 14.1154 11.6479L14.7925 15.395C14.8496 15.7126 14.7155 16.034 14.4497 16.2176C14.1893 16.408 13.8427 16.4308 13.5586 16.2785L10.1855 14.5192C10.0682 14.4567 9.93796 14.4232 9.80468 14.4194H9.59828C9.52669 14.4301 9.45662 14.4529 9.39265 14.488L6.01872 16.2557C5.85192 16.3394 5.66305 16.3691 5.47797 16.3394C5.0271 16.2541 4.72627 15.8246 4.80014 15.3714L5.47797 11.6243C5.52291 11.3509 5.43228 11.0729 5.23502 10.8786L2.48485 8.21299C2.25484 7.98983 2.17487 7.65472 2.27998 7.35236C2.38203 7.05076 2.6425 6.83065 2.95705 6.78115L6.74225 6.23202C7.03013 6.20232 7.28299 6.02715 7.41246 5.7682L9.08039 2.34854C9.11999 2.27238 9.17102 2.20231 9.23271 2.1429L9.30125 2.08959C9.33705 2.04998 9.37818 2.01723 9.42387 1.99058L9.50689 1.96011L9.63636 1.9068H9.957C10.2434 1.9365 10.4955 2.10787 10.6272 2.36377L12.3172 5.7682C12.4391 6.01725 12.6759 6.19013 12.9494 6.23202L16.7346 6.78115C17.0544 6.82685 17.3218 7.04771 17.4276 7.35236C17.5274 7.65777 17.4413 7.99288 17.2068 8.21299L14.3583 10.9091Z" fill="#F6B76F" fill-opacity="0.5"/>
</svg>
