<svg width="33" height="33" viewBox="0 0 26 36" fill="none" xmlns="http://www.w3.org/2000/svg">
<path d="M1.33203 1.33203H19.6654C20.9914 1.33203 22.2632 1.85882 23.2009 2.7965C24.1386 3.73418 24.6654 5.00595 24.6654 6.33203V29.6654C24.6654 30.1074 24.4898 30.5313 24.1772 30.8439C23.8647 31.1564 23.4407 31.332 22.9987 31.332H17.9987" stroke="#131313" stroke-width="2" stroke-linecap="round" stroke-linejoin="round"/>
<path d="M12.9987 17.9987V21.332M1.33203 1.33203L13.9787 3.86203C15.112 4.08856 16.1319 4.70071 16.8648 5.59435C17.5977 6.488 17.9984 7.60795 17.9987 8.7637V32.632C17.9985 32.8785 17.9437 33.1219 17.8382 33.3446C17.7327 33.5674 17.579 33.764 17.3884 33.9202C17.1977 34.0764 16.9748 34.1884 16.7356 34.2481C16.4965 34.3078 16.2471 34.3137 16.0054 34.2654L4.01203 31.8687C3.2561 31.7176 2.57591 31.3092 2.08726 30.713C1.59862 30.1167 1.33173 29.3696 1.33203 28.5987V1.33203Z" stroke="#131313" stroke-width="2" stroke-linecap="round" stroke-linejoin="round"/>
</svg>
