<svg width="40" height="40" viewBox="0 0 40 40" fill="none" xmlns="http://www.w3.org/2000/svg">
<path d="M26.2487 24.1693C25.9172 24.1693 25.5992 24.301 25.3648 24.5354C25.1304 24.7698 24.9987 25.0878 24.9987 25.4193C24.9987 25.7508 25.1304 26.0687 25.3648 26.3032C25.5992 26.5376 25.9172 26.6693 26.2487 26.6693H30.4154C30.7469 26.6693 31.0648 26.5376 31.2992 26.3032C31.5337 26.0687 31.6654 25.7508 31.6654 25.4193C31.6654 25.0878 31.5337 24.7698 31.2992 24.5354C31.0648 24.301 30.7469 24.1693 30.4154 24.1693H26.2487ZM3.33203 13.7526C3.33203 12.316 3.90271 10.9383 4.91854 9.92244C5.93436 8.90662 7.31211 8.33594 8.7487 8.33594H31.2487C31.96 8.33594 32.6644 8.47604 33.3216 8.74826C33.9787 9.02047 34.5759 9.41946 35.0789 9.92244C35.5818 10.4254 35.9808 11.0226 36.253 11.6797C36.5253 12.3369 36.6654 13.0413 36.6654 13.7526V26.2526C36.6654 26.9639 36.5253 27.6683 36.253 28.3255C35.9808 28.9827 35.5818 29.5798 35.0789 30.0828C34.5759 30.5858 33.9787 30.9847 33.3216 31.257C32.6644 31.5292 31.96 31.6693 31.2487 31.6693H8.7487C7.31211 31.6693 5.93436 31.0986 4.91854 30.0828C3.90271 29.0669 3.33203 27.6892 3.33203 26.2526V13.7526ZM34.1654 15.8359V13.7526C34.1654 12.9791 33.8581 12.2372 33.3111 11.6902C32.7641 11.1432 32.0222 10.8359 31.2487 10.8359H8.7487C7.97515 10.8359 7.23328 11.1432 6.6863 11.6902C6.13932 12.2372 5.83203 12.9791 5.83203 13.7526V15.8359H34.1654ZM5.83203 18.3359V26.2526C5.83203 27.8626 7.1387 29.1693 8.7487 29.1693H31.2487C32.0222 29.1693 32.7641 28.862 33.3111 28.315C33.8581 27.768 34.1654 27.0262 34.1654 26.2526V18.3359H5.83203Z" fill="#131313"/>
</svg>
